<svg width="115" height="125" viewBox="0 0 115 125" fill="none" xmlns="http://www.w3.org/2000/svg">
<circle cx="50" cy="75" r="50" fill="#0EDA87"/>
<path d="M79.0564 87.8223L80.117 88.883L79.0564 87.8223C78.8927 87.986 78.638 88.0159 78.4408 87.8946L77.6546 89.1721L78.4408 87.8946L67.7337 81.3056C66.7026 80.6711 65.4169 80.6145 64.3341 81.1559L52.2236 87.2111C51.8912 87.3774 51.5 87.1356 51.5 86.7639V2C51.5 1.72386 51.7239 1.5 52 1.5H113C113.276 1.5 113.5 1.72386 113.5 2V86.263C113.5 86.6623 113.055 86.9005 112.723 86.679L105.196 81.6614C103.808 80.736 101.96 80.919 100.78 82.0987L95.3535 87.5251C95.1583 87.7204 94.8417 87.7204 94.6464 87.5251L89.4749 82.3536C88.108 80.9867 85.892 80.9867 84.5251 82.3536L79.0564 87.8223Z" stroke="#123E6D" stroke-width="3"/>
<path d="M62.5 20.5H101" stroke="#123E6D" stroke-width="2"/>
<path d="M62 33H100.5" stroke="#123E6D" stroke-width="2"/>
<path d="M62 45H100.5" stroke="#123E6D" stroke-width="2"/>
<path d="M62.5 56H101" stroke="#123E6D" stroke-width="2"/>
</svg>
