<svg id="Capa_1" data-name="Capa 1" xmlns="http://www.w3.org/2000/svg" xmlns:xlink="http://www.w3.org/1999/xlink" viewBox="0 0 217.5 133"><defs><style>.cls-1,.cls-4,.cls-6{fill:none;}.cls-2{clip-path:url(#clip-path);}.cls-3,.cls-5{fill:#f7ea03;}.cls-3{opacity:0.57;}.cls-4,.cls-6{stroke:#253546;stroke-miterlimit:10;}.cls-4{stroke-linecap:round;stroke-width:2px;}</style><clipPath id="clip-path"><rect class="cls-1" x="13.86" y="10.89" width="189.45" height="106.56" rx="12.61" ry="12.61"/></clipPath></defs><title>card</title><g class="cls-2"><circle class="cls-3" cx="142.71" cy="45.92" r="61.36"/><circle class="cls-3" cx="69.71" cy="49.33" r="34.13"/><circle class="cls-3" cx="173.98" cy="92.75" r="20.8"/></g><rect class="cls-4" x="13.86" y="10.89" width="189.45" height="106.56" rx="12.61" ry="12.61"/><path class="cls-5" d="M32,17.71a2,2,0,0,1,2,2.43,4.08,4.08,0,0,1-2.16,2.26A13.2,13.2,0,0,1,25.71,24a4.78,4.78,0,0,1-2.06-.43c-.57-.29-1.17-.9-.71-1.59s2.15-.91,3-1a8.69,8.69,0,0,1,5.79,1.54c2.55,1.92.43,4.07-1.62,5.18a10.57,10.57,0,0,1-3,1.12,4.1,4.1,0,0,1-2,0c-1-.33-1.39-1.18-.28-1.84.93-.54,2.55-.19,3.55,0a23.86,23.86,0,0,1,3.13.65c1.29.36,5.65,2,3.34,3.9-.6.5.26,1.36.86.86,1.88-1.57.6-3.91-1.16-4.9A17.63,17.63,0,0,0,26,25.55a3.61,3.61,0,0,0-2.82,1.15,1.9,1.9,0,0,0,.37,2.66c2,1.76,5.39.43,7.34-.69s4.2-3.16,3-5.52c-1.13-2.2-4.1-3.16-6.39-3.36-1.78-.15-5.54.05-6,2.37-.48,2.56,3.33,3.15,5.07,3,2.69-.22,6.49-1.21,8.07-3.62s0-4.82-2.65-5.05c-.78-.07-.78,1.15,0,1.22Z"/><path d="M42,22a.19.19,0,0,1,.19-.19h1.57a1.58,1.58,0,0,1,0,3.16l-1.37,0v2.18a.19.19,0,0,1-.39,0Zm1.76,2.6a1.2,1.2,0,0,0,0-2.4H42.4v2.4Z"/><path d="M46.89,22a.19.19,0,0,1,.39,0v5.16a.19.19,0,0,1-.39,0Z"/><path d="M52,24.82a.19.19,0,0,1-.2-.19.2.2,0,0,1,.2-.2h1.73a.2.2,0,0,1,.17.2v1.93a.22.22,0,0,1-.07.14,2.84,2.84,0,1,1-1.79-5,2.9,2.9,0,0,1,1.8.63.2.2,0,0,1,0,.27.21.21,0,0,1-.28,0,2.45,2.45,0,1,0-1.54,4.31,2.49,2.49,0,0,0,1.47-.48V24.82Z"/><path d="M56.11,22a.19.19,0,0,1,.39,0v3.11a1.85,1.85,0,1,0,3.71,0V22a.19.19,0,0,1,.39,0v3.11a2.24,2.24,0,1,1-4.48,0Z"/><path d="M65.32,22a.19.19,0,0,1,.19-.19h1.24a1.38,1.38,0,0,1,.85,2.46,1.58,1.58,0,0,1-.5,3.08H65.5a.19.19,0,0,1-.18-.19Zm1.43,2.18a1,1,0,0,0,0-2h-1v2Zm.35,2.79a1.2,1.2,0,0,0,0-2.39H65.71v2.39Z"/><path d="M73.1,25.88H70.58l-.49,1.31a.19.19,0,0,1-.18.13h-.07a.2.2,0,0,1-.11-.25l1.92-5.14a.21.21,0,0,1,.19-.12.19.19,0,0,1,.19.12L74,27.05a.2.2,0,0,1-.1.25h-.07a.2.2,0,0,1-.18-.13Zm-2.38-.39H73l-1.12-3Z"/><path d="M75.79,22.58v4.54a.19.19,0,1,1-.38,0V22a.19.19,0,0,1,.07-.21.2.2,0,0,1,.27,0l3.36,4.66V22a.19.19,0,0,1,.19-.19.19.19,0,0,1,.2.19v5.11a.2.2,0,0,1-.2.19.18.18,0,0,1-.15-.07l0,0Z"/><path d="M81.7,22a.19.19,0,1,1,.39,0v3.21l3.35-3.35a.2.2,0,0,1,.27,0,.19.19,0,0,1,0,.28l-2.12,2.12L85.75,27a.21.21,0,0,1,0,.28.18.18,0,0,1-.13,0,.16.16,0,0,1-.14-.07L83.3,24.52l-1.22,1.22v1.39a.19.19,0,0,1-.39,0Z"/><path d="M35.84,96.08a.39.39,0,0,1,0-.56.41.41,0,0,1,.58,0,3,3,0,0,0,2.13.87,3,3,0,0,0,3-3,3,3,0,0,0-5.15-2.13.39.39,0,0,1-.56,0,.26.26,0,0,1-.1-.13v0a.06.06,0,0,1,0,0,.32.32,0,0,1,0-.13.72.72,0,0,0,0-.08l.55-4.55a.34.34,0,0,1,.16-.29.37.37,0,0,1,.26-.1H42a.4.4,0,0,1,.4.4.39.39,0,0,1-.4.4H37.05l-.4,3.36a3.81,3.81,0,0,1,1.92-.52,3.8,3.8,0,0,1,3.81,3.82,3.78,3.78,0,0,1-1.11,2.71,3.92,3.92,0,0,1-2.71,1.11A3.82,3.82,0,0,1,35.84,96.08Z"/><path d="M45.93,91.54a7.19,7.19,0,0,1,1.08-4,3.2,3.2,0,0,1,5.65,0,7.33,7.33,0,0,1,1.1,4,7.24,7.24,0,0,1-1.1,3.94,3.19,3.19,0,0,1-5.65,0A7.1,7.1,0,0,1,45.93,91.54Zm.79,0a6.4,6.4,0,0,0,1,3.5A2.4,2.4,0,0,0,52,95a6.82,6.82,0,0,0,0-7,2.4,2.4,0,0,0-4.32,0A6.4,6.4,0,0,0,46.73,91.54Z"/><path d="M61.3,85.89a2.35,2.35,0,0,1,1.39,4.24,3.65,3.65,0,1,1-2.79,0,2.39,2.39,0,0,1-.94-1.9A2.33,2.33,0,0,1,61.3,85.89Zm0,10.52a2.89,2.89,0,1,0-2.89-2.89A2.88,2.88,0,0,0,61.3,96.41Zm0-6.58a1.61,1.61,0,0,0,1.58-1.6,1.57,1.57,0,0,0-3.15,0A1.59,1.59,0,0,0,61.3,89.83Z"/><path d="M68.46,96.08a.39.39,0,0,1,0-.56.41.41,0,0,1,.58,0,3,3,0,0,0,2.13.87,3,3,0,0,0,3-3A3,3,0,0,0,69,91.23a.39.39,0,0,1-.56,0,.26.26,0,0,1-.1-.13v0a.06.06,0,0,1,0,0,.32.32,0,0,1,0-.13.72.72,0,0,0,0-.08l.55-4.55a.34.34,0,0,1,.16-.29.37.37,0,0,1,.26-.1h5.26a.4.4,0,0,1,.4.4.39.39,0,0,1-.4.4H69.67l-.4,3.36a3.81,3.81,0,0,1,1.92-.52A3.8,3.8,0,0,1,75,93.36a3.78,3.78,0,0,1-1.11,2.71,3.92,3.92,0,0,1-2.71,1.11A3.82,3.82,0,0,1,68.46,96.08Z"/><path d="M85.48,87l-1.6.94a.38.38,0,0,1-.19.06.39.39,0,0,1-.34-.19.37.37,0,0,1,.15-.53L85.67,86a.41.41,0,0,1,.53.15.47.47,0,0,1,0,.29V96.8a.38.38,0,0,1-.39.39.39.39,0,0,1-.39-.39Z"/><path d="M89.69,96.08a.39.39,0,0,1,0-.56.41.41,0,0,1,.58,0,3,3,0,0,0,2.13.87,3,3,0,0,0,3-3,3,3,0,0,0-5.15-2.13.39.39,0,0,1-.56,0,.26.26,0,0,1-.1-.13v0a.06.06,0,0,1,0,0,.32.32,0,0,1,0-.13.72.72,0,0,0,0-.08l.55-4.55A.34.34,0,0,1,90.3,86a.37.37,0,0,1,.26-.1h5.26a.4.4,0,0,1,.4.4.39.39,0,0,1-.4.4H90.9l-.4,3.36a3.81,3.81,0,0,1,1.92-.52,3.8,3.8,0,0,1,3.81,3.82,3.78,3.78,0,0,1-1.11,2.71,3.92,3.92,0,0,1-2.71,1.11A3.82,3.82,0,0,1,89.69,96.08Z"/><path d="M103.44,85.89a3.71,3.71,0,0,1,3.71,3.29l0,.08c0,.31,0,.63,0,1a9.36,9.36,0,0,1-1.08,4.5,4.67,4.67,0,0,1-4,2.45h0a.38.38,0,0,1-.4-.37.41.41,0,0,1,.39-.42,3.83,3.83,0,0,0,3.29-2,7.14,7.14,0,0,0,.81-2.26,3.75,3.75,0,0,1-6.54-2.48A3.73,3.73,0,0,1,103.44,85.89Zm3,3.71a2.95,2.95,0,1,0-3,2.94A2.93,2.93,0,0,0,106.4,89.6Z"/><path d="M114,85.89a2.35,2.35,0,0,1,1.39,4.24,3.65,3.65,0,1,1-2.79,0,2.39,2.39,0,0,1-.94-1.9A2.33,2.33,0,0,1,114,85.89Zm0,10.52a2.89,2.89,0,1,0-2.89-2.89A2.88,2.88,0,0,0,114,96.41Zm0-6.58a1.61,1.61,0,0,0,1.58-1.6,1.57,1.57,0,0,0-3.15,0A1.59,1.59,0,0,0,114,89.83Z"/><path d="M132.6,94.86h-6.17a.34.34,0,0,1-.24-.08.37.37,0,0,1,0-.55l6.54-8.13,0,0a.37.37,0,0,1,.55,0,.51.51,0,0,1,.13.19s0,0,0,.06v7.79h.76a.39.39,0,1,1,0,.77h-.76V96.8a.4.4,0,0,1-.79,0Zm0-.77V87.47l-5.34,6.62Z"/><path d="M137.5,96.08a.39.39,0,0,1,0-.56.41.41,0,0,1,.58,0,3,3,0,0,0,2.13.87,3,3,0,0,0,3-3,3,3,0,0,0-5.15-2.13.39.39,0,0,1-.56,0,.26.26,0,0,1-.1-.13v0a.06.06,0,0,1,0,0,.32.32,0,0,1,0-.13.72.72,0,0,0,0-.08l.55-4.55a.34.34,0,0,1,.16-.29.37.37,0,0,1,.26-.1h5.26a.4.4,0,0,1,.4.4.39.39,0,0,1-.4.4h-4.92l-.4,3.36a3.81,3.81,0,0,1,1.92-.52A3.8,3.8,0,0,1,144,93.36a3.78,3.78,0,0,1-1.11,2.71,3.92,3.92,0,0,1-2.71,1.11A3.82,3.82,0,0,1,137.5,96.08Z"/><path d="M147.67,96.08a.39.39,0,0,1,0-.56.41.41,0,0,1,.58,0,3,3,0,0,0,2.13.87,3,3,0,0,0,3-3,3,3,0,0,0-5.15-2.13.39.39,0,0,1-.56,0,.26.26,0,0,1-.1-.13v0a.06.06,0,0,1,0,0,.32.32,0,0,1,0-.13.72.72,0,0,0,0-.08l.55-4.55a.34.34,0,0,1,.16-.29.37.37,0,0,1,.26-.1h5.26a.4.4,0,0,1,.4.4.39.39,0,0,1-.4.4h-4.92l-.4,3.36a3.81,3.81,0,0,1,1.92-.52,3.8,3.8,0,0,1,3.81,3.82,3.78,3.78,0,0,1-1.11,2.71,3.92,3.92,0,0,1-2.71,1.11A3.82,3.82,0,0,1,147.67,96.08Z"/><path d="M161.26,85.89a2.35,2.35,0,0,1,1.39,4.24,3.65,3.65,0,1,1-2.79,0,2.39,2.39,0,0,1-.94-1.9A2.33,2.33,0,0,1,161.26,85.89Zm0,10.52a2.89,2.89,0,1,0-2.89-2.89A2.88,2.88,0,0,0,161.26,96.41Zm0-6.58a1.61,1.61,0,0,0,1.58-1.6,1.57,1.57,0,0,0-3.15,0A1.59,1.59,0,0,0,161.26,89.83Z"/><path d="M168.41,96.08a.39.39,0,0,1,0-.56.41.41,0,0,1,.58,0,3,3,0,0,0,2.13.87,3,3,0,0,0,3-3A3,3,0,0,0,169,91.23a.39.39,0,0,1-.56,0,.26.26,0,0,1-.1-.13v0a.06.06,0,0,1,0,0,.32.32,0,0,1,0-.13.72.72,0,0,0,0-.08l.55-4.55A.34.34,0,0,1,169,86a.37.37,0,0,1,.26-.1h5.26a.4.4,0,0,1,.4.4.39.39,0,0,1-.4.4h-4.92l-.4,3.36a3.81,3.81,0,0,1,1.92-.52A3.8,3.8,0,0,1,175,93.36a3.78,3.78,0,0,1-1.11,2.71,3.92,3.92,0,0,1-2.71,1.11A3.82,3.82,0,0,1,168.41,96.08Z"/><path d="M178.59,96.08a.39.39,0,0,1,0-.56.41.41,0,0,1,.58,0,3,3,0,0,0,2.13.87,3,3,0,0,0,3-3,3,3,0,0,0-5.15-2.13.39.39,0,0,1-.56,0,.26.26,0,0,1-.1-.13v0a.06.06,0,0,1,0,0,.32.32,0,0,1,0-.13.72.72,0,0,0,0-.08l.55-4.55a.34.34,0,0,1,.16-.29.37.37,0,0,1,.26-.1h5.26a.4.4,0,0,1,.4.4.39.39,0,0,1-.4.4H179.8l-.4,3.36a3.81,3.81,0,0,1,1.92-.52,3.8,3.8,0,0,1,3.81,3.82A3.78,3.78,0,0,1,184,96.08a3.92,3.92,0,0,1-2.71,1.11A3.82,3.82,0,0,1,178.59,96.08Z"/><rect class="cls-6" x="25.5" y="53.9" width="33.03" height="16.35" rx="8.17" ry="8.17"/></svg>