<svg id="Capa_1" data-name="Capa 1" xmlns="http://www.w3.org/2000/svg" viewBox="0 0 86.67 70.51"><defs><style>.cls-1{fill:#0eda87;}.cls-2{fill:#ea57ff;}.cls-3{fill:#253546;}</style></defs><title>lapiz-verde</title><circle class="cls-1" cx="35.76" cy="39.11" r="26.87"/><polygon class="cls-2" points="75.37 14.67 37.31 46.9 46.21 46.82 79.36 19.5 75.37 14.67"/><path class="cls-3" d="M80.51,18.55l-8-9.66a1.5,1.5,0,0,0-2.11-.21l-5.49,4.53L37.29,36a1.49,1.49,0,0,0-.54,1l-.94,9.74a1.54,1.54,0,0,0,.39,1.16,1.51,1.51,0,0,0,1,.49h.11l8.9-.08a1.54,1.54,0,0,0,.93-.34l27.66-22.8,5.49-4.52a1.49,1.49,0,0,0,.21-2.11ZM45.67,45.32,39,45.39l.72-7.47,26-21.44,6.05,7.35Zm28.4-23.41L68,14.57,71.19,12l6.05,7.34Z"/><path class="cls-3" d="M48.16,52.63H24a1.5,1.5,0,0,1,0-3H48.16a1.5,1.5,0,0,1,0,3Z"/></svg>