<svg id="Capa_1" data-name="Capa 1" xmlns="http://www.w3.org/2000/svg" viewBox="0 0 86.67 97.02"><defs><style>.cls-1{fill:#e83f3f;}.cls-2{fill:none;stroke:#253546;stroke-miterlimit:10;stroke-width:3px;}</style></defs><title>rayo-budget</title><circle class="cls-1" cx="39.49" cy="64.15" r="26.87"/><polygon class="cls-1" points="67.32 4.01 39.49 50.7 53.41 51.56 67.32 4.01"/><path class="cls-2" d="M66,3.62,39.49,50.7c-.22.4.13.86.66.86H55.74c.49,0,.84.39.69.78L44.48,84c-.26.7.92,1.11,1.33.46L72.62,42.78c.25-.38-.06-.85-.58-.88l-14.48-1a.63.63,0,0,1-.65-.74L67.32,4C67.52,3.31,66.32,3,66,3.62Z"/></svg>