<svg id="Capa_1" data-name="Capa 1" xmlns="http://www.w3.org/2000/svg" xmlns:xlink="http://www.w3.org/1999/xlink" viewBox="0 0 459 212"><defs><style>.cls-1,.cls-11{fill:none;}.cls-2,.cls-8{fill:#eea845;}.cls-3{fill:#253546;}.cls-4{fill:#ff000d;}.cls-5{clip-path:url(#clip-path);}.cls-6{fill:#0eda87;}.cls-10,.cls-6,.cls-7,.cls-8,.cls-9{opacity:0.75;}.cls-7{fill:#5cd9ea;}.cls-9{fill:#f90bed;}.cls-10{fill:#ef3352;}.cls-11{stroke:#253546;stroke-miterlimit:10;}.cls-12,.cls-26,.cls-37{font-size:12px;}.cls-12,.cls-29,.cls-30{font-family:Quicksand-Light, Quicksand;}.cls-13{letter-spacing:0.04em;}.cls-14{letter-spacing:-0.04em;}.cls-15{letter-spacing:-0.02em;}.cls-16{letter-spacing:-0.03em;}.cls-17{letter-spacing:-0.02em;}.cls-18{letter-spacing:-0.02em;}.cls-19,.cls-30{letter-spacing:-0.05em;}.cls-20,.cls-23{letter-spacing:0.03em;}.cls-21,.cls-26,.cls-33,.cls-37{font-family:Quicksand-Bold, Quicksand;}.cls-22,.cls-23,.cls-24,.cls-33,.cls-37{font-weight:700;}.cls-24,.cls-38{letter-spacing:-0.02em;}.cls-25{font-family:MyriadPro-Regular, Myriad Pro;}.cls-27{letter-spacing:-0.01em;}.cls-28{letter-spacing:-0.03em;}.cls-31{letter-spacing:0.01em;}.cls-32{letter-spacing:-0.03em;}.cls-34{letter-spacing:-0.05em;}.cls-35{letter-spacing:0.02em;}.cls-36{letter-spacing:0.01em;}</style><clipPath id="clip-path"><rect class="cls-1" x="34.06" y="80.97" width="386.25" height="37.55" rx="16.62" ry="16.62"/></clipPath></defs><title>tipCard</title><polygon class="cls-2" points="325.03 65.1 320.67 74 326.34 76.78 325.03 65.1"/><path class="cls-3" d="M326.93,78.4a.72.72,0,0,1-.32-.07l-13.05-6.4a.73.73,0,0,1-.06-1.27l11.56-7.07a.73.73,0,0,1,1.1.54l1.49,13.47a.73.73,0,0,1-.72.8Zm-11.55-7.2,10.68,5.24-1.22-11Z"/><path class="cls-3" d="M322.37,71.19a.73.73,0,0,1-.65-1L323,67.5a.72.72,0,0,1,1.3.64L323,70.78A.73.73,0,0,1,322.37,71.19Z"/><path class="cls-3" d="M321.21,71.54a.64.64,0,1,0,.43,0c-.35-.16-.66.36-.3.52.06,0,.12.13,0,.1s-.09,0,0-.08c.36-.13.21-.71-.16-.58Z"/><polygon class="cls-4" points="378.85 122.79 374.49 131.69 380.16 134.47 378.85 122.79"/><path class="cls-3" d="M380.75,136.09a.72.72,0,0,1-.32-.07l-13.05-6.4a.73.73,0,0,1-.06-1.27l11.56-7.07a.73.73,0,0,1,1.1.54l1.49,13.47a.73.73,0,0,1-.72.8Zm-11.55-7.2,10.68,5.24-1.22-11Z"/><path class="cls-3" d="M376.19,128.88a.73.73,0,0,1-.65-1l1.29-2.64a.72.72,0,1,1,1.3.64l-1.29,2.64A.73.73,0,0,1,376.19,128.88Z"/><path class="cls-3" d="M375,129.23a.64.64,0,1,0,.43,0c-.35-.16-.66.36-.3.52.06,0,.12.13,0,.1s-.09,0,0-.08c.36-.13.21-.71-.16-.58Z"/><g class="cls-5"><rect class="cls-6" x="34.06" y="78.83" width="160.3" height="39.69"/><rect class="cls-7" x="194.36" y="78.83" width="56.49" height="39.69"/><rect class="cls-8" x="250.85" y="78.83" width="56.49" height="39.69"/><rect class="cls-9" x="307.34" y="78.83" width="56.49" height="39.69"/><rect class="cls-10" x="363.82" y="78.83" width="56.49" height="39.69"/></g><path class="cls-3" d="M35.17,107.93a8.18,8.18,0,1,1,8.18-8.18A8.19,8.19,0,0,1,35.17,107.93Zm0-15.36a7.18,7.18,0,1,0,7.18,7.18A7.19,7.19,0,0,0,35.17,92.57Z"/><circle class="cls-3" cx="35.17" cy="98.4" r="3.18"/><line class="cls-11" x1="35.17" y1="98.4" x2="35.17" y2="185.79"/><path class="cls-3" d="M194.82,75.21a8.18,8.18,0,1,1-8.18,8.18A8.19,8.19,0,0,1,194.82,75.21Zm0,15.36a7.18,7.18,0,1,0-7.18-7.18A7.19,7.19,0,0,0,194.82,90.57Z"/><circle class="cls-3" cx="194.82" cy="83.39" r="3.18"/><line class="cls-11" x1="194.82" y1="83.39" x2="194.82" y2="15.2"/><path class="cls-3" d="M307.33,75.21a8.18,8.18,0,1,1-8.18,8.18A8.19,8.19,0,0,1,307.33,75.21Zm0,15.36a7.18,7.18,0,1,0-7.18-7.18A7.19,7.19,0,0,0,307.33,90.57Z"/><circle class="cls-3" cx="307.33" cy="83.39" r="3.18"/><line class="cls-11" x1="307.33" y1="83.39" x2="307.33" y2="15.2"/><path class="cls-3" d="M250.67,127.13a8.18,8.18,0,1,1,8.18-8.18A8.19,8.19,0,0,1,250.67,127.13Zm0-15.36a7.18,7.18,0,1,0,7.18,7.18A7.19,7.19,0,0,0,250.67,111.77Z"/><circle class="cls-3" cx="250.67" cy="118.95" r="3.18"/><line class="cls-11" x1="250.67" y1="118.95" x2="250.67" y2="187.14"/><text class="cls-12" transform="translate(38.35 129.33)">W<tspan class="cls-13" x="13.22" y="0">h</tspan><tspan x="21.06" y="0">a</tspan><tspan class="cls-14" x="28.49" y="0">t</tspan><tspan class="cls-15" x="32.81" y="0">e</tspan><tspan class="cls-16" x="39.81" y="0">v</tspan><tspan class="cls-17" x="46.44" y="0">e</tspan><tspan x="53.49" y="0">r </tspan><tspan class="cls-16" x="0" y="14.4">y</tspan><tspan class="cls-18" x="6.7" y="14.4">o</tspan><tspan x="14" y="14.4">u buy </tspan><tspan x="0" y="28.8">h</tspan><tspan class="cls-17" x="7.36" y="28.8">e</tspan><tspan class="cls-19" x="14.41" y="28.8">r</tspan><tspan x="19.08" y="28.8">e </tspan><tspan class="cls-16" x="29.99" y="28.8">y</tspan><tspan class="cls-18" x="36.68" y="28.8">o</tspan><tspan x="43.99" y="28.8">u </tspan><tspan x="0" y="43.2">p</tspan><tspan class="cls-20" x="7.92" y="43.2">a</tspan><tspan x="15.72" y="43.2">y it in </tspan><tspan class="cls-21"><tspan class="cls-22" x="0" y="57.6">45 d</tspan><tspan class="cls-23" x="26.75" y="57.6">a</tspan><tspan class="cls-24" x="34.55" y="57.6">y</tspan><tspan class="cls-22" x="41.36" y="57.6">s!</tspan><tspan class="cls-25" x="50.29" y="57.6"> </tspan></tspan></text><text class="cls-26" transform="translate(154.64 25.57)"><tspan class="cls-22">Cu<tspan class="cls-27" x="16.61" y="0">t</tspan><tspan class="cls-28" x="21.23" y="0">o</tspan><tspan x="28.31" y="0">ff </tspan></tspan><tspan class="cls-29"><tspan x="7" y="14.4">da</tspan><tspan class="cls-14" x="22.34" y="14.4">t</tspan><tspan x="26.66" y="14.4">e!</tspan></tspan></text><text class="cls-12" transform="translate(193.16 169.92)">P<tspan class="cls-20" x="7" y="0">a</tspan><tspan x="14.8" y="0">yment </tspan><tspan class="cls-21"><tspan class="cls-22" x="0" y="14.4">Due d</tspan><tspan class="cls-23" x="34.81" y="14.4">a</tspan><tspan class="cls-22" x="42.61" y="14.4">y</tspan><tspan class="cls-25" x="49.67" y="14.4"> </tspan></tspan></text><path class="cls-3" d="M363.58,127.13a8.18,8.18,0,1,1,8.18-8.18A8.19,8.19,0,0,1,363.58,127.13Zm0-15.36a7.18,7.18,0,1,0,7.18,7.18A7.19,7.19,0,0,0,363.58,111.77Z"/><circle class="cls-3" cx="363.58" cy="118.95" r="3.18"/><line class="cls-11" x1="363.58" y1="118.95" x2="363.58" y2="187.14"/><text class="cls-26" transform="translate(309.11 169.92)"><tspan class="cls-22">:o </tspan><tspan class="cls-29" x="13.98" y="0">C</tspan><tspan class="cls-30" x="23.23" y="0">r</tspan><tspan class="cls-29" x="27.9" y="0">edit </tspan><tspan class="cls-22"><tspan x="4.79" y="14.4">Bu</tspan><tspan class="cls-19" x="19.27" y="14.4">r</tspan><tspan x="23.94" y="14.4">earu</tspan></tspan></text><text class="cls-12" transform="translate(250 23.6)">H<tspan class="cls-17" x="8.51" y="0">e</tspan><tspan class="cls-19" x="15.56" y="0">r</tspan><tspan x="20.23" y="0">e </tspan><tspan class="cls-16" x="31.14" y="0">y</tspan><tspan class="cls-18" x="37.83" y="0">o</tspan><tspan x="45.14" y="0">u </tspan><tspan class="cls-31" x="24.48" y="14.4">s</tspan><tspan class="cls-32" x="30.56" y="14.4">t</tspan><tspan x="35" y="14.4">art </tspan><tspan x="11.08" y="28.8">p</tspan><tspan class="cls-20" x="19" y="28.8">a</tspan><tspan x="26.8" y="28.8">ying</tspan><tspan class="cls-25" x="52.5" y="28.8"> </tspan><tspan class="cls-33"><tspan x="7.25" y="43.2">In</tspan><tspan class="cls-14" x="18.26" y="43.2">t</tspan><tspan class="cls-17" x="22.58" y="43.2">e</tspan><tspan class="cls-34" x="29.64" y="43.2">r</tspan><tspan x="34.31" y="43.2">e</tspan><tspan class="cls-35" x="41.61" y="43.2">s</tspan><tspan x="47.7" y="43.2">t </tspan></tspan></text><path class="cls-3" d="M413.83,75.21a8.18,8.18,0,1,1-8.18,8.18A8.19,8.19,0,0,1,413.83,75.21Zm0,15.36a7.18,7.18,0,1,0-7.18-7.18A7.19,7.19,0,0,0,413.83,90.57Z"/><circle class="cls-3" cx="413.83" cy="83.39" r="3.18"/><line class="cls-11" x1="413.83" y1="83.39" x2="413.83" y2="15.2"/><text class="cls-12" transform="translate(367.3 23.6)">E<tspan class="cls-14" x="7.12" y="0">t</tspan><tspan class="cls-17" x="11.44" y="0">e</tspan><tspan x="18.49" y="0">rn</tspan><tspan class="cls-36" x="31.12" y="0">a</tspan><tspan x="38.71" y="0">l </tspan><tspan class="cls-33"><tspan x="1.5" y="14.4">Debt :/ </tspan></tspan></text><text class="cls-37" transform="translate(63.17 100.84)">30 d<tspan class="cls-20" x="27.36" y="0">a</tspan><tspan class="cls-38" x="35.16" y="0">y</tspan><tspan x="41.97" y="0">s</tspan></text><text class="cls-37" transform="translate(198.83 100.84)">15 d<tspan class="cls-20" x="22.8" y="0">a</tspan><tspan class="cls-38" x="30.6" y="0">y</tspan><tspan x="37.41" y="0">s</tspan></text></svg>