<svg id="Capa_1" data-name="Capa 1" xmlns="http://www.w3.org/2000/svg" viewBox="0 0 2185.9 1699.7"><defs><style>.cls-1,.cls-28{fill:#0eda87;}.cls-2{fill:#5cd9ea;}.cls-23,.cls-3{fill:#f90bed;}.cls-26,.cls-4{fill:#e10024;}.cls-31,.cls-5{fill:#eea845;}.cls-6{fill:#d7f3ff;}.cls-7{fill:#253546;}.cls-8{fill:#e2eddd;}.cls-9{fill:#ea57ff;}.cls-10,.cls-22{fill:#50b0ff;}.cls-11,.cls-12,.cls-13{fill:none;stroke:#253546;}.cls-11,.cls-13{stroke-linecap:round;}.cls-11,.cls-12{stroke-miterlimit:10;stroke-width:3px;}.cls-13{stroke-linejoin:round;stroke-width:2px;}.cls-14{font-size:12px;font-family:MyriadPro-Regular, Myriad Pro;}.cls-15{letter-spacing:-0.04em;}.cls-16{letter-spacing:-0.03em;}.cls-17{letter-spacing:-0.01em;}.cls-18{letter-spacing:0.02em;}.cls-19{letter-spacing:-0.03em;}.cls-20{letter-spacing:-0.01em;}.cls-21{letter-spacing:0.02em;}.cls-22,.cls-23,.cls-26,.cls-28,.cls-31{font-size:33px;font-family:Quicksand-Regular, Quicksand;}.cls-24{letter-spacing:-0.02em;}.cls-25{letter-spacing:-0.01em;}.cls-27{letter-spacing:-0.02em;}.cls-29{letter-spacing:-0.03em;}.cls-30{letter-spacing:-0.02em;}.cls-32{letter-spacing:0.01em;}.cls-33{letter-spacing:0.04em;}.cls-34{letter-spacing:-0.02em;}.cls-35{letter-spacing:-0.03em;}.cls-36{fill:#ffe9ee;}</style></defs><title>pigu-blu</title><circle class="cls-1" cx="1211.1" cy="402.5" r="26.9"/><circle class="cls-2" cx="1275.6" cy="404" r="26.9"/><circle class="cls-3" cx="1340.2" cy="404" r="26.9"/><circle class="cls-4" cx="1092.6" cy="402.9" r="26.9"/><circle class="cls-5" cx="1151.8" cy="402.9" r="26.9"/><circle class="cls-6" cx="1913" cy="560.9" r="26.9"/><circle class="cls-7" cx="1443.2" cy="404" r="26.9"/><path class="cls-8" d="M1496.5,495a11.1,11.1,0,0,1-2.6-4.2c-.3-.8-1.5-.4-1.2.3a12.5,12.5,0,0,0,2.9,4.8c.6.6,1.4-.3.9-.9Z" transform="translate(-50.1 -34)"/><path class="cls-8" d="M1502.1,494.3l-.9-.6h-.1l-.4-.4-.7-.7-.3-.4v-.2a2.5,2.5,0,0,0-4.3,2.5,13.6,13.6,0,0,0,4.4,4.2,2.5,2.5,0,1,0,2.5-4.3Z" transform="translate(-50.1 -34)"/><path class="cls-3" d="M1602.9,1116.5c5.1.4,9.7,4.6,8.1,10s-5.1,7.3-8.9,9.3c-7.2,3.9-16.9,6.7-25.1,6.5a19.6,19.6,0,0,1-8.5-1.8c-2.4-1.2-4.8-3.7-2.9-6.5s8.8-3.8,12.2-4c8.2-.6,17.1,1.3,23.8,6.3,10.5,7.9,1.8,16.7-6.7,21.3a43.4,43.4,0,0,1-12.4,4.6,16.9,16.9,0,0,1-8.1,0c-4.3-1.3-5.7-4.9-1.1-7.6s10.5-.8,14.6-.2a98.1,98.1,0,0,1,12.9,2.7c5.3,1.5,23.2,8.1,13.7,16-2.5,2.1,1.1,5.6,3.5,3.5,7.7-6.4,2.5-16.1-4.8-20.1-9.9-5.5-23.8-8.2-35.1-7.9-4.2.1-8.9,1.2-11.6,4.7s-1.7,8,1.5,10.9c8.1,7.2,22.1,1.8,30.2-2.8s17.3-13,12.3-22.7-16.9-13-26.3-13.8c-7.3-.6-22.7.2-24.5,9.7s13.7,13,20.8,12.4c11.1-.9,26.7-5,33.2-14.9s-.2-19.8-10.9-20.8c-3.2-.3-3.2,4.7,0,5Z" transform="translate(-50.1 -34)"/><ellipse class="cls-3" cx="1535.6" cy="1014.6" rx="66.4" ry="71.2"/><circle class="cls-3" cx="1489.3" cy="1064.2" r="14.9"/><circle class="cls-3" cx="1581.8" cy="1064.2" r="14.9"/><path class="cls-3" d="M1526,1019.2s-8.4-33.5,2.4-38.6,23.6,10,23.6,10" transform="translate(-50.1 -34)"/><path class="cls-3" d="M1645.5,1019.2s8.4-33.5-2.4-38.6-23.6,10-23.6,10" transform="translate(-50.1 -34)"/><path class="cls-7" d="M1585.2,1035.5s-28-1.3-34.3,13.1c0,0-8.7,23.6,17.2,20.7s35.5.3,35.5.3,23.3,4,17.3-19.2C1620.9,1050.3,1617.1,1035.5,1585.2,1035.5Z" transform="translate(-50.1 -34)"/><ellipse class="cls-7" cx="1551.3" cy="988.8" rx="3" ry="3.6"/><ellipse class="cls-7" cx="1517.1" cy="988.8" rx="3" ry="3.6"/><ellipse class="cls-9" cx="1574.9" cy="1049.7" rx="5.1" ry="3.4" transform="translate(-171.7 1854.7) rotate(-60)"/><ellipse class="cls-9" cx="1595" cy="1049.7" rx="3.4" ry="5.1" transform="translate(-283.7 466.1) rotate(-16.6)"/><path class="cls-4" d="M1797.7,1157.1a51,51,0,0,0-5.5-2.4c3.7-3.9,5.7-8.6,2.8-13.7l-1.1-1.6a21.1,21.1,0,0,0,4.3-4.3c6.2-8.6-.2-18-10.9-18.8-3.2-.3-3.2,4.3,0,4.5,5.1.4,9.7,4.2,8.2,9.1a12.3,12.3,0,0,1-4.9,6.1c-5.8-4.7-14.6-6.9-21.8-7.4s-22.7.2-24.5,8.8,13.7,11.8,20.8,11.2,17.2-2.5,24.6-6.5c2.6,3.8.8,7.7-2.7,10.9a83.8,83.8,0,0,0-24.3-3c-4.2.1-8.9,1.1-11.6,4.3s-1.7,7.3,1.5,9.9c8.1,6.6,22.1,1.6,30.2-2.6a42,42,0,0,0,5.2-3.2c6.9,2.2,19.3,7.5,11,13.8-2.5,1.9,1.1,5.1,3.5,3.2C1810.2,1169.5,1804.9,1160.8,1797.7,1157.1Zm-36.2-13a21.5,21.5,0,0,1-8.5-1.6c-2.4-1.1-4.8-3.4-2.9-5.9s8.8-3.4,12.2-3.6c8.1-.5,16.9,1.2,23.6,5.6C1778.8,1141.9,1769.4,1144.3,1761.5,1144.2Zm17.9,13.9a46.2,46.2,0,0,1-12.4,4.2,18.6,18.6,0,0,1-8.2,0c-4.3-1.2-5.7-4.4-1.1-6.9s10.5-.7,14.6-.2,6.3.9,9.4,1.6Z" transform="translate(-50.1 -34)"/><path class="cls-4" d="M1831.2,1103.1a14.9,14.9,0,0,1-25.6,10.4,62.7,62.7,0,0,1-71.1,0,14.9,14.9,0,1,1-20.4-21.8,75.7,75.7,0,0,1-4-69c-1.4-6-6.9-32.8,2.7-37.3s17.6,3.9,21.6,7.9a62.8,62.8,0,0,1,71.3,0c3.9-3.9,13.3-11.8,21.7-7.9s4,31.8,2.7,37.5a75.7,75.7,0,0,1-4.1,68.8A14.9,14.9,0,0,1,1831.2,1103.1Z" transform="translate(-50.1 -34)"/><path class="cls-5" d="M1996.2,1157.1a51,51,0,0,0-5.5-2.4c3.7-3.9,5.7-8.6,2.8-13.7l-1.1-1.6a21.1,21.1,0,0,0,4.3-4.3c6.2-8.6-.2-18-10.9-18.8-3.2-.3-3.2,4.3,0,4.5,5.1.4,9.7,4.2,8.2,9.1a12.3,12.3,0,0,1-4.9,6.1c-5.8-4.7-14.6-6.9-21.8-7.4s-22.7.2-24.5,8.8,13.7,11.8,20.8,11.2,17.2-2.5,24.6-6.5c2.6,3.8.8,7.7-2.7,10.9a83.8,83.8,0,0,0-24.3-3c-4.2.1-8.9,1.1-11.6,4.3s-1.7,7.3,1.5,9.9c8.1,6.6,22.1,1.6,30.2-2.6a42,42,0,0,0,5.2-3.2c6.9,2.2,19.3,7.5,11,13.8-2.5,1.9,1.1,5.1,3.5,3.2C2008.7,1169.5,2003.5,1160.8,1996.2,1157.1Zm-36.2-13a21.5,21.5,0,0,1-8.5-1.6c-2.4-1.1-4.8-3.4-2.9-5.9s8.8-3.4,12.2-3.6c8.1-.5,16.9,1.2,23.6,5.6C1977.3,1141.9,1967.9,1144.3,1960,1144.2Zm17.9,13.9a46.2,46.2,0,0,1-12.4,4.2,18.6,18.6,0,0,1-8.2,0c-4.3-1.2-5.7-4.4-1.1-6.9s10.5-.7,14.6-.2,6.3.9,9.4,1.6Z" transform="translate(-50.1 -34)"/><path class="cls-5" d="M2029.7,1103.1a14.9,14.9,0,0,1-25.6,10.4,62.7,62.7,0,0,1-71.1,0,14.9,14.9,0,1,1-20.4-21.8,75.7,75.7,0,0,1-4-69c-1.4-6-6.9-32.8,2.7-37.3s17.6,3.9,21.6,7.9a62.8,62.8,0,0,1,71.3,0c3.9-3.9,13.3-11.8,21.7-7.9s4,31.8,2.7,37.5a75.7,75.7,0,0,1-4.1,68.8A14.9,14.9,0,0,1,2029.7,1103.1Z" transform="translate(-50.1 -34)"/><ellipse class="cls-7" cx="1735.7" cy="993.5" rx="3" ry="3.6"/><ellipse class="cls-7" cx="1706.9" cy="993.5" rx="3" ry="3.6"/><path class="cls-7" d="M1769.6,1040.3s-28-1.3-34.3,13.1c0,0-8.7,23.6,17.2,20.7s35.5.3,35.5.3,23.3,4,17.3-19.2C1805.3,1055.1,1801.5,1040.3,1769.6,1040.3Z" transform="translate(-50.1 -34)"/><ellipse class="cls-4" cx="1759.2" cy="1054.5" rx="5.1" ry="3.4" transform="translate(-83.7 2016.8) rotate(-60)"/><ellipse class="cls-4" cx="1779.4" cy="1054.5" rx="3.4" ry="5.1" transform="translate(-277.4 519) rotate(-16.6)"/><path class="cls-7" d="M1968.1,1040.3s-28-1.3-34.3,13.1c0,0-8.7,23.6,17.2,20.7s35.5.3,35.5.3,23.3,4,17.3-19.2C2003.8,1055.1,2000,1040.3,1968.1,1040.3Z" transform="translate(-50.1 -34)"/><ellipse class="cls-5" cx="1957.8" cy="1054.5" rx="5.1" ry="3.4" transform="translate(15.6 2188.7) rotate(-60)"/><ellipse class="cls-5" cx="1977.9" cy="1054.5" rx="3.4" ry="5.1" transform="translate(-269.1 575.8) rotate(-16.6)"/><path class="cls-10" d="M1417.9,1153.1a51,51,0,0,0-5.5-2.4c3.7-3.9,5.7-8.6,2.8-13.7l-1.1-1.6a21.1,21.1,0,0,0,4.3-4.3c6.2-8.6-.2-18-10.9-18.8-3.2-.3-3.2,4.3,0,4.5,5.1.4,9.7,4.2,8.2,9.1a12.3,12.3,0,0,1-4.9,6.1c-5.8-4.7-14.6-6.9-21.8-7.4s-22.7.2-24.5,8.8,13.7,11.8,20.8,11.2,17.2-2.5,24.6-6.5c2.6,3.8.8,7.7-2.7,10.9a83.8,83.8,0,0,0-24.3-3c-4.2.1-8.9,1.1-11.6,4.3s-1.7,7.3,1.5,9.9c8.1,6.6,22.1,1.6,30.2-2.6a42,42,0,0,0,5.2-3.2c6.9,2.2,19.3,7.5,11,13.8-2.5,1.9,1.1,5.1,3.5,3.2C1430.4,1165.5,1425.1,1156.7,1417.9,1153.1Zm-36.2-13a21.5,21.5,0,0,1-8.5-1.6c-2.4-1.1-4.8-3.4-2.9-5.9s8.8-3.4,12.2-3.6c8.1-.5,16.9,1.2,23.6,5.6C1398.9,1137.9,1389.6,1140.2,1381.7,1140.1Zm17.9,13.9a46.2,46.2,0,0,1-12.4,4.2,18.6,18.6,0,0,1-8.2,0c-4.3-1.2-5.7-4.4-1.1-6.9s10.5-.7,14.6-.2,6.3.9,9.4,1.6Z" transform="translate(-50.1 -34)"/><path class="cls-10" d="M1451.4,1099a14.9,14.9,0,0,1-25.6,10.4,62.7,62.7,0,0,1-71.1,0,14.9,14.9,0,1,1-20.4-21.8,75.7,75.7,0,0,1-4-69c-1.4-6-6.9-32.8,2.7-37.3s17.6,3.9,21.6,7.9a62.8,62.8,0,0,1,71.3,0c3.9-3.9,13.3-11.8,21.7-7.9s4,31.8,2.7,37.5a75.7,75.7,0,0,1-4.1,68.8A14.9,14.9,0,0,1,1451.4,1099Z" transform="translate(-50.1 -34)"/><path class="cls-4" d="M1790.3,914.8H1802a0,0,0,0,1,0,0v3.3a2.1,2.1,0,0,1-2.1,2.1h-9.7a0,0,0,0,1,0,0v-5.4A0,0,0,0,1,1790.3,914.8Z"/><path class="cls-4" d="M1772.6,930.6h22.1a0,0,0,0,1,0,0v0a4.4,4.4,0,0,1-4.4,4.4h-17.8a0,0,0,0,1,0,0v-4.4A0,0,0,0,1,1772.6,930.6Z"/><path class="cls-7" d="M1833.7,986.1a1.5,1.5,0,0,1-1.3-.7l-12.1-20.3a1.5,1.5,0,0,1,1.3-2.3l20.2-.2-3.3-13a1.5,1.5,0,0,1,1.5-1.9h9.9l-.3-6.6a1.5,1.5,0,0,1,3-.1l.3,8.2a1.5,1.5,0,0,1-1.5,1.6h-9.5l3.3,13a1.5,1.5,0,0,1-1.4,1.9l-19.5.2,10.8,18a1.5,1.5,0,0,1-.5,2.1Z" transform="translate(-50.1 -34)"/><circle class="cls-4" cx="1725.1" cy="1253" r="26.9"/><path class="cls-7" d="M1772.5,1324.3a2.3,2.3,0,0,1-2-1.1l-18.7-31.3a2.3,2.3,0,0,1,2-3.5l31.2-.3-5.1-20.1a2.3,2.3,0,0,1,2.2-2.9h15.3l-.4-10.2a2.3,2.3,0,1,1,4.6-.2l.5,12.6a2.3,2.3,0,0,1-2.3,2.4H1785l5.1,20.1a2.3,2.3,0,0,1-2.2,2.9l-30.1.3,16.6,27.8a2.3,2.3,0,0,1-2,3.5Z" transform="translate(-50.1 -34)"/><circle class="cls-5" cx="1918.5" cy="1253" r="26.9"/><circle class="cls-1" cx="2089.7" cy="1253" r="26.9"/><line class="cls-11" x1="1729.3" y1="983.6" x2="1738.7" y2="979.1"/><line class="cls-11" x1="1712.5" y1="983.6" x2="1701.4" y2="977.1"/><path class="cls-7" d="M1954.2,1026.2c3.2,0,3.2-5,0-5s-3.2,5,0,5Z" transform="translate(-50.1 -34)"/><path class="cls-7" d="M1984.9,1025.1c3.2,0,3.2-5,0-5s-3.2,5,0,5Z" transform="translate(-50.1 -34)"/><path class="cls-7" d="M1950.8,1003.9a27.2,27.2,0,0,1-11.6,11.2c-1.4.7-.2,2.9,1.3,2.2a29.5,29.5,0,0,0,12.5-12.1c.8-1.4-1.4-2.7-2.2-1.3Z" transform="translate(-50.1 -34)"/><path class="cls-7" d="M1983.2,1004.9a28.9,28.9,0,0,0,18.2,11.7c1.6.3,2.2-2.1.7-2.4a26.5,26.5,0,0,1-16.7-10.5c-.9-1.3-3.1,0-2.2,1.3Z" transform="translate(-50.1 -34)"/><path class="cls-7" d="M1931.1,1079.2c3.8-2.3,7.1,6,10.1,7.3s9.3-3,11.5,2.6c.6,1.5,3,.8,2.4-.7a7.2,7.2,0,0,0-4.2-4.6c-3.5-1.3-7,1.9-10.4-1s-5.1-9.2-10.7-5.9a1.3,1.3,0,0,0,1.3,2.2Z" transform="translate(-50.1 -34)"/><path class="cls-7" d="M1452.1,973.4l1.5-5.3a1.3,1.3,0,0,0-2.4-.7l-1.5,5.3a1.3,1.3,0,0,0,2.4.7Z" transform="translate(-50.1 -34)"/><path class="cls-7" d="M1457,980.1l14.6-8.6a1.3,1.3,0,0,0-1.3-2.2l-14.6,8.6a1.3,1.3,0,0,0,1.3,2.2Z" transform="translate(-50.1 -34)"/><path class="cls-7" d="M1458.7,988.3l6,1.3c1.6.3,2.2-2.1.7-2.4l-6-1.3c-1.6-.3-2.2,2.1-.7,2.4Z" transform="translate(-50.1 -34)"/><circle class="cls-12" cx="1517.1" cy="989.6" r="15.9"/><circle class="cls-12" cx="1551.3" cy="989.6" r="15.9"/><path class="cls-7" d="M1389.8,1032.2s-28-1.3-34.3,13.1c0,0-8.7,23.6,17.2,20.7s35.5.3,35.5.3,23.3,4,17.3-19.2C1425.5,1046.9,1421.6,1032.1,1389.8,1032.2Z" transform="translate(-50.1 -34)"/><ellipse class="cls-10" cx="1379.4" cy="1046.4" rx="5.1" ry="3.4" transform="translate(-266.5 1683.7) rotate(-60)"/><ellipse class="cls-10" cx="1399.5" cy="1046.4" rx="3.4" ry="5.1" transform="translate(-290.9 410) rotate(-16.6)"/><path class="cls-7" d="M1374.2,1019.8c3.2,0,3.2-5,0-5s-3.2,5,0,5Z" transform="translate(-50.1 -34)"/><path class="cls-7" d="M1403.9,1019.1c3.2,0,3.2-5,0-5s-3.2,5,0,5Z" transform="translate(-50.1 -34)"/><path class="cls-7" d="M1379.9,1070.3c-5.9,6.5-15.1,6.9-21.4.8-1-1-2.8.3-2,1.5,3.1,4.8,2.8,12.5,8,15.9a6.7,6.7,0,0,0,9.5-1.7c.9-1.3-1.3-2.6-2.2-1.3-2.4,3.6-6.4,1.1-8-1.4a19.3,19.3,0,0,1-2-5.1,27.8,27.8,0,0,0-3.2-7.7l-2,1.5a17,17,0,0,0,24.9-.8c1.1-1.2-.7-3-1.8-1.8Z" transform="translate(-50.1 -34)"/><path class="cls-7" d="M1352.6,1072.6l2.7-3.7a1.3,1.3,0,0,0-.4-1.7,1.3,1.3,0,0,0-1.7.4l-2.7,3.7a1.3,1.3,0,0,0,.4,1.7,1.3,1.3,0,0,0,1.7-.4Z" transform="translate(-50.1 -34)"/><polygon class="cls-5" points="1993 921.6 1984 940.1 1995.7 945.8 1993 921.6"/><path class="cls-7" d="M2047,983.2l-.7-.2-27-13.2a1.5,1.5,0,0,1-.1-2.6l23.9-14.6a1.5,1.5,0,0,1,2.3,1.1l3.1,27.9a1.5,1.5,0,0,1-.6,1.4Zm-23.9-14.9,22.1,10.8-2.5-22.8Z" transform="translate(-50.1 -34)"/><path class="cls-7" d="M2037.6,968.3l-.7-.2a1.5,1.5,0,0,1-.7-2l2.7-5.5a1.5,1.5,0,0,1,2.7,1.3l-2.7,5.5A1.5,1.5,0,0,1,2037.6,968.3Z" transform="translate(-50.1 -34)"/><path class="cls-7" d="M2035.7,973.4c3.2,0,3.2-5,0-5s-3.2,5,0,5Z" transform="translate(-50.1 -34)"/><polygon class="cls-5" points="1930.2 1230 1913 1265.1 1935.3 1276 1930.2 1230"/><path class="cls-7" d="M1987.8,1316.5a2.8,2.8,0,0,1-1.3-.3l-51.4-25.2a2.9,2.9,0,0,1-.2-5l45.6-27.8a2.9,2.9,0,0,1,4.3,2.1l5.9,53.1a2.9,2.9,0,0,1-2.8,3.2Zm-45.5-28.4,42.1,20.6-4.8-43.4Z" transform="translate(-50.1 -34)"/><path class="cls-7" d="M1969.8,1288.1a2.9,2.9,0,0,1-2.6-4.1l5.1-10.4a2.9,2.9,0,0,1,5.1,2.5l-5.1,10.4A2.9,2.9,0,0,1,1969.8,1288.1Z" transform="translate(-50.1 -34)"/><path class="cls-7" d="M1966.1,1295.5c3.2,0,3.2-5,0-5s-3.2,5,0,5Z" transform="translate(-50.1 -34)"/><polygon class="cls-9" points="1635.3 903.8 1597.3 936 1606.2 936 1639.3 908.6 1635.3 903.8"/><path class="cls-7" d="M1690.6,941.7l-8-9.7a1.5,1.5,0,0,0-2.1-.2l-5.5,4.5-27.7,22.8a1.5,1.5,0,0,0-.5,1l-.9,9.7a1.5,1.5,0,0,0,.4,1.2,1.5,1.5,0,0,0,1,.5h9a1.5,1.5,0,0,0,.9-.3l27.7-22.8,5.5-4.5a1.5,1.5,0,0,0,.2-2.1Zm-34.8,26.8H1649l.7-7.5,26-21.4,6.1,7.4Zm28.4-23.4-6.1-7.3,3.2-2.6,6.1,7.3Z" transform="translate(-50.1 -34)"/><path class="cls-7" d="M1658.2,975.8H1634a1.5,1.5,0,0,1,0-3h24.2a1.5,1.5,0,1,1,0,3Z" transform="translate(-50.1 -34)"/><circle class="cls-3" cx="1544.9" cy="1253" r="26.9"/><path class="cls-7" d="M1631.4,1268.2l-10.6-12.9a2,2,0,0,0-2.8-.3l-7.3,6.1-37,30.4a2,2,0,0,0-.7,1.4l-1.3,13a2.1,2.1,0,0,0,.5,1.5,2,2,0,0,0,1.3.7h12a2.1,2.1,0,0,0,1.2-.5l37-30.5,7.3-6a2,2,0,0,0,.3-2.8Zm-46.6,35.8h-9l1-10,34.8-28.6,8.1,9.8Zm37.9-31.3-8.1-9.8,4.2-3.5,8.1,9.8Z" transform="translate(-50.1 -34)"/><path class="cls-7" d="M1588.2,1313.8h-32.3a2,2,0,0,1,0-4h32.3a2,2,0,0,1,0,4Z" transform="translate(-50.1 -34)"/><path class="cls-7" d="M1549.3,1075.2a33.2,33.2,0,0,0,6.3,6.7,1.9,1.9,0,0,0,2.7,0,1.9,1.9,0,0,0,0-2.7,29.8,29.8,0,0,1-5.7-6c-1.4-1.9-4.6-.1-3.2,1.9Z" transform="translate(-50.1 -34)"/><polyline class="cls-13" points="1681.2 1045.9 1686.4 1045.3 1687.2 1050 1691.9 1049.2 1692.3 1053.8 1695.6 1054.2"/><path class="cls-7" d="M2108.4,1294.8a46.3,46.3,0,0,1,7.4,15.3c.8,2.9,5.2,3.7,6.6.9a86.5,86.5,0,0,1,42.1-40.3c4.3-1.9.6-8.2-3.7-6.3a92.7,92.7,0,0,0-44.7,42.9l6.6.9a51.7,51.7,0,0,0-8.1-17.1c-2.7-3.8-9-.1-6.3,3.7Z" transform="translate(-50.1 -34)"/><circle class="cls-10" cx="1334.4" cy="1253" r="26.9"/><path class="cls-7" d="M1407.1,1292.4a51,51,0,0,0-5.5-2.4c3.7-3.9,5.7-8.6,2.8-13.7l-1.1-1.6a21.1,21.1,0,0,0,4.3-4.3c6.2-8.6-.2-18-10.9-18.8-3.2-.3-3.2,4.3,0,4.5,5.1.4,9.7,4.2,8.2,9.1a12.3,12.3,0,0,1-4.9,6.1c-5.8-4.7-14.6-6.9-21.8-7.4s-22.7.2-24.5,8.8,13.7,11.8,20.8,11.2,17.2-2.5,24.6-6.5c2.6,3.8.8,7.7-2.7,10.9a83.8,83.8,0,0,0-24.3-3c-4.2.1-8.9,1.1-11.6,4.3s-1.7,7.3,1.5,9.9c8.1,6.6,22.1,1.6,30.2-2.6a42,42,0,0,0,5.2-3.2c6.9,2.2,19.3,7.5,11,13.8-2.5,1.9,1.1,5.1,3.5,3.2C1419.6,1304.8,1414.3,1296.1,1407.1,1292.4Zm-36.2-13a21.5,21.5,0,0,1-8.5-1.6c-2.4-1.1-4.8-3.4-2.9-5.9s8.8-3.4,12.2-3.6c8.1-.5,16.9,1.2,23.6,5.6C1388.1,1277.2,1378.7,1279.6,1370.8,1279.4Zm17.9,13.9a46.2,46.2,0,0,1-12.4,4.2,18.6,18.6,0,0,1-8.2,0c-4.3-1.2-5.7-4.4-1.1-6.9s10.5-.7,14.6-.2,6.3.9,9.4,1.6Z" transform="translate(-50.1 -34)"/><circle class="cls-10" cx="1540.6" cy="1459.2" r="26.9"/><path class="cls-7" d="M1613.2,1498.5a51,51,0,0,0-5.5-2.4c3.7-3.9,5.7-8.6,2.8-13.7l-1.1-1.6a21.1,21.1,0,0,0,4.3-4.3c6.2-8.6-.2-18-10.9-18.8-3.2-.3-3.2,4.3,0,4.5,5.1.4,9.7,4.2,8.2,9.1a12.3,12.3,0,0,1-4.9,6.1c-5.8-4.7-14.6-6.9-21.8-7.4s-22.7.2-24.5,8.8,13.7,11.8,20.8,11.2,17.2-2.5,24.6-6.5c2.6,3.8.8,7.7-2.7,10.9a83.8,83.8,0,0,0-24.3-3c-4.2.1-8.9,1.1-11.6,4.3s-1.7,7.3,1.5,9.9c8.1,6.6,22.1,1.6,30.2-2.6a42,42,0,0,0,5.2-3.2c6.9,2.2,19.3,7.5,11,13.8-2.5,1.9,1.1,5.1,3.5,3.2C1625.7,1510.9,1620.4,1502.2,1613.2,1498.5Zm-36.2-13a21.5,21.5,0,0,1-8.5-1.6c-2.4-1.1-4.8-3.4-2.9-5.9s8.8-3.4,12.2-3.6c8.1-.5,16.9,1.2,23.6,5.6C1594.3,1483.3,1584.9,1485.7,1577,1485.5Zm17.9,13.9a46.2,46.2,0,0,1-12.4,4.2,18.6,18.6,0,0,1-8.2,0c-4.3-1.2-5.7-4.4-1.1-6.9s10.5-.7,14.6-.2,6.3.9,9.4,1.6Z" transform="translate(-50.1 -34)"/><text class="cls-14" transform="translate(1039.1 1400.1)">MIS<tspan class="cls-15" x="18.4" y="0"> </tspan><tspan x="20.5" y="0">TIPOS DE GAS</tspan><tspan class="cls-16" x="89.9" y="0">T</tspan><tspan x="95.5" y="0">OS</tspan><tspan x="0" y="28.8">RECURRENTE (¡El que pagas </tspan><tspan class="cls-17" x="140" y="28.8">t</tspan><tspan x="143.9" y="28.8">odos los meses!) </tspan><tspan x="0" y="43.2">ENTR</tspan><tspan class="cls-18" x="26.2" y="43.2">E</tspan><tspan x="32.3" y="43.2">TENIMIEN</tspan><tspan class="cls-19" x="81.3" y="43.2">T</tspan><tspan x="86.9" y="43.2" xml:space="preserve">O ( Las idas al cine y  </tspan><tspan class="cls-20" x="190.4" y="43.2">c</tspan><tspan x="195.7" y="43.2">oncie</tspan><tspan class="cls-21" x="223.1" y="43.2">r</tspan><tspan class="cls-20" x="227.3" y="43.2">t</tspan><tspan x="231.2" y="43.2">os)</tspan></text><text class="cls-22" transform="translate(1282.5 1205.6)">diario</text><text class="cls-23" transform="translate(1482.2 1205.6)"><tspan class="cls-24">p</tspan><tspan x="21.1" y="0">l</tspan><tspan class="cls-25" x="29.3" y="0">a</tspan><tspan x="49.4" y="0">nea</tspan></text><text class="cls-26" transform="translate(1670.4 1205.6)"><tspan class="cls-25">P</tspan><tspan x="18.9" y="0">elig</tspan><tspan class="cls-27" x="78.3" y="0">r</tspan><tspan x="91.9" y="0">o</tspan></text><text class="cls-28" transform="translate(2033 1205.6)">en <tspan class="cls-24" x="50.2" y="0">o</tspan><tspan class="cls-29" x="70.2" y="0">r</tspan><tspan class="cls-30" x="83.9" y="0">d</tspan><tspan x="105.1" y="0">en</tspan></text><text class="cls-31" transform="translate(1879.2 1205.6)"><tspan class="cls-32">a</tspan><tspan class="cls-33" x="20.9" y="0">l</tspan><tspan class="cls-34" x="30.6" y="0">e</tspan><tspan x="50" y="0">r</tspan><tspan class="cls-35" x="64.5" y="0">t</tspan><tspan x="76.7" y="0">a</tspan></text><path class="cls-10" d="M745.9,1153.1a51,51,0,0,0-5.5-2.4c3.7-3.9,5.7-8.6,2.8-13.7l-1.1-1.6a21.1,21.1,0,0,0,4.3-4.3c6.2-8.6-.2-18-10.9-18.8-3.2-.3-3.2,4.3,0,4.5,5.1.4,9.7,4.2,8.2,9.1a12.3,12.3,0,0,1-4.9,6.1c-5.8-4.7-14.6-6.9-21.8-7.4s-22.7.2-24.5,8.8,13.7,11.8,20.8,11.2,17.2-2.5,24.6-6.5c2.6,3.8.8,7.7-2.7,10.9a83.8,83.8,0,0,0-24.3-3c-4.2.1-8.9,1.1-11.6,4.3s-1.7,7.3,1.5,9.9c8.1,6.6,22.1,1.6,30.2-2.6a42,42,0,0,0,5.2-3.2c6.9,2.2,19.3,7.5,11,13.8-2.5,1.9,1.1,5.1,3.5,3.2C758.4,1165.5,753.1,1156.7,745.9,1153.1Zm-36.2-13a21.5,21.5,0,0,1-8.5-1.6c-2.4-1.1-4.8-3.4-2.9-5.9s8.8-3.4,12.2-3.6c8.1-.5,16.9,1.2,23.6,5.6C726.9,1137.9,717.6,1140.2,709.7,1140.1Zm17.9,13.9a46.2,46.2,0,0,1-12.4,4.2,18.6,18.6,0,0,1-8.2,0c-4.3-1.2-5.7-4.4-1.1-6.9s10.5-.7,14.6-.2,6.3.9,9.4,1.6Z" transform="translate(-50.1 -34)"/><path class="cls-10" d="M779.4,1099a14.9,14.9,0,0,1-25.6,10.4,62.7,62.7,0,0,1-71.1,0,14.9,14.9,0,1,1-20.4-21.8,75.7,75.7,0,0,1-4-69c-1.4-6-6.9-32.8,2.7-37.3s17.6,3.9,21.6,7.9a62.8,62.8,0,0,1,71.3,0c3.9-3.9,13.3-11.8,21.7-7.9s4,31.8,2.7,37.5a75.7,75.7,0,0,1-4.1,68.8A14.9,14.9,0,0,1,779.4,1099Z" transform="translate(-50.1 -34)"/><path class="cls-7" d="M780.1,973.4l1.5-5.3a1.3,1.3,0,0,0-2.4-.7l-1.5,5.3a1.3,1.3,0,0,0,2.4.7Z" transform="translate(-50.1 -34)"/><path class="cls-7" d="M785,980.1l14.6-8.6a1.3,1.3,0,0,0-1.3-2.2l-14.6,8.6a1.3,1.3,0,0,0,1.3,2.2Z" transform="translate(-50.1 -34)"/><path class="cls-7" d="M786.7,988.3l6,1.3c1.6.3,2.2-2.1.7-2.4l-6-1.3c-1.6-.3-2.2,2.1-.7,2.4Z" transform="translate(-50.1 -34)"/><path class="cls-7" d="M717.8,1032.2s-28-1.3-34.3,13.1c0,0-8.7,23.6,17.2,20.7s35.5.3,35.5.3,23.3,4,17.3-19.2C753.5,1046.9,749.6,1032.1,717.8,1032.2Z" transform="translate(-50.1 -34)"/><ellipse class="cls-10" cx="707.4" cy="1046.4" rx="5.1" ry="3.4" transform="translate(-602.5 1101.8) rotate(-60)"/><ellipse class="cls-10" cx="727.5" cy="1046.4" rx="3.4" ry="5.1" transform="translate(-319 217.8) rotate(-16.6)"/><path class="cls-7" d="M702.2,1019.8c3.2,0,3.2-5,0-5s-3.2,5,0,5Z" transform="translate(-50.1 -34)"/><path class="cls-7" d="M731.9,1019.1c3.2,0,3.2-5,0-5s-3.2,5,0,5Z" transform="translate(-50.1 -34)"/><path class="cls-7" d="M707.9,1070.3c-5.9,6.5-15.1,6.9-21.4.8-1-1-2.8.3-2,1.5,3.1,4.8,2.8,12.5,8,15.9a6.7,6.7,0,0,0,9.5-1.7c.9-1.3-1.3-2.6-2.2-1.3-2.4,3.6-6.4,1.1-8-1.4a19.3,19.3,0,0,1-2-5.1,27.8,27.8,0,0,0-3.2-7.7l-2,1.5a17,17,0,0,0,24.9-.8c1.1-1.2-.7-3-1.8-1.8Z" transform="translate(-50.1 -34)"/><path class="cls-7" d="M680.6,1072.6l2.7-3.7a1.3,1.3,0,0,0-.4-1.7,1.3,1.3,0,0,0-1.7.4l-2.7,3.7a1.3,1.3,0,0,0,.4,1.7,1.3,1.3,0,0,0,1.7-.4Z" transform="translate(-50.1 -34)"/><path class="cls-36" d="M341.9,1153.1a51,51,0,0,0-5.5-2.4c3.7-3.9,5.7-8.6,2.8-13.7l-1.1-1.6a21.1,21.1,0,0,0,4.3-4.3c6.2-8.6-.2-18-10.9-18.8-3.2-.3-3.2,4.3,0,4.5,5.1.4,9.7,4.2,8.2,9.1a12.3,12.3,0,0,1-4.9,6.1c-5.8-4.7-14.6-6.9-21.8-7.4s-22.7.2-24.5,8.8,13.7,11.8,20.8,11.2,17.2-2.5,24.6-6.5c2.6,3.8.8,7.7-2.7,10.9a83.8,83.8,0,0,0-24.3-3c-4.2.1-8.9,1.1-11.6,4.3s-1.7,7.3,1.5,9.9c8.1,6.6,22.1,1.6,30.2-2.6a42,42,0,0,0,5.2-3.2c6.9,2.2,19.3,7.5,11,13.8-2.5,1.9,1.1,5.1,3.5,3.2C354.4,1165.5,349.1,1156.7,341.9,1153.1Zm-36.2-13a21.5,21.5,0,0,1-8.5-1.6c-2.4-1.1-4.8-3.4-2.9-5.9s8.8-3.4,12.2-3.6c8.1-.5,16.9,1.2,23.6,5.6C322.9,1137.9,313.6,1140.2,305.7,1140.1Zm17.9,13.9a46.2,46.2,0,0,1-12.4,4.2,18.6,18.6,0,0,1-8.2,0c-4.3-1.2-5.7-4.4-1.1-6.9s10.5-.7,14.6-.2,6.3.9,9.4,1.6Z" transform="translate(-50.1 -34)"/><path class="cls-36" d="M375.4,1099a14.9,14.9,0,0,1-25.6,10.4,62.7,62.7,0,0,1-71.1,0,14.9,14.9,0,1,1-20.4-21.8,75.7,75.7,0,0,1-4-69c-1.4-6-6.9-32.8,2.7-37.3s17.6,3.9,21.6,7.9a62.8,62.8,0,0,1,71.3,0c3.9-3.9,13.3-11.8,21.7-7.9s4,31.8,2.7,37.5a75.7,75.7,0,0,1-4.1,68.8A14.9,14.9,0,0,1,375.4,1099Z" transform="translate(-50.1 -34)"/><path class="cls-7" d="M376.1,973.4l1.5-5.3a1.3,1.3,0,0,0-2.4-.7l-1.5,5.3a1.3,1.3,0,0,0,2.4.7Z" transform="translate(-50.1 -34)"/><path class="cls-7" d="M381,980.1l14.6-8.6a1.3,1.3,0,0,0-1.3-2.2l-14.6,8.6a1.3,1.3,0,0,0,1.3,2.2Z" transform="translate(-50.1 -34)"/><path class="cls-7" d="M382.7,988.3l6,1.3c1.6.3,2.2-2.1.7-2.4l-6-1.3c-1.6-.3-2.2,2.1-.7,2.4Z" transform="translate(-50.1 -34)"/><path class="cls-10" d="M313.8,1032.2s-28-1.3-34.3,13.1c0,0-8.7,23.6,17.2,20.7s35.5.3,35.5.3,23.3,4,17.3-19.2C349.5,1046.9,345.6,1032.1,313.8,1032.2Z" transform="translate(-50.1 -34)"/><ellipse class="cls-7" cx="303.4" cy="1046.4" rx="5.1" ry="3.4" transform="translate(-804.5 751.9) rotate(-60)"/><ellipse class="cls-7" cx="323.5" cy="1046.4" rx="3.4" ry="5.1" transform="translate(-335.9 102.2) rotate(-16.6)"/><path class="cls-7" d="M298.2,1019.8c3.2,0,3.2-5,0-5s-3.2,5,0,5Z" transform="translate(-50.1 -34)"/><path class="cls-7" d="M327.9,1019.1c3.2,0,3.2-5,0-5s-3.2,5,0,5Z" transform="translate(-50.1 -34)"/><path class="cls-7" d="M303.9,1070.3c-5.9,6.5-15.1,6.9-21.4.8-1-1-2.8.3-2,1.5,3.1,4.8,2.8,12.5,8,15.9a6.7,6.7,0,0,0,9.5-1.7c.9-1.3-1.3-2.6-2.2-1.3-2.4,3.6-6.4,1.1-8-1.4a19.3,19.3,0,0,1-2-5.1,27.8,27.8,0,0,0-3.2-7.7l-2,1.5a17,17,0,0,0,24.9-.8c1.1-1.2-.7-3-1.8-1.8Z" transform="translate(-50.1 -34)"/><path class="cls-7" d="M276.6,1072.6l2.7-3.7a1.3,1.3,0,0,0-.4-1.7,1.3,1.3,0,0,0-1.7.4l-2.7,3.7a1.3,1.3,0,0,0,.4,1.7,1.3,1.3,0,0,0,1.7-.4Z" transform="translate(-50.1 -34)"/><circle class="cls-10" cx="662.4" cy="1223.6" r="26.9"/><path class="cls-7" d="M735.1,1263a51,51,0,0,0-5.5-2.4c3.7-3.9,5.7-8.6,2.8-13.7l-1.1-1.6a21.1,21.1,0,0,0,4.3-4.3c6.2-8.6-.2-18-10.9-18.8-3.2-.3-3.2,4.3,0,4.5,5.1.4,9.7,4.2,8.2,9.1a12.3,12.3,0,0,1-4.9,6.1c-5.8-4.7-14.6-6.9-21.8-7.4s-22.7.2-24.5,8.8,13.7,11.8,20.8,11.2,17.2-2.5,24.6-6.5c2.6,3.8.8,7.7-2.7,10.9a83.8,83.8,0,0,0-24.3-3c-4.2.1-8.9,1.1-11.6,4.3s-1.7,7.3,1.5,9.9c8.1,6.6,22.1,1.6,30.2-2.6a42,42,0,0,0,5.2-3.2c6.9,2.2,19.3,7.5,11,13.8-2.5,1.9,1.1,5.1,3.5,3.2C747.6,1275.4,742.3,1266.7,735.1,1263Zm-36.2-13a21.5,21.5,0,0,1-8.5-1.6c-2.4-1.1-4.8-3.4-2.9-5.9s8.8-3.4,12.2-3.6c8.1-.5,16.9,1.2,23.6,5.6C716.1,1247.8,706.7,1250.2,698.8,1250Zm17.9,13.9a46.2,46.2,0,0,1-12.4,4.2,18.6,18.6,0,0,1-8.2,0c-4.3-1.2-5.7-4.4-1.1-6.9s10.5-.7,14.6-.2,6.3.9,9.4,1.6Z" transform="translate(-50.1 -34)"/><path class="cls-10" d="M683.4,1216.1v-12.6h0v-6.5a1.8,1.8,0,0,1,1.7-1.7,1.8,1.8,0,0,1,1.8,1.4,8.4,8.4,0,0,1,4.5-1.4,8.2,8.2,0,0,1,8,8.3,8.1,8.1,0,0,1-8,8.2,7.6,7.6,0,0,1-4.4-1.4v5.8a1.9,1.9,0,0,1-1.9,1.8A1.8,1.8,0,0,1,683.4,1216.1Zm3.6-12.6a4.4,4.4,0,0,0,1.3,3.3,4.1,4.1,0,0,0,3.1,1.4,4.2,4.2,0,0,0,3.1-1.4,4.8,4.8,0,0,0,1.3-3.3,5.1,5.1,0,0,0-1.3-3.3,4.3,4.3,0,0,0-3.1-1.4,4.2,4.2,0,0,0-3.1,1.4A4.6,4.6,0,0,0,687.1,1203.4Z" transform="translate(-50.1 -34)"/><path class="cls-10" d="M707.8,1191a1.8,1.8,0,0,1-1.8,1.8,1.8,1.8,0,0,1-1.8-1.8v-.7a1.8,1.8,0,0,1,1.8-1.8,1.8,1.8,0,0,1,1.8,1.8Zm0,6v12.9a1.8,1.8,0,0,1-1.8,1.8,1.8,1.8,0,0,1-1.8-1.8V1197a1.8,1.8,0,0,1,1.8-1.8A1.7,1.7,0,0,1,707.8,1197Z" transform="translate(-50.1 -34)"/><path class="cls-10" d="M728.2,1203.5v6.1a7.9,7.9,0,0,1-7.9,7.9,7.7,7.7,0,0,1-3.5-.8,1.7,1.7,0,0,1-.8-2.4,1.8,1.8,0,0,1,2.4-.8,4,4,0,0,0,1.9.5,4.4,4.4,0,0,0,4.3-3.5,7.6,7.6,0,0,1-9.9-1.2,8.3,8.3,0,0,1-2.3-5.8,8.7,8.7,0,0,1,2.3-5.9,7.8,7.8,0,0,1,5.6-2.4,7.5,7.5,0,0,1,4.4,1.4,1.8,1.8,0,0,1,1.7-1.4,1.7,1.7,0,0,1,1.7,1.7v6.6Zm-3.5,0a5.1,5.1,0,0,0-1.3-3.4,4.1,4.1,0,0,0-3.1-1.4,4,4,0,0,0-3,1.4,4.9,4.9,0,0,0-1.3,3.4,4.8,4.8,0,0,0,1.3,3.4,4,4,0,0,0,3,1.4,4.2,4.2,0,0,0,3.1-1.4A5,5,0,0,0,724.7,1203.5Z" transform="translate(-50.1 -34)"/><path class="cls-10" d="M741.8,1211.6a6.9,6.9,0,0,1-6.9-6.9v-7.9a1.8,1.8,0,0,1,1.7-1.7,1.8,1.8,0,0,1,1.8,1.7v7.9a3.3,3.3,0,0,0,3.4,3.4,3.4,3.4,0,0,0,3.5-3.4v-7.9a1.7,1.7,0,0,1,1.7-1.7,1.8,1.8,0,0,1,1.8,1.7v7.9A7,7,0,0,1,741.8,1211.6Z" transform="translate(-50.1 -34)"/><rect class="cls-10" x="79.8" y="1228.5" width="347" height="471.24"/><circle class="cls-10" cx="31.1" cy="40.1" r="26.9"/><path class="cls-7" d="M103.8,79.5a51,51,0,0,0-5.5-2.4c3.7-3.9,5.7-8.6,2.8-13.7L100,61.7a21.1,21.1,0,0,0,4.3-4.3c6.2-8.6-.2-18-10.9-18.8-3.2-.3-3.2,4.3,0,4.5,5.1.4,9.7,4.2,8.2,9.1a12.3,12.3,0,0,1-4.9,6.1c-5.8-4.7-14.6-6.9-21.8-7.4s-22.7.2-24.5,8.8S63.9,71.5,71.1,70.9s17.2-2.5,24.6-6.5c2.6,3.8.8,7.7-2.7,10.9a83.8,83.8,0,0,0-24.3-3c-4.2.1-8.9,1.1-11.6,4.3s-1.7,7.3,1.5,9.9c8.1,6.6,22.1,1.6,30.2-2.6A42,42,0,0,0,94,80.8c6.9,2.2,19.2,7.5,11,13.8-2.5,1.9,1.1,5.1,3.5,3.2C116.3,91.9,111,83.2,103.8,79.5Zm-36.2-13a21.5,21.5,0,0,1-8.5-1.6c-2.4-1.1-4.8-3.4-2.9-5.9s8.8-3.4,12.2-3.6c8.1-.5,16.9,1.2,23.6,5.6C84.8,64.3,75.5,66.7,67.6,66.5ZM85.5,80.4a46.2,46.2,0,0,1-12.4,4.2,18.6,18.6,0,0,1-8.2,0c-4.3-1.2-5.7-4.4-1.1-6.9s10.5-.7,14.6-.2,6.3.9,9.4,1.6Z" transform="translate(-50.1 -34)"/><path class="cls-1" d="M2171.5,1157.1a51,51,0,0,0-5.5-2.4c3.7-3.9,5.7-8.6,2.8-13.7l-1.1-1.6a21.1,21.1,0,0,0,4.3-4.3c6.2-8.6-.2-18-10.9-18.8-3.2-.3-3.2,4.3,0,4.5,5.1.4,9.7,4.2,8.2,9.1a12.3,12.3,0,0,1-4.9,6.1c-5.8-4.7-14.6-6.9-21.8-7.4s-22.7.2-24.5,8.8,13.7,11.8,20.8,11.2,17.2-2.5,24.6-6.5c2.6,3.8.8,7.7-2.7,10.9a83.8,83.8,0,0,0-24.3-3c-4.2.1-8.9,1.1-11.6,4.3s-1.7,7.3,1.5,9.9c8.1,6.6,22.1,1.6,30.2-2.6a42,42,0,0,0,5.2-3.2c6.9,2.2,19.3,7.5,11,13.8-2.5,1.9,1.1,5.1,3.5,3.2C2184,1169.5,2178.8,1160.8,2171.5,1157.1Zm-36.2-13a21.5,21.5,0,0,1-8.5-1.6c-2.4-1.1-4.8-3.4-2.9-5.9s8.8-3.4,12.2-3.6c8.1-.5,16.9,1.2,23.6,5.6C2152.6,1141.9,2143.2,1144.3,2135.3,1144.2Zm17.9,13.9a46.2,46.2,0,0,1-12.4,4.2,18.6,18.6,0,0,1-8.2,0c-4.3-1.2-5.7-4.4-1.1-6.9s10.5-.7,14.6-.2,6.3.9,9.4,1.6Z" transform="translate(-50.1 -34)"/><path class="cls-1" d="M2205.1,1103.1a14.9,14.9,0,0,1-25.6,10.4,62.7,62.7,0,0,1-71.1,0,14.9,14.9,0,1,1-20.4-21.8,75.7,75.7,0,0,1-4-69c-1.4-6-6.9-32.8,2.7-37.3s17.6,3.9,21.6,7.9a62.8,62.8,0,0,1,71.3,0c3.9-3.9,13.3-11.8,21.7-7.9s4,31.8,2.7,37.5a75.7,75.7,0,0,1-4.1,68.8A14.9,14.9,0,0,1,2205.1,1103.1Z" transform="translate(-50.1 -34)"/><path class="cls-7" d="M2143.4,1040.3s-28-1.3-34.3,13.1c0,0-8.7,23.6,17.2,20.7s35.5.3,35.5.3,23.3,4,17.3-19.2C2179.1,1055.1,2175.3,1040.3,2143.4,1040.3Z" transform="translate(-50.1 -34)"/><ellipse class="cls-1" cx="2133.1" cy="1054.5" rx="5.1" ry="3.4" transform="translate(103.2 2340.5) rotate(-60)"/><ellipse class="cls-1" cx="2153.2" cy="1054.5" rx="3.4" ry="5.1" transform="translate(-261.7 625.9) rotate(-16.6)"/><path class="cls-7" d="M2169.1,1025.7a10.7,10.7,0,0,0-13.7-7.1c-1.5.5-.9,2.9.7,2.4a8.2,8.2,0,0,1,10.6,5.4,1.3,1.3,0,0,0,2.4-.7Z" transform="translate(-50.1 -34)"/><path class="cls-7" d="M2109.7,1081.3a24.2,24.2,0,0,0,10.2,7.6c1.5.6,2.1-1.8.7-2.4a21.8,21.8,0,0,1-9.1-7c-1-1.3-2.7.5-1.8,1.8Z" transform="translate(-50.1 -34)"/><path class="cls-7" d="M2110.6,1080.4a9.9,9.9,0,0,0,4.7.2c.8-.2.5-1.4-.3-1.2a8.5,8.5,0,0,1-4-.2.6.6,0,0,0-.3,1.2Z" transform="translate(-50.1 -34)"/><path class="cls-1" d="M2203.1,967.4a23.9,23.9,0,0,1,3.8,7.9,1.9,1.9,0,0,0,3.4.4,44.6,44.6,0,0,1,21.7-20.8c2.2-1,.3-4.2-1.9-3.2a47.8,47.8,0,0,0-23.1,22.1l3.4.4a26.7,26.7,0,0,0-4.2-8.8c-1.4-1.9-4.7-.1-3.2,1.9Z" transform="translate(-50.1 -34)"/><path class="cls-7" d="M2200.4,967.5a23.9,23.9,0,0,1,3.8,7.9,1.9,1.9,0,0,0,3.4.4,44.6,44.6,0,0,1,21.7-20.8c2.2-1,.3-4.2-1.9-3.2a47.8,47.8,0,0,0-23.1,22.1l3.4.4a26.7,26.7,0,0,0-4.2-8.8c-1.4-1.9-4.7-.1-3.2,1.9Z" transform="translate(-50.1 -34)"/><path class="cls-7" d="M2121,1026.4a8.2,8.2,0,0,1,10.6-5.4c1.5.5,2.2-1.9.7-2.4a10.7,10.7,0,0,0-13.7,7.1,1.3,1.3,0,0,0,2.4.7Z" transform="translate(-50.1 -34)"/><path class="cls-1" d="M2165.3,239.7a51,51,0,0,0-5.5-2.4c3.7-3.9,5.7-8.6,2.8-13.7l-1.1-1.6a21.1,21.1,0,0,0,4.3-4.3c6.2-8.6-.2-18-10.9-18.8-3.2-.3-3.2,4.3,0,4.5,5.1.4,9.7,4.2,8.2,9.1a12.3,12.3,0,0,1-4.9,6.1c-5.8-4.7-14.6-6.9-21.8-7.4s-22.7.2-24.5,8.8,13.7,11.8,20.8,11.2,17.2-2.5,24.6-6.5c2.6,3.8.8,7.7-2.7,10.9a83.8,83.8,0,0,0-24.3-3c-4.2.1-8.9,1.1-11.6,4.3s-1.7,7.3,1.5,9.9c8.1,6.6,22.1,1.6,30.2-2.6a42,42,0,0,0,5.2-3.2c6.9,2.2,19.3,7.5,11,13.8-2.5,1.9,1.1,5.1,3.5,3.2C2177.8,252.1,2172.5,243.3,2165.3,239.7Zm-36.2-13a21.5,21.5,0,0,1-8.5-1.6c-2.4-1.1-4.8-3.4-2.9-5.9s8.8-3.4,12.2-3.6c8.1-.5,16.9,1.2,23.6,5.6C2146.3,224.5,2136.9,226.9,2129,226.7Zm17.9,13.9a46.2,46.2,0,0,1-12.4,4.2,18.6,18.6,0,0,1-8.2,0c-4.3-1.2-5.7-4.4-1.1-6.9s10.5-.7,14.6-.2,6.3.9,9.4,1.6Z" transform="translate(-50.1 -34)"/><path class="cls-1" d="M2198.8,185.6a14.9,14.9,0,0,1-25.6,10.4,62.7,62.7,0,0,1-71.1,0,14.9,14.9,0,1,1-20.4-21.8,75.7,75.7,0,0,1-4-69c-1.4-6-6.9-32.8,2.7-37.3s17.6,3.9,21.6,7.9a62.8,62.8,0,0,1,71.3,0c3.9-3.9,13.3-11.8,21.7-7.9s4,31.8,2.7,37.5a75.7,75.7,0,0,1-4.1,68.8A14.9,14.9,0,0,1,2198.8,185.6Z" transform="translate(-50.1 -34)"/><path class="cls-7" d="M2137.2,122.9s-28-1.3-34.3,13.1c0,0-8.7,23.6,17.2,20.7s35.5.3,35.5.3,23.3,4,17.3-19.2C2172.9,137.6,2169,122.8,2137.2,122.9Z" transform="translate(-50.1 -34)"/><ellipse class="cls-1" cx="2126.8" cy="137" rx="5.1" ry="3.4" transform="translate(894.6 1876.3) rotate(-60)"/><ellipse class="cls-1" cx="2146.9" cy="137" rx="3.4" ry="5.1" transform="translate(0.4 585.8) rotate(-16.6)"/><path class="cls-7" d="M2162.9,108.3a10.7,10.7,0,0,0-13.7-7.1c-1.5.5-.9,2.9.7,2.4a8.2,8.2,0,0,1,10.6,5.4,1.3,1.3,0,0,0,2.4-.7Z" transform="translate(-50.1 -34)"/><path class="cls-7" d="M2103.5,163.9a24.2,24.2,0,0,0,10.2,7.6c1.5.6,2.1-1.8.7-2.4a21.8,21.8,0,0,1-9.1-7c-1-1.3-2.7.5-1.8,1.8Z" transform="translate(-50.1 -34)"/><path class="cls-7" d="M2104.3,162.9a9.9,9.9,0,0,0,4.7.2c.8-.2.5-1.4-.3-1.2a8.5,8.5,0,0,1-4-.2.6.6,0,0,0-.3,1.2Z" transform="translate(-50.1 -34)"/><path class="cls-1" d="M2196.8,49.9a23.9,23.9,0,0,1,3.8,7.9,1.9,1.9,0,0,0,3.4.4,44.6,44.6,0,0,1,21.7-20.8c2.2-1,.3-4.2-1.9-3.2a47.8,47.8,0,0,0-23.1,22.1l3.4.4A26.7,26.7,0,0,0,2200,48c-1.4-1.9-4.7-.1-3.2,1.9Z" transform="translate(-50.1 -34)"/><path class="cls-7" d="M2194.2,50.1A23.9,23.9,0,0,1,2198,58a1.9,1.9,0,0,0,3.4.4,44.6,44.6,0,0,1,21.7-20.8c2.2-1,.3-4.2-1.9-3.2a47.8,47.8,0,0,0-23.1,22.1l3.4.4a26.7,26.7,0,0,0-4.2-8.8c-1.4-1.9-4.7-.1-3.2,1.9Z" transform="translate(-50.1 -34)"/><path class="cls-7" d="M2114.8,108.9a8.2,8.2,0,0,1,10.6-5.4c1.5.5,2.2-1.9.7-2.4a10.7,10.7,0,0,0-13.7,7.1,1.3,1.3,0,0,0,2.4.7Z" transform="translate(-50.1 -34)"/><path d="M1557.7,1520.1h-10.2a1.8,1.8,0,0,1-1.9-1.8,1.9,1.9,0,0,1,1.9-1.9h10.2v-10.2a1.8,1.8,0,0,1,1.8-1.8,1.9,1.9,0,0,1,1.9,1.8v10.2h10.2a1.9,1.9,0,0,1,1.8,1.9,1.8,1.8,0,0,1-1.8,1.8h-10.2v10.2a1.9,1.9,0,0,1-1.9,1.9,1.8,1.8,0,0,1-1.8-1.9Z" transform="translate(-50.1 -34)"/></svg>