<svg width="522" height="230" viewBox="0 0 522 230" fill="none" xmlns="http://www.w3.org/2000/svg">
<path d="M393.813 66.0357L388.13 77.8136L395.663 81.519L393.813 66.0357Z" fill="#EEA845"/>
<path d="M396.324 83.6364C396.191 83.6364 396.059 83.6364 395.927 83.504L378.615 75.0345C378.351 74.9022 378.087 74.5052 378.087 74.2405C378.087 73.8435 378.219 73.5788 378.483 73.3142L393.813 63.9183C394.077 63.786 394.474 63.786 394.738 63.9183C395.002 64.0506 395.266 64.3153 395.266 64.7123L397.249 82.5777C397.249 82.9747 397.117 83.2394 396.852 83.504C396.72 83.6364 396.588 83.6364 396.324 83.6364ZM381.126 74.1082L395.266 80.9897L393.681 66.4327L381.126 74.1082Z" fill="#253546"/>
<path d="M390.377 74.1082C390.245 74.1082 390.113 74.1082 389.981 73.9758C389.452 73.7112 389.32 73.1818 389.584 72.6525L391.302 69.2117C391.567 68.6824 392.095 68.5501 392.624 68.8147C393.152 69.0794 393.285 69.6088 393.02 70.1381L391.302 73.5788C391.038 73.8435 390.642 74.1082 390.377 74.1082Z" fill="#253546"/>
<path d="M388.791 74.5052C387.998 74.7699 387.998 76.0932 388.923 76.2256C389.848 76.2256 390.113 75.0345 389.32 74.6375C388.791 74.3729 388.395 75.1669 388.923 75.2992C389.055 75.2992 389.055 75.4316 388.923 75.4316C388.923 75.4316 388.791 75.4316 388.923 75.2992C389.452 75.1669 389.32 74.3729 388.791 74.5052Z" fill="#253546"/>
<path d="M465.042 142.394L459.228 154.171L466.76 157.877L465.042 142.394Z" fill="#FF000D"/>
<path d="M467.554 159.994C467.421 159.994 467.289 159.994 467.157 159.862L449.845 151.392C449.581 151.26 449.317 150.863 449.317 150.598C449.317 150.201 449.449 149.937 449.713 149.672L465.043 140.276C465.307 140.144 465.703 140.144 465.968 140.276C466.232 140.409 466.496 140.673 466.496 141.07L468.479 158.936C468.479 159.333 468.347 159.597 468.082 159.862C467.95 159.862 467.686 159.994 467.554 159.994ZM452.224 150.466L466.364 157.348L464.778 142.791L452.224 150.466Z" fill="#253546"/>
<path d="M461.474 150.466C461.342 150.466 461.21 150.466 461.078 150.334C460.549 150.069 460.417 149.54 460.681 149.01L462.399 145.57C462.664 145.04 463.192 144.908 463.721 145.173C464.25 145.437 464.382 145.967 464.117 146.496L462.399 149.937C462.135 150.201 461.871 150.466 461.474 150.466Z" fill="#253546"/>
<path d="M459.889 150.863C459.096 151.128 459.096 152.451 460.021 152.583C460.946 152.583 461.21 151.392 460.417 150.995C459.889 150.731 459.492 151.525 460.021 151.657C460.153 151.657 460.153 151.789 460.021 151.789C460.021 151.789 459.889 151.789 460.021 151.657C460.682 151.525 460.417 150.731 459.889 150.863Z" fill="#253546"/>
<path opacity="0.75" d="M221.222 84.1657H9.38281V136.703H221.222V84.1657Z" fill="#0EDA87"/>
<path opacity="0.75" d="M295.888 84.1657H221.222V136.703H295.888V84.1657Z" fill="#5CD9EA"/>
<path opacity="0.75" d="M370.554 84.1657H295.888V136.703H370.554V84.1657Z" fill="#EEA845"/>
<path opacity="0.75" d="M445.088 84.1657H370.422V136.703H445.088V84.1657Z" fill="#F90BED"/>
<path opacity="0.75" d="M519.754 84.1657H445.088V136.703H519.754V84.1657Z" fill="#EF3352"/>
<path d="M10.8365 122.675C4.88962 122.675 0 117.779 0 111.824C0 105.869 4.88962 100.972 10.8365 100.972C16.7833 100.972 21.6729 105.869 21.6729 111.824C21.6729 117.779 16.7833 122.675 10.8365 122.675ZM10.8365 102.428C5.55038 102.428 1.32152 106.663 1.32152 111.956C1.32152 117.25 5.55038 121.484 10.8365 121.484C16.1225 121.484 20.3514 117.25 20.3514 111.956C20.3514 106.663 15.9904 102.428 10.8365 102.428Z" fill="#253546"/>
<path d="M10.8365 114.338C13.1721 114.338 15.0654 112.442 15.0654 110.104C15.0654 107.765 13.1721 105.869 10.8365 105.869C8.50099 105.869 6.60767 107.765 6.60767 110.104C6.60767 112.442 8.50099 114.338 10.8365 114.338Z" fill="#253546"/>
<path d="M10.8364 110.104V225.765" stroke="#253546" stroke-miterlimit="10"/>
<path d="M221.751 79.4016C227.698 79.4016 232.588 84.298 232.588 90.2532C232.588 96.2083 227.698 101.105 221.751 101.105C215.804 101.105 210.915 96.2083 210.915 90.2532C210.915 84.298 215.804 79.4016 221.751 79.4016ZM221.751 99.7814C227.037 99.7814 231.266 95.5466 231.266 90.2532C231.266 84.9597 227.037 80.725 221.751 80.725C216.465 80.725 212.236 84.9597 212.236 90.2532C212.236 95.5466 216.597 99.7814 221.751 99.7814Z" fill="#253546"/>
<path d="M221.751 94.4879C224.086 94.4879 225.98 92.5919 225.98 90.2532C225.98 87.9144 224.086 86.0184 221.751 86.0184C219.415 86.0184 217.522 87.9144 217.522 90.2532C217.522 92.5919 219.415 94.4879 221.751 94.4879Z" fill="#253546"/>
<path d="M221.751 90.2532V0" stroke="#253546" stroke-miterlimit="10"/>
<path d="M370.422 79.4016C376.369 79.4016 381.258 84.298 381.258 90.2532C381.258 96.2083 376.369 101.105 370.422 101.105C364.475 101.105 359.585 96.2083 359.585 90.2532C359.585 84.298 364.475 79.4016 370.422 79.4016ZM370.422 99.7814C375.708 99.7814 379.937 95.5466 379.937 90.2532C379.937 84.9597 375.708 80.725 370.422 80.725C365.136 80.725 360.907 84.9597 360.907 90.2532C360.907 95.5466 365.268 99.7814 370.422 99.7814Z" fill="#253546"/>
<path d="M370.422 94.4879C372.757 94.4879 374.651 92.5919 374.651 90.2532C374.651 87.9144 372.757 86.0184 370.422 86.0184C368.086 86.0184 366.193 87.9144 366.193 90.2532C366.193 92.5919 368.086 94.4879 370.422 94.4879Z" fill="#253546"/>
<path d="M370.422 90.2532V0" stroke="#253546" stroke-miterlimit="10"/>
<path d="M295.624 148.084C289.677 148.084 284.788 143.188 284.788 137.232C284.788 131.277 289.677 126.381 295.624 126.381C301.571 126.381 306.461 131.277 306.461 137.232C306.461 143.188 301.571 148.084 295.624 148.084ZM295.624 127.837C290.338 127.837 286.109 132.071 286.109 137.365C286.109 142.658 290.338 146.893 295.624 146.893C300.91 146.893 305.139 142.658 305.139 137.365C305.139 132.071 300.778 127.837 295.624 127.837Z" fill="#253546"/>
<path d="M295.624 141.6C297.959 141.6 299.853 139.704 299.853 137.365C299.853 135.026 297.959 133.13 295.624 133.13C293.288 133.13 291.395 135.026 291.395 137.365C291.395 139.704 293.288 141.6 295.624 141.6Z" fill="#253546"/>
<path d="M295.624 137.365V227.486" stroke="#253546" stroke-miterlimit="10"/>
<path d="M24.0519 143.452L20.8803 150.863C20.8803 150.995 20.7481 150.995 20.7481 150.995C20.616 150.995 20.616 150.995 20.616 150.863L16.1228 140.144C16.1228 140.012 16.1228 139.879 16.255 139.879C16.3871 139.879 16.5193 139.879 16.5193 140.012L20.8803 150.201L23.7876 142.923C23.7876 142.791 23.9198 142.791 24.0519 142.791C24.1841 142.791 24.1841 142.791 24.3162 142.923L27.3557 150.334L31.7167 140.144C31.7167 140.012 31.8489 140.012 31.981 140.012C32.1132 140.012 32.1132 140.144 32.1132 140.276L27.62 150.995C27.62 150.995 27.62 151.128 27.4879 151.128C27.3557 151.128 27.3557 151.128 27.2236 150.995L24.0519 143.452Z" fill="black"/>
<path d="M39.9102 146.364C39.9102 144.776 38.7208 143.585 37.135 143.585C35.6814 143.585 34.492 144.776 34.3598 146.231V150.731C34.3598 150.863 34.3598 150.863 34.2277 150.863C34.2277 150.863 34.2277 150.863 34.0955 150.863H33.9634V150.731V146.364V146.231V140.012C33.9634 139.879 34.0955 139.747 34.2277 139.747C34.3598 139.747 34.3598 139.879 34.3598 140.012V144.776C34.8884 143.849 35.9457 143.188 37.135 143.188C38.853 143.188 40.3067 144.643 40.3067 146.364V150.731C40.3067 150.863 40.1745 150.995 40.1745 150.995C40.0424 150.995 39.9102 150.863 39.9102 150.731V146.364V146.364Z" fill="black"/>
<path d="M50.7467 143.452V150.863C50.7467 150.995 50.6145 151.128 50.6145 151.128C50.4824 151.128 50.3502 150.995 50.3502 150.863V148.878C49.6895 150.201 48.5001 150.995 47.0464 150.995C45.0642 150.995 43.3462 149.275 43.3462 147.158C43.3462 145.04 44.932 143.32 47.0464 143.32C48.5001 143.32 49.6895 144.246 50.3502 145.437V143.452C50.3502 143.32 50.4824 143.188 50.6145 143.188C50.7467 143.32 50.7467 143.32 50.7467 143.452ZM50.3502 147.158C50.3502 145.173 48.8966 143.717 47.0464 143.717C45.1963 143.717 43.7426 145.305 43.7426 147.158C43.7426 149.143 45.1963 150.598 47.0464 150.598C48.8966 150.598 50.3502 149.143 50.3502 147.158Z" fill="black"/>
<path d="M56.6936 143.452C56.6936 143.585 56.5614 143.585 56.4293 143.585H55.1078V149.804C55.1078 150.201 55.5042 150.598 55.9007 150.598C56.0328 150.598 56.165 150.731 56.165 150.731C56.165 150.731 56.0328 150.995 55.9007 150.995C55.2399 150.995 54.7113 150.466 54.7113 149.804V143.585H53.3898C53.2576 143.585 53.1255 143.452 53.1255 143.452C53.1255 143.452 53.2576 143.188 53.3898 143.188H54.7113V140.012C54.7113 139.879 54.8435 139.747 54.8435 139.747C54.8435 139.747 55.1078 139.879 55.1078 140.012V143.188H56.4293C56.6936 143.32 56.6936 143.32 56.6936 143.452Z" fill="black"/>
<path d="M59.3362 147.158C59.3362 145.04 61.0542 143.32 63.1686 143.32C65.1509 143.32 66.7367 144.908 66.8688 146.893C66.8688 147.025 66.7367 147.025 66.7367 147.025H59.8648C59.8648 148.878 61.3185 150.466 63.3007 150.466C64.4901 150.466 65.5473 149.804 66.0759 148.878C66.0759 148.746 66.2081 148.746 66.3402 148.878C66.4724 148.878 66.4724 149.01 66.3402 149.143C65.6795 150.201 64.4901 150.863 63.1686 150.863C60.922 150.995 59.3362 149.275 59.3362 147.158ZM59.7326 146.761H66.4724C66.2081 145.04 64.8866 143.717 63.1686 143.717C61.3185 143.717 59.8648 145.04 59.7326 146.761Z" fill="black"/>
<path d="M68.4551 143.585C68.4551 143.452 68.4551 143.32 68.5872 143.32C68.7194 143.32 68.8515 143.32 68.8515 143.452L71.7589 150.334L74.6662 143.452C74.6662 143.32 74.7984 143.32 74.9305 143.32C75.0627 143.32 75.0627 143.452 75.0627 143.585L72.0232 150.863L71.891 150.995C71.891 150.995 71.7589 150.995 71.7589 150.863L68.4551 143.585Z" fill="black"/>
<path d="M77.3091 147.158C77.3091 145.04 79.0271 143.32 81.1415 143.32C83.1238 143.32 84.7096 144.908 84.8417 146.893C84.8417 147.025 84.7096 147.025 84.7096 147.025H77.8377C77.8377 148.878 79.2914 150.466 81.2736 150.466C82.463 150.466 83.5202 149.804 84.0488 148.878C84.0488 148.746 84.181 148.746 84.3131 148.878C84.4453 148.878 84.4453 149.01 84.3131 149.143C83.6524 150.201 82.463 150.863 81.1415 150.863C79.0271 150.995 77.3091 149.275 77.3091 147.158ZM77.7055 146.761H84.4453C84.181 145.04 82.8595 143.717 81.1415 143.717C79.2914 143.717 77.9698 145.04 77.7055 146.761Z" fill="black"/>
<path d="M87.2205 147.158V143.452C87.2205 143.32 87.3526 143.188 87.3526 143.188C87.4848 143.188 87.4848 143.32 87.4848 143.452V146.099C87.6169 145.834 87.7491 145.437 88.0134 145.173C88.6741 144.246 89.5992 143.188 91.0529 143.188C91.185 143.188 91.3172 143.32 91.3172 143.452C91.3172 143.585 91.185 143.717 91.0529 143.717C90.1278 143.717 89.3349 144.246 88.8063 144.776C88.2777 145.437 87.8812 146.231 87.6169 146.761C87.4848 147.158 87.4848 147.29 87.4848 147.29V150.863C87.4848 150.995 87.4848 151.128 87.3526 151.128C87.2205 151.128 87.2205 150.995 87.2205 150.863V147.158Z" fill="black"/>
<path d="M15.8585 162.509C15.8585 162.376 15.9907 162.244 16.1228 162.244C16.255 162.244 16.255 162.376 16.255 162.509V166.876C16.255 168.331 17.4444 169.655 19.0302 169.655C20.4839 169.655 21.6732 168.464 21.6732 167.008V162.509C21.6732 162.509 21.6732 162.509 21.6732 162.376C21.6732 162.376 21.6732 162.376 21.8054 162.376V162.509V169.655C21.8054 171.64 20.2196 173.36 18.1051 173.36C17.5765 173.36 17.0479 173.228 16.5193 172.963C16.3871 172.963 16.3871 172.831 16.3871 172.699C16.3871 172.566 16.5193 172.566 16.6515 172.566C17.0479 172.831 17.5765 172.963 18.1051 172.963C19.9553 172.963 21.4089 171.507 21.4089 169.655V168.464C20.8803 169.39 19.8231 170.052 18.7659 170.052C17.0479 170.052 15.5942 168.596 15.5942 166.876V162.509H15.8585Z" fill="black"/>
<path d="M28.6773 162.376C30.6596 162.376 32.3776 164.097 32.3776 166.214C32.3776 168.331 30.7917 170.052 28.6773 170.052C26.5629 170.052 24.9771 168.331 24.9771 166.214C24.9771 164.097 26.5629 162.376 28.6773 162.376ZM28.6773 169.655C30.5274 169.655 31.9811 168.067 31.9811 166.214C31.9811 164.229 30.5274 162.773 28.6773 162.773C26.8272 162.773 25.3735 164.361 25.3735 166.214C25.3735 168.067 26.8272 169.655 28.6773 169.655Z" fill="black"/>
<path d="M34.8884 162.509C34.8884 162.376 35.0206 162.244 35.1527 162.244C35.2849 162.244 35.2849 162.376 35.2849 162.509V166.876C35.2849 168.464 36.4742 169.655 38.0601 169.655C39.5137 169.655 40.8353 168.464 40.8353 166.876V162.509C40.8353 162.376 40.9674 162.244 41.0996 162.244C41.2317 162.244 41.3639 162.376 41.3639 162.509V166.876C41.3639 168.596 39.9102 170.052 38.1922 170.052C36.4743 170.052 35.0206 168.596 35.0206 166.876V162.509H34.8884Z" fill="black"/>
<path d="M49.425 166.346V166.214V166.082V159.333C49.425 159.2 49.5572 159.068 49.6893 159.068C49.8215 159.068 49.8215 159.2 49.8215 159.333V164.626C50.4823 163.303 51.6716 162.509 53.1253 162.509C55.2397 162.509 56.9577 164.229 56.9577 166.346C56.9577 168.464 55.2397 170.316 53.1253 170.316C51.6716 170.316 50.3501 169.39 49.8215 168.199V170.184C49.8215 170.316 49.6893 170.449 49.6893 170.449C49.5572 170.449 49.425 170.316 49.425 170.184V166.346ZM49.8215 166.214C49.8215 168.199 51.4073 169.787 53.1253 169.787C54.9754 169.787 56.5612 168.199 56.5612 166.214C56.5612 164.229 54.9754 162.773 53.1253 162.773C51.4073 162.773 49.8215 164.229 49.8215 166.082V166.214Z" fill="black"/>
<path d="M59.7329 162.509C59.7329 162.376 59.8651 162.244 59.9972 162.244C60.1294 162.244 60.1294 162.376 60.1294 162.509V166.876C60.1294 168.464 61.3187 169.655 62.9046 169.655C64.3582 169.655 65.6797 168.464 65.6797 166.876V162.509C65.6797 162.376 65.8119 162.244 65.9441 162.244C66.0762 162.244 66.2084 162.376 66.2084 162.509V166.876C66.2084 168.596 64.7547 170.052 63.0367 170.052C61.3187 170.052 59.8651 168.596 59.8651 166.876V162.509H59.7329Z" fill="black"/>
<path d="M68.9835 162.509C68.9835 162.376 69.1157 162.244 69.2478 162.244C69.38 162.244 69.38 162.376 69.38 162.509V166.876C69.38 168.331 70.5694 169.655 72.1552 169.655C73.6089 169.655 74.7982 168.464 74.7982 167.008V162.509C74.7982 162.509 74.7982 162.509 74.7982 162.376C74.7982 162.376 74.7982 162.376 74.9304 162.376V162.509V169.655C74.9304 171.64 73.3446 173.36 71.2301 173.36C70.7015 173.36 70.1729 173.228 69.6443 172.963C69.5122 172.963 69.5121 172.831 69.5121 172.699C69.5121 172.566 69.6443 172.566 69.7765 172.566C70.1729 172.831 70.7015 172.963 71.2301 172.963C73.0803 172.963 74.5339 171.507 74.5339 169.655V168.464C74.0053 169.39 72.9481 170.052 71.8909 170.052C70.1729 170.052 68.7192 168.596 68.7192 166.876V162.509H68.9835Z" fill="black"/>
<path d="M22.3338 184.476C22.3338 182.888 21.1444 181.697 19.5586 181.697C18.1049 181.697 16.9156 182.888 16.7834 184.344V188.844C16.7834 188.976 16.7834 188.976 16.6513 188.976C16.6513 188.976 16.6513 188.976 16.5191 188.976H16.387V188.844V184.476V184.344V178.124C16.387 177.992 16.5191 177.86 16.6513 177.86C16.7834 177.86 16.7834 177.992 16.7834 178.124V182.888C17.312 181.962 18.3692 181.3 19.5586 181.3C21.2766 181.3 22.7303 182.756 22.7303 184.476V188.844C22.7303 188.976 22.5981 189.108 22.5981 189.108C22.466 189.108 22.3338 188.976 22.3338 188.844V184.476Z" fill="black"/>
<path d="M25.6375 185.27C25.6375 183.153 27.3554 181.433 29.4699 181.433C31.4521 181.433 33.038 183.021 33.1701 185.006C33.1701 185.138 33.038 185.138 33.038 185.138H26.1661C26.1661 186.991 27.6197 188.579 29.602 188.579C30.7914 188.579 31.8486 187.917 32.3772 186.991C32.3772 186.858 32.5094 186.858 32.6415 186.991C32.7737 186.991 32.7737 187.123 32.6415 187.255C31.9807 188.314 30.7914 188.976 29.4699 188.976C27.3554 189.108 25.6375 187.388 25.6375 185.27ZM26.0339 184.873H32.7737C32.5093 183.153 31.1878 181.83 29.4699 181.83C27.7519 181.83 26.2982 183.153 26.0339 184.873Z" fill="black"/>
<path d="M35.5493 185.27V181.565C35.5493 181.433 35.6815 181.3 35.6815 181.3C35.8136 181.3 35.8136 181.433 35.8136 181.565V184.212C35.9458 183.947 36.0779 183.55 36.3422 183.285C37.003 182.359 37.9281 181.3 39.3817 181.3C39.5139 181.3 39.646 181.433 39.646 181.565C39.646 181.697 39.5139 181.83 39.3817 181.83C38.4567 181.83 37.6637 182.359 37.1351 182.888C36.6065 183.55 36.2101 184.344 35.9458 184.873C35.8136 185.27 35.8136 185.403 35.8136 185.403V188.976C35.8136 189.108 35.8136 189.241 35.6815 189.241C35.5493 189.241 35.5493 189.108 35.5493 188.976V185.27Z" fill="black"/>
<path d="M41.0996 185.27C41.0996 183.153 42.8176 181.433 44.932 181.433C46.9143 181.433 48.5001 183.021 48.6323 185.006C48.6323 185.138 48.5001 185.138 48.5001 185.138H41.6282C41.6282 186.991 43.0819 188.579 45.0642 188.579C46.2535 188.579 47.3107 187.917 47.8394 186.991C47.8394 186.858 47.9715 186.858 48.1037 186.991C48.2358 186.991 48.2358 187.123 48.1037 187.255C47.4429 188.314 46.2535 188.976 44.932 188.976C42.8176 189.108 41.2318 187.388 41.0996 185.27ZM41.4961 184.873H48.2358C47.9715 183.153 46.65 181.83 44.932 181.83C43.214 181.83 41.7604 183.153 41.4961 184.873Z" fill="black"/>
<path d="M55.5041 181.565C55.5041 181.433 55.6362 181.3 55.7684 181.3C55.9005 181.3 55.9005 181.433 55.9005 181.565V185.932C55.9005 187.388 57.0899 188.711 58.6757 188.711C60.1294 188.711 61.3187 187.52 61.3187 186.064V181.565C61.3187 181.565 61.3187 181.565 61.3187 181.433C61.3187 181.433 61.3187 181.433 61.4509 181.433V181.565V188.711C61.4509 190.696 59.8651 192.417 57.7506 192.417C57.222 192.417 56.6934 192.284 56.1648 192.02C56.0327 192.02 56.0327 191.887 56.0327 191.755C56.0327 191.623 56.1648 191.623 56.297 191.623C56.6934 191.887 57.222 192.02 57.7506 192.02C59.6008 192.02 61.0544 190.564 61.0544 188.711V187.52C60.5258 188.446 59.4686 189.108 58.4114 189.108C56.6934 189.108 55.2397 187.652 55.2397 185.932V181.565H55.5041Z" fill="black"/>
<path d="M68.1907 181.433C70.173 181.433 71.891 183.153 71.891 185.27C71.891 187.388 70.3052 189.108 68.1907 189.108C66.0763 189.108 64.4905 187.388 64.4905 185.27C64.6226 183.153 66.2085 181.433 68.1907 181.433ZM68.1907 188.711C70.0409 188.711 71.4945 187.123 71.4945 185.27C71.4945 183.285 70.0409 181.83 68.1907 181.83C66.3406 181.83 64.8869 183.418 64.8869 185.27C65.0191 187.123 66.4728 188.711 68.1907 188.711Z" fill="black"/>
<path d="M74.4019 181.565C74.4019 181.433 74.534 181.3 74.6662 181.3C74.7983 181.3 74.7983 181.433 74.7983 181.565V185.932C74.7983 187.52 75.9877 188.711 77.5735 188.711C79.0272 188.711 80.3487 187.52 80.3487 185.932V181.565C80.3487 181.433 80.4808 181.3 80.613 181.3C80.7451 181.3 80.8773 181.433 80.8773 181.565V185.932C80.8773 187.652 79.4236 189.108 77.7057 189.108C75.9877 189.108 74.534 187.652 74.534 185.932V181.565H74.4019Z" fill="black"/>
<path d="M16.519 204.459V204.327V204.194V200.754C16.519 200.621 16.6512 200.489 16.7833 200.489C16.9155 200.489 16.9155 200.621 16.9155 200.754V202.739C17.5763 201.415 18.7656 200.621 20.2193 200.621C22.3337 200.621 23.9195 202.342 23.9195 204.459C23.9195 206.577 22.3337 208.297 20.2193 208.297C18.7656 208.297 17.4441 207.371 16.9155 206.18V211.605C16.9155 211.738 16.7833 211.87 16.7833 211.87C16.6512 211.87 16.519 211.738 16.519 211.605V204.459V204.459ZM16.9155 204.327C16.9155 206.18 18.3692 207.768 20.2193 207.768C22.0694 207.768 23.5231 206.18 23.5231 204.327C23.5231 202.474 22.0694 200.886 20.2193 200.886C18.5013 200.886 16.9155 202.342 16.9155 204.194V204.327Z" fill="black"/>
<path d="M33.4347 200.621V208.032C33.4347 208.165 33.3025 208.297 33.3025 208.297C33.1704 208.297 33.0382 208.165 33.0382 208.032V206.047C32.3775 207.371 31.1881 208.165 29.7344 208.165C27.7522 208.165 26.0342 206.444 26.0342 204.327C26.0342 202.209 27.62 200.489 29.7344 200.489C31.1881 200.489 32.3775 201.415 33.0382 202.606V200.621C33.0382 200.489 33.1704 200.357 33.3025 200.357C33.3025 200.489 33.4347 200.489 33.4347 200.621ZM33.0382 204.327C33.0382 202.342 31.5846 200.886 29.7344 200.886C27.8843 200.886 26.4306 202.474 26.4306 204.327C26.4306 206.312 27.8843 207.768 29.7344 207.768C31.5846 207.768 33.0382 206.312 33.0382 204.327Z" fill="black"/>
<path d="M36.6063 200.621C36.6063 200.489 36.7385 200.357 36.8706 200.357C37.0028 200.357 37.0028 200.489 37.0028 200.621V204.988C37.0028 206.444 38.1922 207.768 39.778 207.768C41.2317 207.768 42.421 206.577 42.421 205.121V200.621C42.421 200.621 42.421 200.621 42.421 200.489C42.421 200.489 42.421 200.489 42.5532 200.489V200.621V207.768C42.5532 209.753 40.9674 211.473 38.8529 211.473C38.3243 211.473 37.7957 211.341 37.2671 211.076C37.135 211.076 37.135 210.944 37.135 210.811C37.135 210.679 37.2671 210.679 37.3993 210.679C37.7957 210.944 38.3243 211.076 38.8529 211.076C40.7031 211.076 42.1567 209.62 42.1567 207.768V206.577C41.6281 207.503 40.5709 208.165 39.5137 208.165C37.7957 208.165 36.342 206.709 36.342 204.988V200.621H36.6063Z" fill="black"/>
<path d="M51.4075 198.107C51.4075 197.975 51.5396 197.842 51.6718 197.842C51.8039 197.842 51.8039 197.975 51.8039 198.107V198.504C51.8039 198.636 51.6718 198.636 51.6718 198.636C51.5396 198.636 51.4075 198.504 51.4075 198.504V198.107ZM51.4075 200.621C51.4075 200.489 51.5396 200.489 51.6718 200.489C51.8039 200.489 51.8039 200.489 51.8039 200.621V208.032C51.8039 208.165 51.6718 208.297 51.6718 208.297C51.5396 208.297 51.4075 208.165 51.4075 208.032V200.621Z" fill="black"/>
<path d="M58.4116 200.621C58.4116 200.754 58.2795 200.754 58.1473 200.754H56.8258V206.974C56.8258 207.371 57.2222 207.768 57.6187 207.768C57.7508 207.768 57.883 207.9 57.883 207.9C57.883 207.9 57.7508 208.165 57.6187 208.165C56.9579 208.165 56.4293 207.635 56.4293 206.974V200.754H55.1078C54.9757 200.754 54.8435 200.621 54.8435 200.621C54.8435 200.621 54.9757 200.357 55.1078 200.357H56.4293V197.181C56.4293 197.048 56.5615 196.916 56.5615 196.916C56.6936 196.916 56.8258 197.048 56.8258 197.181V200.357H58.1473C58.2795 200.489 58.4116 200.489 58.4116 200.621Z" fill="black"/>
<path d="M66.8691 198.107C66.8691 197.975 67.0013 197.842 67.1334 197.842C67.2656 197.842 67.2656 197.975 67.2656 198.107V198.504C67.2656 198.636 67.1334 198.636 67.1334 198.636C67.0013 198.636 66.8691 198.504 66.8691 198.504V198.107ZM66.8691 200.621C66.8691 200.489 67.0013 200.489 67.1334 200.489C67.2656 200.489 67.2656 200.489 67.2656 200.621V208.032C67.2656 208.165 67.1334 208.297 67.1334 208.297C67.0013 208.297 66.8691 208.165 66.8691 208.032V200.621Z" fill="black"/>
<path d="M77.1772 203.533C77.1772 201.945 75.9878 200.754 74.402 200.754C72.9483 200.754 71.6268 201.945 71.6268 203.533V207.9V208.032L71.4946 208.165C71.4946 208.165 71.4946 208.165 71.4946 208.032V203.665V203.533V200.754C71.4946 200.621 71.6268 200.621 71.7589 200.621C71.8911 200.621 71.8911 200.621 71.8911 200.754V202.209C72.4197 201.283 73.4769 200.621 74.6663 200.621C76.3843 200.621 77.8379 202.077 77.8379 203.797V208.165C77.8379 208.297 77.7058 208.429 77.5736 208.429C77.4415 208.429 77.4415 208.297 77.4415 208.165V203.533H77.1772Z" fill="black"/>
<path d="M24.5815 224.31C24.5815 224.839 24.185 225.236 23.6564 225.236H23.5242V226.427C23.5242 226.956 23.1278 227.353 22.5992 227.353C22.0706 227.353 21.6741 226.956 21.6741 226.427V225.236H16.6523C16.5202 225.236 16.2559 225.236 16.1237 225.104C15.7273 224.839 15.7273 224.31 15.9916 223.913L21.8063 216.634C21.8063 216.634 21.8063 216.634 21.9384 216.634C21.9384 216.634 21.9384 216.634 22.0706 216.634C22.0706 216.634 22.0706 216.634 22.2027 216.634H22.3349H22.467C22.467 216.634 22.467 216.634 22.5992 216.634C22.5992 216.634 22.5992 216.634 22.7313 216.634C22.7313 216.634 22.7313 216.634 22.8635 216.634C22.8635 216.634 22.8635 216.634 22.9956 216.634C22.9956 216.634 22.9956 216.634 22.9956 216.766C22.9956 216.766 22.9956 216.766 22.9956 216.899C22.9956 216.899 22.9956 216.899 22.9956 217.031C22.9956 217.031 22.9956 217.031 22.9956 217.163V223.516H23.1278C24.185 223.383 24.5815 223.78 24.5815 224.31ZM21.6741 219.545L18.5025 223.516H21.6741V219.545Z" fill="black"/>
<path d="M32.3773 220.472C33.1702 221.266 33.5666 222.192 33.5666 223.251C33.5666 224.31 33.1702 225.236 32.3773 226.03C31.5844 226.824 30.6593 227.221 29.6021 227.221C28.677 227.221 27.6198 226.824 26.8269 226.03C26.4304 225.633 26.4304 225.104 26.8269 224.707C27.2233 224.31 27.7519 224.31 28.1484 224.707C28.5449 225.104 29.0735 225.368 29.7342 225.368C30.2628 225.368 30.7914 225.104 31.1879 224.707C31.5844 224.31 31.8487 223.78 31.8487 223.251C31.8487 222.722 31.5844 222.192 31.1879 221.663C30.7914 221.266 30.2628 221.001 29.7342 221.001C29.2056 221.001 28.677 221.134 28.1484 221.663C27.7519 222.06 27.2233 222.06 26.8269 221.663C26.8269 221.663 26.6947 221.531 26.6947 221.398C26.6947 221.398 26.6947 221.398 26.6947 221.266V221.134C26.6947 221.001 26.6947 221.001 26.6947 220.869L27.2233 216.766C27.2233 216.502 27.3555 216.237 27.6198 216.105C27.7519 216.105 27.8841 215.972 28.0163 215.972H32.6416C33.1702 215.972 33.5666 216.369 33.5666 216.899C33.5666 217.428 33.1702 217.825 32.6416 217.825H28.677L28.5449 219.413C28.9413 219.281 29.2056 219.281 29.6021 219.281C30.6593 219.413 31.7165 219.81 32.3773 220.472Z" fill="black"/>
<path d="M48.5002 226.427C48.5002 226.824 48.1037 227.221 47.7073 227.221C47.3108 227.221 46.9144 226.956 46.9144 226.559C46.2536 226.956 45.5928 227.221 44.7999 227.221C42.6855 227.221 40.9675 225.368 40.9675 223.251C40.9675 221.133 42.6855 219.281 44.7999 219.281C45.5928 219.281 46.3858 219.545 46.9144 219.942V217.031C46.9144 216.634 47.3108 216.237 47.8394 216.237C48.368 216.237 48.6323 216.634 48.6323 217.031V223.383V226.427H48.5002ZM44.6678 221.001C44.1392 221.001 43.6106 221.266 43.2141 221.663C42.8177 222.06 42.5534 222.589 42.5534 223.251C42.5534 223.913 42.8177 224.442 43.2141 224.839C43.6106 225.236 44.1392 225.501 44.6678 225.501C45.1964 225.501 45.725 225.236 46.1215 224.839C46.5179 224.442 46.7822 223.913 46.7822 223.251C46.7822 222.589 46.5179 222.06 46.1215 221.663C45.725 221.266 45.3285 221.001 44.6678 221.001Z" fill="black"/>
<path d="M58.5436 223.251V226.427C58.5436 226.824 58.1471 227.221 57.7507 227.221C57.3542 227.221 56.9577 226.956 56.9577 226.559C56.297 226.956 55.6362 227.221 54.8433 227.221C53.7861 227.221 52.861 226.824 52.2003 226.03C51.5395 225.236 51.1431 224.31 51.1431 223.251C51.1431 222.192 51.5395 221.134 52.2003 220.472C52.861 219.678 53.7861 219.281 54.8433 219.281C55.6362 219.281 56.297 219.545 56.9577 219.943C57.0899 219.545 57.3542 219.281 57.7507 219.281C58.1471 219.281 58.5436 219.678 58.5436 220.075V223.251ZM56.8256 223.251C56.8256 222.589 56.5613 222.06 56.1648 221.663C55.7684 221.266 55.2398 221.001 54.7112 221.001C54.1826 221.001 53.654 221.266 53.2575 221.663C52.861 222.06 52.5967 222.589 52.5967 223.251C52.5967 223.913 52.861 224.442 53.2575 224.839C53.654 225.236 54.1826 225.501 54.7112 225.501C55.2398 225.501 55.7684 225.236 56.1648 224.839C56.5613 224.574 56.8256 223.913 56.8256 223.251Z" fill="black"/>
<path d="M68.0582 220.207V223.913V226.162C68.0582 228.28 66.3402 230 64.2258 230C63.6972 230 63.0364 229.868 62.64 229.603C62.2435 229.471 61.9792 228.941 62.2435 228.412C62.5078 228.015 63.0364 227.883 63.4329 228.015C63.6972 228.147 64.0937 228.28 64.358 228.28C65.283 228.28 66.0759 227.618 66.3402 226.824C65.9438 227.089 65.4152 227.221 64.8866 227.221C63.0364 227.221 61.5828 225.765 61.5828 223.913V220.207C61.5828 219.678 61.9792 219.413 62.3757 219.413C62.9043 219.413 63.1686 219.81 63.1686 220.207V223.913C63.1686 224.839 63.9615 225.501 64.7544 225.501C65.5473 225.501 66.3402 224.839 66.3402 223.913V220.207C66.3402 219.678 66.7367 219.413 67.1331 219.413C67.6618 219.281 68.0582 219.678 68.0582 220.207Z" fill="black"/>
<path d="M70.7014 224.971C70.9657 224.574 71.4943 224.574 71.8908 224.839C72.2872 225.236 73.0802 225.501 73.6088 225.501C74.0052 225.501 74.4017 225.368 74.666 225.236C74.9303 225.104 74.9303 224.839 74.9303 224.707C74.9303 224.574 74.9303 224.574 74.9303 224.574C74.9303 224.574 74.7981 224.442 74.666 224.442C74.4017 224.31 74.0052 224.045 73.3445 224.045C72.8159 223.913 72.4194 223.78 72.0229 223.648C71.6265 223.383 71.23 223.119 70.9657 222.722C70.8336 222.457 70.7014 222.06 70.7014 221.663C70.7014 220.869 71.0979 220.339 71.6265 219.942C72.1551 219.545 72.8159 219.413 73.6088 219.413C74.666 219.413 75.4589 219.942 75.9875 220.339C76.384 220.604 76.5161 221.134 76.2518 221.531C75.9875 221.928 75.4589 222.06 75.0624 221.795C74.5338 221.398 74.1374 221.266 73.6088 221.266C73.2123 221.266 72.8159 221.398 72.6837 221.531C72.4194 221.663 72.4194 221.795 72.4194 221.928V222.06C72.4194 222.06 72.4194 222.192 72.5516 222.192C72.8159 222.325 73.2123 222.457 73.7409 222.589C74.2695 222.722 74.7981 222.854 75.1946 222.986C75.591 223.119 75.9875 223.516 76.384 223.913C76.5161 224.177 76.6483 224.574 76.6483 224.971C76.6483 225.765 76.2518 226.427 75.591 226.824C75.0624 227.221 74.2695 227.486 73.4766 227.486C72.2872 227.486 71.23 226.956 70.7014 226.427C70.5693 225.898 70.4371 225.368 70.7014 224.971Z" fill="black"/>
<path d="M78.895 223.383V217.031C78.895 216.502 79.2915 216.105 79.8201 216.105C80.3487 216.105 80.613 216.502 80.613 217.031V223.383C80.613 223.913 80.2165 224.31 79.8201 224.31C79.2915 224.31 78.895 223.913 78.895 223.383ZM79.8201 227.221C79.2915 227.221 78.895 226.824 78.895 226.295V226.03C78.895 225.501 79.2915 225.104 79.8201 225.104C80.3487 225.104 80.613 225.501 80.613 226.03V226.295C80.613 226.824 80.3487 227.221 79.8201 227.221Z" fill="black"/>
<path d="M169.815 7.94016C169.815 4.76409 172.458 2.24971 175.63 2.24971C177.083 2.24971 178.273 2.64671 179.33 3.44073C179.726 3.7054 179.726 4.36708 179.462 4.76409C179.198 5.1611 178.537 5.1611 178.141 4.89643C177.48 4.36708 176.555 3.97007 175.63 3.97007C174.572 3.97007 173.515 4.36708 172.722 5.1611C172.062 5.95511 171.533 6.88147 171.533 7.94016C171.533 8.99884 171.929 10.0575 172.722 10.7192C173.515 11.3809 174.44 11.9102 175.63 11.9102C176.555 11.9102 177.48 11.6456 178.141 10.9839C178.537 10.7192 179.066 10.7192 179.462 11.1162C179.726 11.5132 179.726 12.0426 179.33 12.4396C178.273 13.2336 177.083 13.6306 175.63 13.6306C172.458 13.7629 169.815 11.1162 169.815 7.94016Z" fill="black"/>
<path d="M185.541 13.7629C183.691 13.7629 182.237 12.3072 182.237 10.4545V6.61678C182.237 6.21977 182.634 5.82276 183.03 5.82276C183.559 5.82276 183.823 6.21977 183.823 6.61678V10.4545C183.823 11.3809 184.484 12.0426 185.409 12.0426C186.334 12.0426 186.995 11.3809 187.127 10.4545V6.61678C187.127 6.21977 187.523 5.82276 187.92 5.82276C188.316 5.82276 188.713 6.21977 188.713 6.61678V10.4545C188.845 12.1749 187.391 13.7629 185.541 13.7629Z" fill="black"/>
<path d="M195.717 6.61678C195.717 7.14612 195.321 7.54313 194.792 7.54313H194.395V11.9102C194.924 11.9102 195.321 12.3072 195.321 12.8366C195.321 13.3659 194.924 13.7629 194.395 13.7629C193.47 13.7629 192.677 12.9689 192.677 12.0426V7.54313H192.281C191.752 7.54313 191.356 7.14612 191.356 6.61678C191.356 6.08743 191.752 5.69043 192.281 5.69043H192.677V3.44071C192.677 2.91137 193.074 2.51436 193.603 2.51436C194.131 2.51436 194.528 2.91137 194.528 3.44071V5.69043H194.924C195.321 5.82276 195.717 6.21977 195.717 6.61678Z" fill="black"/>
<path d="M198.889 12.5719C198.228 11.9102 197.831 10.8515 197.831 9.79284C197.831 8.73415 198.228 7.8078 198.889 7.01379C199.549 6.21977 200.474 5.82276 201.664 5.82276C202.721 5.82276 203.646 6.21977 204.307 7.01379C204.968 7.8078 205.364 8.73415 205.364 9.79284C205.364 10.8515 204.968 11.9102 204.307 12.5719C203.646 13.3659 202.721 13.7629 201.664 13.7629C200.607 13.7629 199.681 13.3659 198.889 12.5719ZM199.549 9.79284C199.549 10.4545 199.814 10.9839 200.078 11.5132C200.474 11.9102 201.003 12.0426 201.664 12.0426C202.192 12.0426 202.721 11.7779 203.117 11.5132C203.514 11.1162 203.778 10.4545 203.778 9.79284C203.778 9.13116 203.514 8.60182 203.117 8.20481C202.721 7.8078 202.192 7.54313 201.664 7.54313C201.003 7.54313 200.474 7.8078 200.078 8.20481C199.814 8.60182 199.549 9.13116 199.549 9.79284Z" fill="black"/>
<path d="M210.122 5.29343V5.5581H210.65C211.179 5.5581 211.576 5.95511 211.576 6.48445C211.576 7.01379 211.179 7.4108 210.65 7.4108H210.122V12.9689C210.122 13.4983 209.725 13.8953 209.197 13.8953C208.668 13.8953 208.272 13.4983 208.272 12.9689V7.27847H207.875C207.347 7.27847 206.95 6.88146 206.95 6.35211C206.95 5.82277 207.347 5.42576 207.875 5.42576H208.272V5.29343C208.272 4.76408 208.272 4.23474 208.536 3.70539C208.8 3.17605 209.197 2.91138 209.725 2.77904C209.99 2.64671 210.386 2.64671 210.65 2.64671C211.179 2.64671 211.576 3.04371 211.576 3.57306C211.576 4.1024 211.179 4.49941 210.65 4.49941C210.386 4.49941 210.254 4.49941 210.254 4.49941H210.122C210.254 4.49941 210.122 4.63175 210.122 5.29343Z" fill="black"/>
<path d="M215.936 5.29343V5.5581H216.465C216.994 5.5581 217.39 5.95511 217.39 6.48445C217.39 7.01379 216.994 7.4108 216.465 7.4108H215.936V12.9689C215.936 13.4983 215.54 13.8953 215.011 13.8953C214.483 13.8953 214.086 13.4983 214.086 12.9689V7.27847H213.69C213.161 7.27847 212.765 6.88146 212.765 6.35211C212.765 5.82277 213.161 5.42576 213.69 5.42576H214.086V5.29343C214.086 4.76408 214.086 4.23474 214.35 3.70539C214.615 3.17605 215.011 2.91138 215.54 2.77904C215.804 2.64671 216.201 2.64671 216.465 2.64671C216.994 2.64671 217.39 3.04371 217.39 3.57306C217.39 4.1024 216.994 4.49941 216.465 4.49941C216.201 4.49941 216.068 4.49941 216.068 4.49941H215.936C216.068 4.49941 215.936 4.63175 215.936 5.29343Z" fill="black"/>
<path d="M186.202 32.8193C186.07 32.8193 186.07 32.687 186.07 32.5546V30.5696C185.409 31.7606 184.22 32.687 182.766 32.687C180.652 32.687 178.934 30.9666 178.934 28.7169C178.934 26.5995 180.652 24.8792 182.766 24.8792C184.22 24.8792 185.541 25.8055 186.07 26.9965V21.7031C186.07 21.5708 186.202 21.4384 186.202 21.4384C186.334 21.4384 186.467 21.5708 186.467 21.7031V28.4522V28.5846V29.1139V32.687C186.467 32.687 186.334 32.8193 186.202 32.8193ZM186.07 28.7169C186.07 26.8642 184.484 25.4085 182.766 25.4085C180.916 25.4085 179.33 26.9965 179.33 28.8492C179.33 30.8343 180.916 32.4223 182.766 32.4223C184.616 32.4223 186.07 30.8343 186.07 28.8492V28.7169Z" fill="black"/>
<path d="M196.378 25.1438V32.5546C196.378 32.687 196.245 32.8193 196.245 32.8193C196.113 32.8193 195.981 32.687 195.981 32.5546V30.5696C195.32 31.893 194.131 32.687 192.677 32.687C190.695 32.687 188.977 30.9666 188.977 28.8492C188.977 26.7318 190.563 25.0115 192.677 25.0115C194.131 25.0115 195.32 25.9378 195.981 27.1289V25.1438C195.981 25.0115 196.113 24.8791 196.245 24.8791C196.245 25.0115 196.378 25.1438 196.378 25.1438ZM195.981 28.8492C195.981 26.8642 194.527 25.4085 192.677 25.4085C190.827 25.4085 189.374 26.9965 189.374 28.8492C189.374 30.8343 190.827 32.29 192.677 32.29C194.527 32.29 195.981 30.8343 195.981 28.8492Z" fill="black"/>
<path d="M202.324 25.1438C202.324 25.2762 202.192 25.2762 202.06 25.2762H200.738V31.496C200.738 31.893 201.135 32.29 201.531 32.29C201.663 32.29 201.796 32.4223 201.796 32.4223C201.796 32.4223 201.663 32.687 201.531 32.687C200.871 32.687 200.342 32.1576 200.342 31.496V25.2762H199.02C198.888 25.2762 198.756 25.1438 198.756 25.1438C198.756 25.1438 198.888 24.8792 199.02 24.8792H200.342V21.7031C200.342 21.5708 200.474 21.4384 200.474 21.4384C200.474 21.4384 200.738 21.5708 200.738 21.7031V24.8792H202.06C202.192 25.0115 202.324 25.1438 202.324 25.1438Z" fill="black"/>
<path d="M204.835 28.8492C204.835 26.7318 206.553 25.0115 208.668 25.0115C210.65 25.0115 212.236 26.5995 212.368 28.5846C212.368 28.7169 212.236 28.7169 212.236 28.7169H205.364C205.364 30.5696 206.818 32.1576 208.8 32.1576C209.989 32.1576 211.047 31.4959 211.575 30.5696C211.575 30.4373 211.707 30.4373 211.84 30.5696C211.972 30.5696 211.972 30.7019 211.84 30.8343C211.179 31.893 209.989 32.5546 208.668 32.5546C206.553 32.687 204.835 30.9666 204.835 28.8492ZM205.232 28.4522H211.972C211.707 26.7319 210.386 25.4085 208.668 25.4085C206.95 25.4085 205.496 26.7319 205.232 28.4522Z" fill="black"/>
<path d="M215.011 21.8354C215.011 21.7031 215.143 21.5708 215.276 21.5708C215.408 21.5708 215.408 21.7031 215.408 21.8354V30.0403C215.408 30.1726 215.276 30.1726 215.276 30.1726C215.143 30.1726 215.011 30.0403 215.011 30.0403V21.8354ZM215.011 32.1576C215.011 32.0253 215.143 32.0253 215.276 32.0253C215.408 32.0253 215.408 32.1576 215.408 32.1576V32.5547C215.408 32.687 215.276 32.8193 215.276 32.8193C215.143 32.8193 215.011 32.687 215.011 32.5547V32.1576Z" fill="black"/>
<path d="M221.222 193.871C221.222 193.739 221.354 193.607 221.486 193.607H224.658C226.376 193.607 227.698 194.93 227.698 196.65C227.698 198.371 226.244 199.694 224.658 199.694H221.619V204.458C221.619 204.59 221.486 204.723 221.486 204.723C221.486 204.723 221.222 204.59 221.222 204.458V193.871ZM224.658 199.429C226.112 199.429 227.301 198.238 227.301 196.783C227.301 195.327 226.112 194.136 224.658 194.136H221.619V199.562H224.658V199.429Z" fill="black"/>
<path d="M236.816 197.181V204.592C236.816 204.724 236.684 204.856 236.684 204.856C236.551 204.856 236.419 204.724 236.419 204.592V202.606C235.759 203.93 234.569 204.724 233.116 204.724C231.133 204.724 229.415 203.003 229.415 200.886C229.415 198.769 231.001 197.048 233.116 197.048C234.569 197.048 235.759 197.975 236.419 199.166V197.181C236.419 197.048 236.551 196.916 236.684 196.916C236.684 196.916 236.816 197.048 236.816 197.181ZM236.419 200.886C236.419 198.901 234.966 197.445 233.116 197.445C231.265 197.445 229.812 199.033 229.812 200.886C229.812 202.871 231.265 204.327 233.116 204.327C234.966 204.327 236.419 202.739 236.419 200.886Z" fill="black"/>
<path d="M239.988 197.181C239.988 197.048 240.12 196.916 240.252 196.916C240.384 196.916 240.384 197.048 240.384 197.181V201.548C240.384 203.003 241.574 204.327 243.159 204.327C244.613 204.327 245.802 203.136 245.802 201.68V197.181C245.802 197.181 245.802 197.181 245.802 197.048C245.802 197.048 245.802 197.048 245.935 197.048V197.181V204.327C245.935 206.312 244.349 208.032 242.234 208.032C241.706 208.032 241.177 207.9 240.648 207.635C240.516 207.635 240.516 207.503 240.516 207.371C240.516 207.238 240.648 207.238 240.781 207.238C241.177 207.503 241.706 207.635 242.234 207.635C244.084 207.635 245.538 206.18 245.538 204.327V203.136C245.009 204.062 243.952 204.724 242.895 204.724C241.177 204.724 239.723 203.268 239.723 201.548V197.181H239.988Z" fill="black"/>
<path d="M261.661 200.092C261.661 198.504 260.471 197.313 259.018 197.313C257.564 197.313 256.374 198.504 256.242 199.96V200.092V204.459H256.11C255.978 204.459 255.978 204.327 255.978 204.194V199.827C255.978 198.239 254.789 197.048 253.203 197.048C251.749 197.048 250.56 198.239 250.428 199.695V204.194V204.327H250.295C250.163 204.327 250.163 204.194 250.163 204.062V199.695C250.163 199.563 250.163 199.43 250.163 199.298V197.181C250.163 197.048 250.163 196.916 250.295 196.916C250.428 196.916 250.428 197.048 250.428 197.181V198.636C250.956 197.71 252.013 197.048 253.203 197.048C254.524 197.048 255.714 197.842 256.11 199.033C256.507 197.842 257.696 197.048 259.018 197.048C260.735 197.048 262.057 198.504 262.057 200.224V204.592C262.057 204.724 261.925 204.856 261.925 204.856C261.793 204.856 261.661 204.724 261.661 204.592V200.092V200.092Z" fill="black"/>
<path d="M264.436 200.886C264.436 198.769 266.154 197.048 268.268 197.048C270.25 197.048 271.836 198.636 271.968 200.621C271.968 200.754 271.836 200.754 271.836 200.754H264.964C264.964 202.606 266.418 204.195 268.4 204.195C269.59 204.195 270.647 203.533 271.176 202.606C271.176 202.474 271.308 202.474 271.44 202.606C271.572 202.606 271.572 202.739 271.44 202.871C270.779 203.93 269.59 204.592 268.268 204.592C266.154 204.724 264.568 203.004 264.436 200.886ZM264.832 200.489H271.572C271.308 198.769 269.986 197.445 268.268 197.445C266.55 197.445 265.097 198.636 264.832 200.489Z" fill="black"/>
<path d="M280.558 200.092C280.558 198.504 279.369 197.313 277.783 197.313C276.329 197.313 275.008 198.504 275.008 200.092V204.459V204.592L274.876 204.724C274.876 204.724 274.876 204.724 274.876 204.592V200.224V200.092V197.181C274.876 197.048 275.008 197.048 275.14 197.048C275.272 197.048 275.272 197.048 275.272 197.181V198.636C275.801 197.71 276.858 197.048 278.047 197.048C279.765 197.048 281.219 198.504 281.219 200.224V204.592C281.219 204.724 281.087 204.856 280.955 204.856C280.823 204.856 280.823 204.724 280.823 204.592V200.092H280.558Z" fill="black"/>
<path d="M287.034 197.181C287.034 197.313 286.902 197.313 286.77 197.313H285.448V203.533C285.448 203.93 285.845 204.327 286.241 204.327C286.373 204.327 286.505 204.459 286.505 204.459C286.505 204.459 286.373 204.724 286.241 204.724C285.58 204.724 285.052 204.195 285.052 203.533V197.313H283.73C283.598 197.313 283.466 197.181 283.466 197.181C283.466 197.181 283.598 196.916 283.73 196.916H285.052V193.74C285.052 193.608 285.184 193.475 285.184 193.475C285.316 193.475 285.448 193.608 285.448 193.74V196.916H286.77C286.902 196.916 287.034 197.048 287.034 197.181Z" fill="black"/>
<path d="M221.222 222.986V213.59C221.222 213.061 221.619 212.664 222.147 212.664H223.997C227.037 212.664 229.548 215.178 229.548 218.222C229.548 221.266 227.037 223.78 223.997 223.78H222.147C221.619 223.78 221.222 223.383 221.222 222.986ZM223.072 222.06H223.997C226.112 222.06 227.83 220.339 227.83 218.222C227.83 216.105 226.112 214.384 223.997 214.384H223.072V222.06Z" fill="black"/>
<path d="M235.627 223.78C233.777 223.78 232.323 222.325 232.323 220.472V216.634C232.323 216.237 232.719 215.84 233.116 215.84C233.645 215.84 233.909 216.237 233.909 216.634V220.472C233.909 221.398 234.57 222.06 235.495 222.06C236.42 222.06 237.08 221.398 237.213 220.472V216.634C237.213 216.237 237.609 215.84 238.006 215.84C238.402 215.84 238.798 216.237 238.798 216.634V220.472C238.931 222.325 237.477 223.78 235.627 223.78Z" fill="black"/>
<path d="M241.706 219.81C241.706 217.693 243.424 215.84 245.538 215.84C247.653 215.84 249.238 217.428 249.371 219.545C249.371 219.545 249.371 219.546 249.371 219.678C249.371 219.81 249.371 219.81 249.371 219.81C249.371 220.207 248.974 220.472 248.578 220.472H243.556C243.688 220.869 243.82 221.266 244.085 221.531C244.481 221.928 245.01 222.192 245.67 222.192C246.199 222.192 246.86 222.06 247.256 221.795C247.653 221.398 248.181 221.531 248.446 221.795C248.71 222.06 248.842 222.457 248.446 222.854C247.653 223.516 246.728 223.913 245.67 223.913C243.292 223.78 241.706 221.928 241.706 219.81ZM243.424 219.016H247.917C247.785 218.354 246.992 217.428 245.538 217.296C244.217 217.428 243.556 218.354 243.424 219.016Z" fill="black"/>
<path d="M263.775 222.986C263.775 223.383 263.379 223.78 262.982 223.78C262.586 223.78 262.189 223.516 262.189 223.119C261.529 223.516 260.868 223.78 260.075 223.78C257.96 223.78 256.242 221.928 256.242 219.81C256.242 217.693 257.96 215.84 260.075 215.84C260.868 215.84 261.661 216.105 262.189 216.502V213.458C262.189 213.061 262.586 212.664 263.114 212.664C263.643 212.664 263.907 213.061 263.907 213.458V219.81V222.986H263.775ZM259.943 217.56C259.414 217.56 258.885 217.825 258.489 218.222C258.093 218.619 257.828 219.148 257.828 219.81C257.828 220.472 258.093 221.001 258.489 221.398C258.885 221.795 259.414 222.06 259.943 222.06C260.471 222.06 261 221.795 261.396 221.398C261.793 221.001 262.057 220.472 262.057 219.81C262.057 219.148 261.793 218.619 261.396 218.222C261 217.825 260.471 217.56 259.943 217.56Z" fill="black"/>
<path d="M273.818 219.81V222.986C273.818 223.383 273.422 223.78 273.025 223.78C272.629 223.78 272.232 223.516 272.232 223.119C271.572 223.516 270.911 223.78 270.118 223.78C269.061 223.78 268.136 223.383 267.475 222.589C266.814 221.795 266.418 220.869 266.418 219.81C266.418 218.751 266.814 217.693 267.475 217.031C268.136 216.237 269.061 215.84 270.118 215.84C270.911 215.84 271.572 216.105 272.232 216.502C272.365 216.105 272.629 215.84 273.025 215.84C273.422 215.84 273.818 216.237 273.818 216.634V219.81ZM272.1 219.81C272.1 219.149 271.836 218.619 271.439 218.222C271.043 217.825 270.514 217.56 269.986 217.56C269.457 217.56 268.929 217.825 268.532 218.222C268.136 218.619 267.871 219.149 267.871 219.81C267.871 220.472 268.136 221.001 268.532 221.398C268.929 221.795 269.457 222.06 269.986 222.06C270.514 222.06 271.043 221.795 271.439 221.398C271.836 221.134 272.1 220.472 272.1 219.81Z" fill="black"/>
<path d="M283.334 216.766V220.472V222.722C283.334 224.839 281.616 226.559 279.501 226.559C278.973 226.559 278.312 226.427 277.916 226.162C277.519 226.03 277.255 225.501 277.519 224.971C277.783 224.574 278.312 224.442 278.709 224.574C278.973 224.707 279.369 224.839 279.634 224.839C280.559 224.839 281.352 224.177 281.616 223.383C281.219 223.648 280.691 223.78 280.162 223.78C278.312 223.78 276.858 222.325 276.858 220.472V216.766C276.858 216.237 277.255 215.972 277.651 215.972C278.18 215.972 278.444 216.369 278.444 216.766V220.472C278.444 221.398 279.237 222.06 280.03 222.06C280.823 222.06 281.616 221.398 281.616 220.472V216.766C281.616 216.237 282.012 215.972 282.409 215.972C282.937 215.84 283.334 216.237 283.334 216.766Z" fill="black"/>
<path d="M444.823 148.084C438.876 148.084 433.987 143.188 433.987 137.232C433.987 131.277 438.876 126.381 444.823 126.381C450.77 126.381 455.659 131.277 455.659 137.232C455.659 143.188 450.77 148.084 444.823 148.084ZM444.823 127.837C439.537 127.837 435.308 132.071 435.308 137.365C435.308 142.658 439.537 146.893 444.823 146.893C450.109 146.893 454.338 142.658 454.338 137.365C454.338 132.071 450.109 127.837 444.823 127.837Z" fill="#253546"/>
<path d="M444.823 141.6C447.159 141.6 449.052 139.704 449.052 137.365C449.052 135.026 447.159 133.13 444.823 133.13C442.488 133.13 440.594 135.026 440.594 137.365C440.594 139.704 442.488 141.6 444.823 141.6Z" fill="#253546"/>
<path d="M444.823 137.365V227.486" stroke="#253546" stroke-miterlimit="10"/>
<path d="M375.311 196.122C375.972 196.122 376.501 196.651 376.501 197.313C376.501 197.975 375.972 198.504 375.311 198.504C374.651 198.504 374.122 197.975 374.122 197.313C374.254 196.651 374.783 196.122 375.311 196.122ZM375.311 202.474C375.972 202.474 376.501 203.003 376.501 203.665C376.501 204.327 375.972 204.856 375.311 204.856C374.651 204.856 374.122 204.327 374.122 203.665C374.254 203.003 374.783 202.474 375.311 202.474Z" fill="black"/>
<path d="M378.88 203.533C378.219 202.871 377.823 201.812 377.823 200.754C377.823 199.695 378.219 198.769 378.88 197.975C379.541 197.181 380.466 196.784 381.655 196.784C382.712 196.784 383.637 197.181 384.298 197.975C384.959 198.769 385.355 199.695 385.355 200.754C385.355 201.812 384.959 202.871 384.298 203.533C383.637 204.327 382.712 204.724 381.655 204.724C380.466 204.856 379.541 204.327 378.88 203.533ZM379.408 200.754C379.408 201.415 379.673 201.945 379.937 202.474C380.333 202.871 380.862 203.003 381.523 203.003C382.051 203.003 382.58 202.739 382.976 202.474C383.373 202.077 383.637 201.415 383.637 200.754C383.637 200.092 383.373 199.563 382.976 199.166C382.58 198.769 382.051 198.504 381.523 198.504C380.862 198.504 380.333 198.769 379.937 199.166C379.673 199.563 379.408 200.092 379.408 200.754Z" fill="black"/>
<path d="M398.174 193.475C399.495 193.475 400.817 194.005 401.742 194.666C401.874 194.799 401.874 194.931 401.742 194.931C401.61 195.063 401.478 195.063 401.478 194.931C400.553 194.269 399.363 193.74 398.174 193.74C395.266 193.74 392.888 196.122 392.888 198.901C392.888 201.812 395.266 204.194 398.174 204.194C399.495 204.194 400.553 203.797 401.478 203.003C401.61 203.003 401.742 203.003 401.742 203.003C401.874 203.136 401.742 203.268 401.742 203.268C400.685 204.062 399.495 204.459 398.174 204.459C395.002 204.459 392.359 201.945 392.359 198.769C392.491 195.99 395.002 193.475 398.174 193.475Z" fill="black"/>
<path d="M405.045 200.886V197.181C405.045 197.048 405.178 196.916 405.178 196.916C405.31 196.916 405.31 197.048 405.31 197.181V199.827C405.442 199.563 405.574 199.166 405.838 198.901C406.499 197.975 407.424 196.916 408.878 196.916C409.01 196.916 409.142 197.048 409.142 197.181C409.142 197.313 409.01 197.445 408.878 197.445C407.953 197.445 407.16 197.975 406.631 198.504C406.103 199.166 405.706 199.96 405.442 200.489C405.31 200.886 405.31 201.018 405.31 201.018V204.591C405.31 204.724 405.31 204.856 405.178 204.856C405.045 204.856 405.045 204.724 405.045 204.591V200.886Z" fill="black"/>
<path d="M410.596 200.886C410.596 198.769 412.314 197.048 414.429 197.048C416.411 197.048 417.997 198.636 418.129 200.621C418.129 200.754 417.997 200.754 417.997 200.754H410.993C410.993 202.606 412.446 204.194 414.429 204.194C415.618 204.194 416.675 203.533 417.204 202.606C417.204 202.474 417.336 202.474 417.468 202.606C417.6 202.606 417.6 202.739 417.468 202.871C416.807 203.93 415.618 204.591 414.296 204.591C412.314 204.724 410.596 203.003 410.596 200.886ZM410.993 200.489H417.732C417.468 198.769 416.147 197.445 414.429 197.445C412.711 197.445 411.257 198.636 410.993 200.489Z" fill="black"/>
<path d="M427.644 204.724C427.512 204.724 427.512 204.591 427.512 204.459V202.474C426.851 203.665 425.662 204.591 424.208 204.591C422.093 204.591 420.375 202.871 420.375 200.621C420.375 198.504 422.093 196.784 424.208 196.784C425.662 196.784 426.983 197.71 427.512 198.901V193.608C427.512 193.475 427.644 193.343 427.644 193.343C427.776 193.343 427.908 193.475 427.908 193.608V200.357V200.489V200.621V204.194C427.776 204.591 427.776 204.724 427.644 204.724ZM427.38 200.754C427.38 198.901 425.794 197.445 424.076 197.445C422.226 197.445 420.64 199.033 420.64 200.886C420.64 202.871 422.226 204.459 424.076 204.459C425.926 204.459 427.38 202.871 427.38 200.886V200.754Z" fill="black"/>
<path d="M431.344 194.666C431.344 194.534 431.476 194.402 431.609 194.402C431.741 194.402 431.741 194.534 431.741 194.666V195.063C431.741 195.196 431.609 195.196 431.609 195.196C431.476 195.196 431.344 195.063 431.344 195.063V194.666ZM431.344 197.181C431.344 197.048 431.476 197.048 431.609 197.048C431.741 197.048 431.741 197.048 431.741 197.181V204.591C431.741 204.724 431.609 204.856 431.609 204.856C431.476 204.856 431.344 204.724 431.344 204.591V197.181Z" fill="black"/>
<path d="M438.348 197.181C438.348 197.313 438.215 197.313 438.083 197.313H436.762V203.533C436.762 203.93 437.158 204.327 437.555 204.327C437.687 204.327 437.819 204.459 437.819 204.459C437.819 204.459 437.687 204.724 437.555 204.724C436.894 204.724 436.365 204.194 436.365 203.533V197.313H435.044C434.912 197.313 434.78 197.181 434.78 197.181C434.78 197.181 434.912 196.916 435.044 196.916H436.365V193.74C436.365 193.608 436.497 193.475 436.497 193.475C436.497 193.475 436.762 193.608 436.762 193.74V196.916H438.083C438.215 196.916 438.348 197.048 438.348 197.181Z" fill="black"/>
<path d="M380.862 222.986V213.59C380.862 213.061 381.258 212.664 381.787 212.664H384.034C385.752 212.664 387.073 213.987 387.073 215.708C387.073 216.369 386.809 217.031 386.412 217.56C387.337 218.222 387.998 219.281 387.998 220.472C387.998 222.325 386.412 223.913 384.562 223.913H381.787C381.258 223.78 380.862 223.383 380.862 222.986ZM382.58 217.031H383.902C384.562 217.031 385.091 216.502 385.091 215.708C385.091 215.046 384.562 214.517 383.902 214.517H382.58V217.031ZM382.58 222.06H384.562C385.487 222.06 386.148 221.266 386.148 220.472C386.148 219.545 385.355 218.884 384.562 218.884H382.58V222.06Z" fill="black"/>
<path d="M393.152 223.78C391.302 223.78 389.848 222.324 389.848 220.472V216.634C389.848 216.237 390.244 215.84 390.641 215.84C391.169 215.84 391.434 216.237 391.434 216.634V220.472C391.434 221.398 392.094 222.06 393.02 222.06C393.945 222.06 394.605 221.398 394.738 220.472V216.634C394.738 216.237 395.134 215.84 395.53 215.84C395.927 215.84 396.323 216.237 396.323 216.634V220.472C396.588 222.324 395.002 223.78 393.152 223.78Z" fill="black"/>
<path d="M404.649 216.766C404.649 217.163 404.253 217.56 403.856 217.56C403.46 217.56 403.196 217.693 402.931 217.825C402.667 217.957 402.403 218.222 402.138 218.619C401.742 219.148 401.61 219.678 401.478 219.942V222.986C401.478 223.383 401.081 223.78 400.553 223.78C400.156 223.78 399.76 223.383 399.76 222.986V216.766C399.76 216.369 400.156 215.972 400.553 215.972C401.081 215.972 401.478 216.369 401.478 216.766V216.899C401.61 216.766 401.742 216.634 401.874 216.634C402.403 216.237 403.064 215.972 403.856 215.972C404.253 215.84 404.649 216.237 404.649 216.766Z" fill="black"/>
<path d="M405.442 219.81C405.442 217.693 407.16 215.84 409.275 215.84C411.389 215.84 412.975 217.428 413.107 219.545C413.107 219.545 413.107 219.545 413.107 219.678C413.107 219.81 413.107 219.81 413.107 219.81C413.107 220.207 412.711 220.472 412.314 220.472H407.292C407.424 220.869 407.557 221.266 407.821 221.53C408.217 221.927 408.746 222.192 409.407 222.192C409.935 222.192 410.596 222.06 410.993 221.795C411.389 221.398 411.918 221.53 412.182 221.795C412.446 222.06 412.578 222.457 412.182 222.854C411.389 223.515 410.464 223.913 409.407 223.913C407.028 223.78 405.442 221.927 405.442 219.81ZM407.16 219.016H411.653C411.521 218.354 410.728 217.428 409.275 217.296C407.953 217.428 407.292 218.354 407.16 219.016Z" fill="black"/>
<path d="M422.358 219.81V222.986C422.358 223.383 421.961 223.78 421.565 223.78C421.168 223.78 420.772 223.516 420.772 223.119C420.111 223.516 419.45 223.78 418.657 223.78C417.6 223.78 416.675 223.383 416.014 222.589C415.353 221.795 414.957 220.869 414.957 219.81C414.957 218.751 415.353 217.693 416.014 217.031C416.675 216.237 417.6 215.84 418.657 215.84C419.45 215.84 420.111 216.105 420.772 216.502C420.904 216.105 421.168 215.84 421.565 215.84C421.961 215.84 422.358 216.237 422.358 216.634V219.81ZM420.64 219.81C420.64 219.148 420.375 218.619 419.979 218.222C419.582 217.825 419.054 217.56 418.525 217.56C417.997 217.56 417.468 217.825 417.071 218.222C416.675 218.619 416.411 219.148 416.411 219.81C416.411 220.472 416.675 221.001 417.071 221.398C417.468 221.795 417.997 222.06 418.525 222.06C419.054 222.06 419.582 221.795 419.979 221.398C420.375 221.133 420.64 220.472 420.64 219.81Z" fill="black"/>
<path d="M430.287 216.766C430.287 217.163 429.89 217.56 429.494 217.56C429.097 217.56 428.833 217.693 428.569 217.825C428.305 217.957 428.04 218.222 427.776 218.619C427.38 219.148 427.247 219.678 427.115 219.942V222.986C427.115 223.383 426.719 223.78 426.19 223.78C425.794 223.78 425.397 223.383 425.397 222.986V216.766C425.397 216.369 425.794 215.972 426.19 215.972C426.719 215.972 427.115 216.369 427.115 216.766V216.899C427.247 216.766 427.38 216.634 427.512 216.634C428.04 216.237 428.701 215.972 429.494 215.972C429.89 215.84 430.287 216.237 430.287 216.766Z" fill="black"/>
<path d="M435.441 223.78C433.59 223.78 432.137 222.324 432.137 220.472V216.634C432.137 216.237 432.533 215.84 432.93 215.84C433.458 215.84 433.723 216.237 433.723 216.634V220.472C433.723 221.398 434.383 222.06 435.308 222.06C436.233 222.06 436.894 221.398 437.026 220.472V216.634C437.026 216.237 437.423 215.84 437.819 215.84C438.216 215.84 438.612 216.237 438.612 216.634V220.472C438.876 222.324 437.291 223.78 435.441 223.78Z" fill="black"/>
<path d="M303.024 5.69045H296.681V10.8516C296.681 10.9839 296.549 11.1162 296.549 11.1162C296.417 11.1162 296.285 10.9839 296.285 10.8516V0.264672C296.285 0.132336 296.417 0 296.549 0C296.681 0 296.681 0.132336 296.681 0.264672V5.29344H303.024V0.264672C303.024 0.132336 303.157 0 303.157 0C303.157 0 303.421 0.132336 303.421 0.264672V10.9839C303.421 11.1162 303.289 11.2486 303.157 11.2486C303.024 11.2486 303.024 11.1162 303.024 10.9839V5.69045Z" fill="black"/>
<path d="M306.857 7.27848C306.857 5.1611 308.575 3.44073 310.689 3.44073C312.671 3.44073 314.257 5.02877 314.389 7.01381C314.389 7.14614 314.257 7.14614 314.257 7.14614H307.385C307.385 8.99885 308.839 10.5869 310.821 10.5869C312.011 10.5869 313.068 9.9252 313.596 8.99885C313.596 8.86651 313.729 8.86651 313.861 8.99885C313.993 8.99885 313.993 9.13118 313.861 9.26352C313.2 10.3222 312.011 10.9839 310.689 10.9839C308.575 11.1162 306.857 9.39586 306.857 7.27848ZM307.253 6.74914H313.993C313.729 5.02877 312.407 3.70541 310.689 3.70541C308.971 3.70541 307.517 5.02877 307.253 6.74914Z" fill="black"/>
<path d="M316.768 7.27848V3.57307C316.768 3.44073 316.9 3.3084 316.9 3.3084C317.032 3.3084 317.032 3.44073 317.032 3.57307V6.21979C317.164 5.95512 317.296 5.55811 317.561 5.29344C318.222 4.36708 319.147 3.3084 320.6 3.3084C320.732 3.3084 320.865 3.44073 320.865 3.57307C320.865 3.7054 320.732 3.83774 320.6 3.83774C319.675 3.83774 318.882 4.36708 318.354 4.89643C317.825 5.55811 317.429 6.35212 317.164 6.88147C317.164 7.14614 317.164 7.27848 317.164 7.27848V10.8515C317.164 10.9839 317.164 11.1162 317.032 11.1162C316.9 11.1162 316.9 10.9839 316.9 10.8515V7.27848H316.768Z" fill="black"/>
<path d="M322.318 7.27848C322.318 5.1611 324.036 3.44073 326.151 3.44073C328.133 3.44073 329.719 5.02877 329.851 7.01381C329.851 7.14614 329.719 7.14614 329.719 7.14614H322.847C322.847 8.99885 324.301 10.5869 326.283 10.5869C327.472 10.5869 328.53 9.9252 329.058 8.99885C329.058 8.86651 329.19 8.86651 329.322 8.99885C329.455 8.99885 329.455 9.13118 329.322 9.26352C328.662 10.3222 327.472 10.9839 326.151 10.9839C324.036 11.1162 322.451 9.39586 322.318 7.27848ZM322.847 6.74914H329.587C329.322 5.02877 328.001 3.70541 326.283 3.70541C324.433 3.70541 322.979 5.02877 322.847 6.74914Z" fill="black"/>
<path d="M336.723 3.57307C336.723 3.44073 336.855 3.3084 336.987 3.3084C337.119 3.3084 337.119 3.44073 337.119 3.57307V7.94016C337.119 9.39585 338.309 10.7192 339.895 10.7192C341.348 10.7192 342.538 9.52819 342.538 8.07249V3.57307C342.538 3.57307 342.538 3.57307 342.538 3.44073C342.538 3.44073 342.538 3.44073 342.67 3.44073V3.57307V10.7192C342.67 12.7043 341.084 14.4246 338.97 14.4246C338.441 14.4246 337.912 14.2923 337.384 14.0276C337.252 14.0276 337.252 13.8953 337.252 13.7629C337.252 13.6306 337.384 13.6306 337.516 13.6306C337.912 13.8953 338.441 14.0276 338.97 14.0276C340.82 14.0276 342.273 12.5719 342.273 10.7192V9.52819C341.745 10.4545 340.688 11.1162 339.63 11.1162C337.912 11.1162 336.459 9.66052 336.459 7.94016V3.57307H336.723Z" fill="black"/>
<path d="M349.542 3.3084C351.524 3.3084 353.242 5.02876 353.242 7.14614C353.242 9.26352 351.656 10.9839 349.542 10.9839C347.427 10.9839 345.842 9.26352 345.842 7.14614C345.842 5.02876 347.427 3.3084 349.542 3.3084ZM349.542 10.7192C351.392 10.7192 352.846 9.13118 352.846 7.27848C352.846 5.29344 351.392 3.83774 349.542 3.83774C347.692 3.83774 346.238 5.42577 346.238 7.27848C346.238 9.13118 347.692 10.7192 349.542 10.7192Z" fill="black"/>
<path d="M355.62 3.57307C355.62 3.44073 355.752 3.3084 355.885 3.3084C356.017 3.3084 356.017 3.44073 356.017 3.57307V7.94016C356.017 9.52819 357.206 10.7192 358.792 10.7192C360.246 10.7192 361.567 9.52819 361.567 7.94016V3.57307C361.567 3.44073 361.699 3.3084 361.831 3.3084C361.964 3.3084 362.096 3.44073 362.096 3.57307V7.94016C362.096 9.66052 360.642 11.1162 358.924 11.1162C357.206 11.1162 355.753 9.66052 355.753 7.94016V3.57307H355.62Z" fill="black"/>
<path d="M328.133 28.9816C328.001 28.8493 328.001 28.7169 328.133 28.7169C328.265 28.5846 328.397 28.5846 328.397 28.7169C328.397 28.7169 329.586 29.7756 331.04 29.7756C332.494 29.7756 333.551 28.9816 333.551 27.9229C333.551 26.7319 332.362 26.4672 331.172 26.2025C329.983 25.9379 328.529 25.5409 328.529 24.0852C328.529 23.0265 329.586 22.2325 331.04 22.2325C332.626 22.2325 333.419 23.1588 333.419 23.1588C333.551 23.2911 333.419 23.4235 333.419 23.4235C333.287 23.5558 333.155 23.4235 333.155 23.4235C333.155 23.4235 332.362 22.6295 331.04 22.6295C329.851 22.6295 329.058 23.2911 329.058 24.0852C329.058 25.2762 330.115 25.4085 331.437 25.8055C332.758 26.0702 334.08 26.4672 334.08 27.9229C334.08 29.1139 332.758 30.1726 331.04 30.1726C329.454 30.1726 328.133 29.1139 328.133 28.9816Z" fill="black"/>
<path d="M339.234 22.6295C339.234 22.7618 339.102 22.7618 338.97 22.7618H337.648V28.9816C337.648 29.3786 338.045 29.7756 338.441 29.7756C338.573 29.7756 338.705 29.9079 338.705 29.9079C338.705 29.9079 338.573 30.1726 338.441 30.1726C337.78 30.1726 337.252 29.6433 337.252 28.9816V22.7618H335.93C335.798 22.7618 335.666 22.6295 335.666 22.6295C335.666 22.6295 335.798 22.3648 335.93 22.3648H337.252V19.1887C337.252 19.0564 337.384 18.9241 337.384 18.9241C337.384 18.9241 337.648 19.0564 337.648 19.1887V22.3648H338.97C339.102 22.3648 339.234 22.4971 339.234 22.6295Z" fill="black"/>
<path d="M348.881 22.6295V30.0403C348.881 30.1726 348.749 30.3049 348.749 30.3049C348.617 30.3049 348.485 30.1726 348.485 30.0403V28.0552C347.824 29.3786 346.634 30.1726 345.181 30.1726C343.198 30.1726 341.48 28.4522 341.48 26.3349C341.48 24.2175 343.066 22.4971 345.181 22.4971C346.634 22.4971 347.824 23.4235 348.485 24.6145V22.6295C348.485 22.4971 348.617 22.3648 348.749 22.3648C348.881 22.3648 348.881 22.4971 348.881 22.6295ZM348.485 26.3349C348.485 24.3498 347.031 22.8941 345.181 22.8941C343.331 22.8941 341.877 24.4822 341.877 26.3349C341.877 28.3199 343.331 29.7756 345.181 29.7756C347.031 29.7756 348.485 28.1876 348.485 26.3349Z" fill="black"/>
<path d="M352.317 26.3349V22.6295C352.317 22.4971 352.449 22.3648 352.449 22.3648C352.581 22.3648 352.581 22.4971 352.581 22.6295V25.2762C352.713 25.0115 352.845 24.6145 353.11 24.3498C353.77 23.4235 354.695 22.3648 356.149 22.3648C356.281 22.3648 356.413 22.4971 356.413 22.6295C356.413 22.7618 356.281 22.8941 356.149 22.8941C355.224 22.8941 354.431 23.4235 353.902 23.9528C353.374 24.6145 352.977 25.4085 352.713 25.9379C352.581 26.3349 352.581 26.4672 352.581 26.4672V30.0403C352.581 30.1726 352.581 30.3049 352.449 30.3049C352.317 30.3049 352.317 30.1726 352.317 30.0403V26.3349Z" fill="black"/>
<path d="M361.832 22.6295C361.832 22.7618 361.7 22.7618 361.567 22.7618H360.246V28.9816C360.246 29.3786 360.642 29.7756 361.039 29.7756C361.171 29.7756 361.303 29.9079 361.303 29.9079C361.303 29.9079 361.171 30.1726 361.039 30.1726C360.378 30.1726 359.849 29.6433 359.849 28.9816V22.7618H358.528C358.396 22.7618 358.264 22.6295 358.264 22.6295C358.264 22.6295 358.396 22.3648 358.528 22.3648H359.849V19.1887C359.849 19.0564 359.982 18.9241 359.982 18.9241C360.114 18.9241 360.246 19.0564 360.246 19.1887V22.3648H361.567C361.7 22.3648 361.832 22.4971 361.832 22.6295Z" fill="black"/>
<path d="M310.821 45.3913V45.2589V45.1266V41.6858C310.821 41.5535 310.953 41.4212 311.085 41.4212C311.217 41.4212 311.218 41.5535 311.218 41.6858V43.6709C311.878 42.3475 313.068 41.5535 314.521 41.5535C316.636 41.5535 318.222 43.2739 318.222 45.3913C318.222 47.5086 316.636 49.229 314.521 49.229C313.068 49.229 311.746 48.3026 311.218 47.1116V52.5374C311.218 52.6697 311.085 52.8021 311.085 52.8021C310.953 52.8021 310.821 52.6697 310.821 52.5374V45.3913ZM311.218 45.2589C311.218 47.1116 312.671 48.6997 314.521 48.6997C316.371 48.6997 317.825 47.1116 317.825 45.2589C317.825 43.4062 316.371 41.8182 314.521 41.8182C312.803 41.8182 311.218 43.2739 311.218 45.1266V45.2589Z" fill="black"/>
<path d="M327.737 41.6858V48.9643C327.737 49.0967 327.605 49.229 327.605 49.229C327.472 49.229 327.34 49.0967 327.34 48.9643V46.9793C326.679 48.3026 325.49 49.0967 324.036 49.0967C322.054 49.0967 320.336 47.3763 320.336 45.2589C320.336 43.1415 321.922 41.4212 324.036 41.4212C325.49 41.4212 326.679 42.3475 327.34 43.5385V41.5535C327.34 41.4212 327.472 41.2888 327.605 41.2888C327.737 41.4212 327.737 41.5535 327.737 41.6858ZM327.34 45.3912C327.34 43.4062 325.887 41.9505 324.036 41.9505C322.186 41.9505 320.733 43.5385 320.733 45.3912C320.733 47.3763 322.186 48.832 324.036 48.832C325.887 48.832 327.34 47.2439 327.34 45.3912Z" fill="black"/>
<path d="M330.908 41.6858C330.908 41.5535 331.041 41.4212 331.173 41.4212C331.305 41.4212 331.305 41.5535 331.305 41.6858V46.0529C331.305 47.5086 332.494 48.832 334.08 48.832C335.534 48.832 336.723 47.641 336.723 46.1853V41.6858C336.723 41.6858 336.723 41.6858 336.723 41.5535C336.723 41.5535 336.723 41.5535 336.855 41.5535V41.6858V48.832C336.855 50.817 335.269 52.5374 333.155 52.5374C332.626 52.5374 332.098 52.4051 331.569 52.1404C331.437 52.1404 331.437 52.0081 331.437 51.8757C331.437 51.7434 331.569 51.7434 331.701 51.7434C332.098 52.0081 332.626 52.1404 333.155 52.1404C335.005 52.1404 336.459 50.6847 336.459 48.832V47.641C335.93 48.5673 334.873 49.229 333.816 49.229C332.098 49.229 330.644 47.7733 330.644 46.0529V41.6858H330.908Z" fill="black"/>
<path d="M340.952 39.1715C340.952 39.0391 341.084 38.9068 341.216 38.9068C341.349 38.9068 341.349 39.0391 341.349 39.1715V39.5685C341.349 39.7008 341.216 39.7008 341.216 39.7008C341.084 39.7008 340.952 39.5685 340.952 39.5685V39.1715ZM340.952 41.6858C340.952 41.5535 341.084 41.5535 341.216 41.5535C341.349 41.5535 341.349 41.5535 341.349 41.6858V48.9643C341.349 49.0967 341.216 49.229 341.216 49.229C341.084 49.229 340.952 49.0967 340.952 48.9643V41.6858Z" fill="black"/>
<path d="M351.26 44.5972C351.26 43.0092 350.07 41.8182 348.485 41.8182C347.031 41.8182 345.709 43.0092 345.709 44.5972V48.9643V49.0967L345.577 49.229C345.577 49.229 345.577 49.229 345.577 49.0967V44.7296V44.5972V41.8182C345.577 41.6858 345.709 41.6858 345.841 41.6858C345.974 41.6858 345.974 41.6858 345.974 41.8182V43.2739C346.502 42.3475 347.559 41.6858 348.749 41.6858C350.467 41.6858 351.92 43.1415 351.92 44.8619V48.9643C351.92 49.0967 351.788 49.229 351.656 49.229C351.524 49.229 351.524 49.0967 351.524 48.9643V44.5972H351.26Z" fill="black"/>
<path d="M361.964 41.6858V48.832C361.964 50.817 360.378 52.5374 358.264 52.5374C357.735 52.5374 357.207 52.4051 356.678 52.1404C356.546 52.1404 356.546 52.0081 356.546 51.8757C356.546 51.7434 356.678 51.7434 356.81 51.7434C357.207 52.0081 357.735 52.1404 358.264 52.1404C360.114 52.1404 361.568 50.6847 361.568 48.832V47.1116C361.039 48.3026 359.718 49.229 358.264 49.229C356.282 49.229 354.564 47.5086 354.564 45.3913C354.564 43.2739 356.15 41.5535 358.264 41.5535C359.718 41.5535 360.907 42.4799 361.568 43.6709V41.6858C361.568 41.5535 361.7 41.4212 361.7 41.4212C361.832 41.4212 361.964 41.5535 361.964 41.6858ZM358.264 41.8182C356.414 41.8182 354.96 43.4062 354.96 45.2589C354.96 47.1116 356.414 48.6997 358.264 48.6997C360.114 48.6997 361.568 47.1116 361.568 45.2589C361.568 43.4062 359.982 41.8182 358.264 41.8182Z" fill="black"/>
<path d="M306.064 58.0955C306.064 57.5662 306.46 57.1692 306.989 57.1692C307.517 57.1692 307.914 57.5662 307.914 58.0955V67.4914C307.914 68.0207 307.517 68.4177 306.989 68.4177C306.46 68.4177 306.064 68.0207 306.064 67.4914V58.0955Z" fill="black"/>
<path d="M317.164 63.6536V67.4914C317.164 67.8884 316.768 68.2854 316.371 68.2854C315.975 68.2854 315.579 67.8884 315.579 67.4914V63.6536C315.579 62.7273 314.786 62.0656 313.993 62.0656C313.068 62.0656 312.407 62.7273 312.407 63.6536V67.4914V67.6237C312.275 68.0207 312.01 68.2854 311.614 68.2854C311.085 68.2854 310.821 67.8884 310.821 67.4914V63.6536V61.1393C310.821 60.7422 311.218 60.3452 311.614 60.3452C312.01 60.3452 312.275 60.4776 312.407 60.8746C312.935 60.6099 313.464 60.3452 314.125 60.3452C315.711 60.3452 317.164 61.8009 317.164 63.6536Z" fill="black"/>
<path d="M323.904 61.2716C323.904 61.8009 323.508 62.1979 322.979 62.1979H322.583V66.565C323.112 66.565 323.508 66.962 323.508 67.4914C323.508 68.0207 323.112 68.4177 322.583 68.4177C321.658 68.4177 320.865 67.6237 320.865 66.6974V62.3303H320.469C319.94 62.3303 319.543 61.9333 319.543 61.4039C319.543 60.8746 319.94 60.4776 320.469 60.4776H320.865V58.2279C320.865 57.6985 321.261 57.3015 321.79 57.3015C322.319 57.3015 322.715 57.6985 322.715 58.2279V60.4776H323.112C323.508 60.3452 323.904 60.7422 323.904 61.2716Z" fill="black"/>
<path d="M325.49 64.3153C325.49 62.1979 327.208 60.3452 329.322 60.3452C331.437 60.3452 333.023 61.9333 333.155 64.0506C333.155 64.0506 333.155 64.0506 333.155 64.183C333.155 64.3153 333.155 64.3153 333.155 64.3153C333.155 64.7123 332.758 64.977 332.362 64.977H327.34C327.472 65.374 327.604 65.771 327.869 66.0357C328.265 66.4327 328.794 66.6974 329.455 66.6974C329.983 66.6974 330.644 66.565 331.04 66.3004C331.437 65.9033 331.965 66.0357 332.23 66.3004C332.494 66.565 332.626 66.962 332.23 67.359C331.437 68.0207 330.512 68.4177 329.455 68.4177C327.208 68.2854 325.49 66.4327 325.49 64.3153ZM327.208 63.5213H331.701C331.569 62.8596 330.776 61.9333 329.322 61.8009C328.001 61.9333 327.34 62.8596 327.208 63.5213Z" fill="black"/>
<path d="M340.291 61.1392C340.291 61.5363 339.895 61.9333 339.499 61.9333C339.102 61.9333 338.838 62.0656 338.574 62.1979C338.309 62.3303 338.045 62.5949 337.781 62.9919C337.384 63.5213 337.252 64.0506 337.12 64.3153V67.4914C337.12 67.8884 336.723 68.2854 336.195 68.2854C335.798 68.2854 335.402 67.8884 335.402 67.4914V61.2716C335.402 60.8746 335.798 60.4776 336.195 60.4776C336.723 60.4776 337.12 60.8746 337.12 61.2716V61.4039C337.252 61.2716 337.384 61.1392 337.516 61.1392C338.045 60.7422 338.706 60.4776 339.499 60.4776C339.895 60.3452 340.291 60.7422 340.291 61.1392Z" fill="black"/>
<path d="M340.952 64.3153C340.952 62.1979 342.67 60.3452 344.785 60.3452C346.899 60.3452 348.485 61.9333 348.617 64.0506C348.617 64.0506 348.617 64.0506 348.617 64.183C348.617 64.3153 348.617 64.3153 348.617 64.3153C348.617 64.7123 348.221 64.977 347.824 64.977H342.802C342.934 65.374 343.067 65.771 343.331 66.0357C343.727 66.4327 344.256 66.6974 344.917 66.6974C345.445 66.6974 346.106 66.565 346.503 66.3004C346.899 65.9033 347.428 66.0357 347.692 66.3004C347.956 66.565 348.088 66.962 347.692 67.359C346.899 68.0207 345.974 68.4177 344.917 68.4177C342.67 68.2854 340.952 66.4327 340.952 64.3153ZM342.67 63.5213H347.163C347.031 62.8596 346.238 61.9333 344.785 61.8009C343.463 61.9333 342.802 62.8596 342.67 63.5213Z" fill="black"/>
<path d="M350.863 66.0357C351.128 65.6387 351.656 65.6387 352.053 65.9033C352.449 66.3003 353.242 66.565 353.771 66.565C354.167 66.565 354.564 66.4327 354.828 66.3003C355.092 66.168 355.092 65.9033 355.092 65.771C355.092 65.6387 355.092 65.6387 355.092 65.6387C355.092 65.6387 354.96 65.5063 354.828 65.5063C354.564 65.374 354.167 65.1093 353.506 65.1093C352.978 64.977 352.581 64.8446 352.185 64.7123C351.788 64.4476 351.392 64.183 351.128 63.786C350.995 63.5213 350.863 63.1243 350.863 62.7273C350.863 61.9333 351.26 61.4039 351.788 61.0069C352.317 60.6099 352.978 60.4776 353.771 60.4776C354.828 60.4776 355.621 61.0069 356.149 61.4039C356.546 61.6686 356.678 62.1979 356.414 62.5949C356.149 62.9919 355.621 63.1243 355.224 62.8596C354.696 62.4626 354.299 62.3303 353.771 62.3303C353.374 62.3303 352.978 62.4626 352.846 62.5949C352.581 62.7273 352.581 62.8596 352.581 62.9919V63.1243C352.581 63.1243 352.581 63.2566 352.713 63.2566C352.978 63.3889 353.374 63.5213 353.903 63.6536C354.431 63.786 354.96 63.9183 355.356 64.0506C355.753 64.183 356.149 64.58 356.546 64.977C356.678 65.2417 356.81 65.6387 356.81 66.0357C356.81 66.8297 356.414 67.4914 355.753 67.8884C355.224 68.2854 354.431 68.5501 353.638 68.5501C352.449 68.5501 351.392 68.0207 350.863 67.4914C350.599 66.962 350.467 66.3003 350.863 66.0357Z" fill="black"/>
<path d="M362.757 61.2716C362.757 61.8009 362.36 62.1979 361.832 62.1979H361.435V66.565C361.964 66.565 362.36 66.962 362.36 67.4914C362.36 68.0207 361.964 68.4177 361.435 68.4177C360.51 68.4177 359.717 67.6237 359.717 66.6974V62.3303H359.321C358.792 62.3303 358.396 61.9333 358.396 61.4039C358.396 60.8746 358.792 60.4776 359.321 60.4776H359.717V58.2279C359.717 57.6985 360.114 57.3015 360.642 57.3015C361.171 57.3015 361.567 57.6985 361.567 58.2279V60.4776H361.964C362.36 60.3452 362.757 60.7422 362.757 61.2716Z" fill="black"/>
<path d="M511.163 79.4016C517.11 79.4016 522 84.298 522 90.2532C522 96.2083 517.11 101.105 511.163 101.105C505.217 101.105 500.327 96.2083 500.327 90.2532C500.327 84.298 505.217 79.4016 511.163 79.4016ZM511.163 99.7814C516.449 99.7814 520.678 95.5466 520.678 90.2532C520.678 84.9597 516.449 80.725 511.163 80.725C505.877 80.725 501.648 84.9597 501.648 90.2532C501.648 95.5466 506.009 99.7814 511.163 99.7814Z" fill="#253546"/>
<path d="M511.164 94.4879C513.499 94.4879 515.393 92.5919 515.393 90.2532C515.393 87.9144 513.499 86.0184 511.164 86.0184C508.828 86.0184 506.935 87.9144 506.935 90.2532C506.935 92.5919 508.828 94.4879 511.164 94.4879Z" fill="#253546"/>
<path d="M511.164 90.2532V0" stroke="#253546" stroke-miterlimit="10"/>
<path d="M451.563 11.1162C451.431 11.1162 451.299 10.9839 451.299 10.8516V0.264672C451.299 0.132336 451.299 0.132336 451.431 0H457.378C457.51 0 457.51 0.132336 457.51 0.264672C457.51 0.397008 457.378 0.397008 457.378 0.397008H451.695V5.29344H456.717C456.849 5.29344 456.849 5.42578 456.849 5.42578C456.849 5.55811 456.717 5.69045 456.717 5.69045H451.695V10.7192H457.378C457.51 10.7192 457.51 10.8516 457.51 10.8516L457.378 11.1162H451.563V11.1162Z" fill="black"/>
<path d="M463.192 3.57307C463.192 3.70541 463.06 3.70541 462.928 3.70541H461.606V9.9252C461.606 10.3222 462.003 10.7192 462.399 10.7192C462.531 10.7192 462.664 10.8516 462.664 10.8516C462.664 10.8516 462.531 11.1162 462.399 11.1162C461.738 11.1162 461.21 10.5869 461.21 9.9252V3.70541H459.888C459.756 3.70541 459.624 3.57307 459.624 3.57307C459.624 3.57307 459.756 3.3084 459.888 3.3084H461.21V0.264672C461.21 0.132336 461.342 0 461.342 0C461.474 0 461.606 0.132336 461.606 0.264672V3.44074H462.928C463.06 3.3084 463.192 3.44074 463.192 3.57307Z" fill="black"/>
<path d="M465.703 7.27848C465.703 5.1611 467.421 3.44073 469.536 3.44073C471.518 3.44073 473.104 5.02877 473.236 7.01381C473.236 7.14614 473.104 7.14614 473.104 7.14614H466.232C466.232 8.99885 467.686 10.5869 469.668 10.5869C470.857 10.5869 471.915 9.9252 472.443 8.99885C472.443 8.86651 472.575 8.86651 472.707 8.99885C472.84 8.99885 472.84 9.13118 472.707 9.26352C472.047 10.3222 470.857 10.9839 469.536 10.9839C467.421 11.1162 465.836 9.39586 465.703 7.27848ZM466.232 6.74914H472.972C472.707 5.02877 471.386 3.70541 469.668 3.70541C467.818 3.70541 466.364 5.02877 466.232 6.74914Z" fill="black"/>
<path d="M475.615 7.27848V3.57307C475.615 3.44073 475.747 3.3084 475.747 3.3084C475.879 3.3084 475.879 3.44073 475.879 3.57307V6.21979C476.011 5.95512 476.143 5.55811 476.407 5.29344C477.068 4.36708 477.993 3.3084 479.447 3.3084C479.579 3.3084 479.711 3.44073 479.711 3.57307C479.711 3.7054 479.579 3.83774 479.447 3.83774C478.522 3.83774 477.729 4.36708 477.2 4.89643C476.672 5.55811 476.275 6.35212 476.011 6.88147C475.879 7.27848 475.879 7.41081 475.879 7.41081V10.9839C475.879 11.1162 475.879 11.2486 475.747 11.2486C475.615 11.2486 475.615 11.1162 475.615 10.9839V7.27848Z" fill="black"/>
<path d="M488.433 6.48446C488.433 4.89643 487.244 3.70541 485.658 3.70541C484.204 3.70541 482.883 4.89643 482.883 6.48446V10.8516V10.9839L482.751 11.1162C482.751 11.1162 482.751 11.1162 482.751 10.9839V6.48446V6.35213V3.57307C482.751 3.44074 482.883 3.44073 483.015 3.44073C483.147 3.44073 483.147 3.44074 483.147 3.57307V5.02877C483.676 4.10242 484.733 3.44073 485.922 3.44073C487.64 3.44073 489.094 4.89643 489.094 6.6168V10.9839C489.094 11.1162 488.962 11.2486 488.83 11.2486C488.698 11.2486 488.698 11.1162 488.698 10.9839V6.48446H488.433Z" fill="black"/>
<path d="M498.741 3.57307V10.9839C498.741 11.1162 498.609 11.2486 498.609 11.2486C498.477 11.2486 498.345 11.1162 498.345 10.9839V8.99884C497.684 10.3222 496.495 11.1162 495.041 11.1162C493.059 11.1162 491.341 9.39585 491.341 7.27848C491.341 5.1611 492.927 3.44073 495.041 3.44073C496.495 3.44073 497.684 4.36708 498.345 5.55811V3.57307C498.345 3.44073 498.477 3.3084 498.609 3.3084C498.741 3.3084 498.741 3.44073 498.741 3.57307ZM498.345 7.27848C498.345 5.29344 496.891 3.83774 495.041 3.83774C493.191 3.83774 491.737 5.42577 491.737 7.27848C491.737 9.26352 493.191 10.7192 495.041 10.7192C496.891 10.7192 498.345 9.13118 498.345 7.27848Z" fill="black"/>
<path d="M502.442 0.264672C502.442 0.132336 502.574 0 502.706 0C502.838 0 502.838 0.132336 502.838 0.264672V10.9839C502.838 11.1162 502.706 11.2486 502.706 11.2486C502.574 11.2486 502.442 11.1162 502.442 10.9839V0.264672Z" fill="black"/>
<path d="M453.413 29.2463V19.8504C453.413 19.3211 453.81 18.9241 454.338 18.9241H456.189C459.228 18.9241 461.739 21.4384 461.739 24.4822C461.739 27.5259 459.228 30.0403 456.189 30.0403H454.338C453.678 30.1726 453.413 29.7756 453.413 29.2463ZM455.131 28.4522H456.056C458.171 28.4522 459.889 26.7319 459.889 24.6145C459.889 22.4971 458.171 20.7768 456.056 20.7768H455.131V28.4522Z" fill="black"/>
<path d="M463.986 26.2025C463.986 24.0852 465.704 22.2325 467.818 22.2325C469.932 22.2325 471.518 23.8205 471.65 25.9379C471.65 25.9379 471.65 25.9379 471.65 26.0702C471.65 26.2025 471.65 26.2025 471.65 26.2025C471.65 26.5995 471.254 26.8642 470.857 26.8642H465.836C465.968 27.2612 466.1 27.6582 466.364 27.9229C466.761 28.3199 467.289 28.5846 467.95 28.5846C468.479 28.5846 469.139 28.4522 469.536 28.1876C469.932 27.7906 470.461 27.9229 470.725 28.1876C470.99 28.4522 471.122 28.8493 470.725 29.2463C469.932 29.9079 469.007 30.305 467.95 30.305C465.704 30.1726 463.986 28.3199 463.986 26.2025ZM465.704 25.4085H470.197C470.065 24.7468 469.272 23.8205 467.818 23.6882C466.496 23.8205 465.836 24.7468 465.704 25.4085Z" fill="black"/>
<path d="M474.293 26.2025V19.8504C474.293 19.4534 474.689 19.0564 475.086 19.0564C475.614 19.0564 476.011 19.4534 476.011 19.8504V22.8941C476.54 22.4971 477.332 22.2324 478.125 22.2324C480.24 22.2324 481.958 24.0851 481.958 26.2025C481.958 28.3199 480.24 30.1726 478.125 30.1726C477.332 30.1726 476.54 29.9079 476.011 29.5109C475.879 29.9079 475.615 30.1726 475.218 30.1726C474.689 30.1726 474.425 29.7756 474.425 29.3786V26.2025H474.293ZM476.011 26.2025C476.011 26.8642 476.275 27.3935 476.672 27.7906C477.068 28.1876 477.597 28.4522 478.125 28.4522C478.654 28.4522 479.183 28.1876 479.579 27.7906C479.976 27.3935 480.24 26.8642 480.24 26.2025C480.24 25.5408 479.976 25.0115 479.579 24.6145C479.183 24.2175 478.654 23.9528 478.125 23.9528C477.597 23.9528 477.068 24.2175 476.672 24.6145C476.275 25.0115 476.011 25.5408 476.011 26.2025Z" fill="black"/>
<path d="M488.301 23.1588C488.301 23.6881 487.904 24.0852 487.376 24.0852H486.979V28.4522C487.508 28.4522 487.904 28.8493 487.904 29.3786C487.904 29.9079 487.508 30.3049 486.979 30.3049C486.054 30.3049 485.261 29.5109 485.261 28.5846V24.2175H484.865C484.336 24.2175 483.94 23.8205 483.94 23.2911C483.94 22.7618 484.336 22.3648 484.865 22.3648H485.261V20.1151C485.261 19.5857 485.658 19.1887 486.186 19.1887C486.715 19.1887 487.112 19.5857 487.112 20.1151V22.3648H487.508C487.904 22.2325 488.301 22.6295 488.301 23.1588Z" fill="black"/>
<path d="M496.892 21.5708C497.552 21.5708 498.081 22.1001 498.081 22.7618C498.081 23.4235 497.552 23.9528 496.892 23.9528C496.231 23.9528 495.702 23.4235 495.702 22.7618C495.702 22.1001 496.231 21.5708 496.892 21.5708ZM496.892 27.9229C497.552 27.9229 498.081 28.4522 498.081 29.1139C498.081 29.7756 497.552 30.305 496.892 30.305C496.231 30.305 495.702 29.7756 495.702 29.1139C495.702 28.4522 496.231 27.9229 496.892 27.9229Z" fill="black"/>
<path d="M499.535 28.9816L503.367 19.7181C503.499 19.3211 504.028 19.0564 504.556 19.3211C504.953 19.4534 505.217 19.9827 504.953 20.5121L501.12 29.7756C500.988 30.1726 500.592 30.305 500.328 30.305C500.195 30.305 500.063 30.305 500.063 30.305C499.535 29.9079 499.27 29.3786 499.535 28.9816Z" fill="black"/>
<path d="M54.8431 106.531C55.636 107.325 56.0325 108.251 56.0325 109.31C56.0325 110.368 55.636 111.295 54.8431 112.089C54.0502 112.883 53.1251 113.28 52.0679 113.28C51.0107 113.28 50.0856 112.883 49.2927 112.089C48.8962 111.692 48.8962 111.162 49.2927 110.765C49.6892 110.368 50.2178 110.368 50.6142 110.765C51.0107 111.162 51.5393 111.427 52.0679 111.427C52.5965 111.427 53.1251 111.162 53.6537 110.765C54.0502 110.368 54.3145 109.839 54.3145 109.177C54.3145 108.516 54.0502 108.119 53.6537 107.722C53.2573 107.325 52.7287 107.06 52.2 107.06C51.9357 107.06 51.6714 106.928 51.5393 106.795C51.1428 106.398 51.1428 105.869 51.5393 105.472L53.1251 103.884H50.6142C50.0856 103.884 49.6892 103.487 49.6892 102.957C49.6892 102.428 50.0856 102.031 50.6142 102.031H55.2395C55.7681 102.031 56.1646 102.428 56.1646 102.957C56.1646 103.09 56.1646 103.222 56.0325 103.354C56.0325 103.487 55.9003 103.487 55.9003 103.619L53.7859 105.869C54.1823 106.001 54.5788 106.266 54.8431 106.531Z" fill="black"/>
<path d="M58.5435 107.722C58.5435 106.266 58.9399 104.942 59.6007 103.884C60.2614 102.825 61.3186 102.163 62.508 102.163C63.6974 102.163 64.7546 102.957 65.4154 103.884C66.0761 104.942 66.4726 106.266 66.4726 107.722C66.4726 109.177 66.0761 110.501 65.4154 111.559C64.7546 112.618 63.6974 113.28 62.508 113.28C61.3186 113.28 60.2614 112.486 59.6007 111.559C58.9399 110.501 58.5435 109.177 58.5435 107.722ZM64.7546 107.722C64.7546 106.531 64.4903 105.604 63.9617 104.942C63.5652 104.281 63.0366 104.016 62.508 104.016C61.9794 104.016 61.4508 104.281 61.0543 104.942C60.6579 105.604 60.2614 106.663 60.2614 107.722C60.2614 108.913 60.5257 109.839 61.0543 110.501C61.583 111.162 62.1116 111.427 62.508 111.427C63.0366 111.427 63.5652 111.162 63.9617 110.501C64.4903 109.971 64.7546 108.913 64.7546 107.722Z" fill="black"/>
<path d="M82.1987 112.486C82.1987 112.883 81.8022 113.28 81.4058 113.28C81.0093 113.28 80.6129 113.015 80.6129 112.618C79.9521 113.015 79.2913 113.28 78.4984 113.28C76.384 113.28 74.666 111.427 74.666 109.31C74.666 107.192 76.384 105.339 78.4984 105.339C79.2913 105.339 80.0842 105.604 80.6129 106.001V102.957C80.6129 102.56 81.0093 102.163 81.5379 102.163C82.0665 102.163 82.3308 102.56 82.3308 102.957V109.31V112.486H82.1987ZM78.3663 107.192C77.8377 107.192 77.3091 107.457 76.9126 107.854C76.5161 108.251 76.2518 108.78 76.2518 109.442C76.2518 110.104 76.5161 110.633 76.9126 111.03C77.3091 111.427 77.8377 111.692 78.3663 111.692C78.8949 111.692 79.4235 111.427 79.8199 111.03C80.2164 110.633 80.4807 110.104 80.4807 109.442C80.4807 108.78 80.2164 108.251 79.8199 107.854C79.4235 107.325 78.8949 107.192 78.3663 107.192Z" fill="black"/>
<path d="M92.11 109.442V112.486C92.11 112.883 91.7135 113.28 91.3171 113.28C90.9206 113.28 90.5242 113.015 90.5242 112.618C89.8634 113.015 89.2026 113.28 88.4097 113.28C87.3525 113.28 86.4275 112.883 85.7667 112.089C85.1059 111.295 84.7095 110.368 84.7095 109.31C84.7095 108.251 85.1059 107.192 85.7667 106.531C86.4275 105.736 87.3525 105.339 88.4097 105.339C89.2026 105.339 89.8634 105.604 90.5242 106.001C90.6563 105.604 90.9206 105.339 91.3171 105.339C91.7135 105.339 92.11 105.736 92.11 106.133V109.442ZM90.5242 109.442C90.5242 108.78 90.2599 108.251 89.8634 107.854C89.4669 107.457 88.9383 107.192 88.4097 107.192C87.8811 107.192 87.3525 107.457 86.9561 107.854C86.5596 108.251 86.2953 108.78 86.2953 109.442C86.2953 110.104 86.5596 110.633 86.9561 111.03C87.3525 111.427 87.8811 111.692 88.4097 111.692C88.9383 111.692 89.4669 111.427 89.8634 111.03C90.2599 110.633 90.5242 109.971 90.5242 109.442Z" fill="black"/>
<path d="M101.757 106.266V109.971V112.221C101.757 114.338 100.039 116.059 97.9248 116.059C97.3962 116.059 96.7354 115.926 96.339 115.662C95.9425 115.529 95.6782 115 95.9425 114.471C96.2068 114.074 96.7354 113.941 97.1319 114.074C97.3962 114.206 97.7926 114.338 98.0569 114.338C98.982 114.338 99.7749 113.677 100.039 112.883C99.6427 113.147 99.1141 113.28 98.5855 113.28C96.7354 113.28 95.2817 111.824 95.2817 109.971V106.266C95.2817 105.737 95.6782 105.472 96.0746 105.472C96.6033 105.472 96.8676 105.869 96.8676 106.266V109.971C96.8676 110.898 97.6605 111.559 98.4534 111.559C99.2463 111.559 100.039 110.898 100.039 109.971V106.266C100.039 105.737 100.436 105.472 100.832 105.472C101.361 105.339 101.757 105.737 101.757 106.266Z" fill="black"/>
<path d="M104.4 111.03C104.664 110.633 105.193 110.633 105.589 110.898C105.986 111.295 106.779 111.559 107.307 111.559C107.704 111.559 108.1 111.427 108.364 111.295C108.629 111.162 108.629 110.898 108.629 110.765C108.629 110.633 108.629 110.633 108.629 110.633C108.629 110.633 108.497 110.501 108.364 110.501C108.1 110.368 107.704 110.104 107.043 110.104C106.514 109.971 106.118 109.839 105.721 109.707C105.325 109.442 104.928 109.177 104.664 108.78C104.532 108.516 104.4 108.119 104.4 107.722C104.4 106.928 104.796 106.398 105.325 106.001C105.854 105.604 106.514 105.472 107.307 105.472C108.364 105.472 109.157 106.001 109.686 106.398C110.082 106.663 110.215 107.192 109.95 107.589C109.686 107.986 109.157 108.119 108.761 107.854C108.232 107.457 107.836 107.325 107.307 107.325C106.911 107.325 106.514 107.457 106.382 107.589C106.118 107.722 106.118 107.854 106.118 107.986V108.119C106.118 108.119 106.118 108.251 106.25 108.251C106.514 108.383 106.911 108.516 107.439 108.648C107.968 108.78 108.497 108.913 108.893 109.045C109.29 109.177 109.686 109.574 110.082 109.971C110.215 110.236 110.347 110.633 110.347 111.03C110.347 111.824 109.95 112.486 109.29 112.883C108.761 113.28 107.968 113.544 107.175 113.544C105.986 113.544 104.928 113.015 104.4 112.486C104.136 111.956 104.136 111.427 104.4 111.03Z" fill="black"/>
<path d="M231.398 103.09V112.486C231.398 113.015 231.002 113.412 230.473 113.412C229.944 113.412 229.548 113.015 229.548 112.486V104.678L228.887 105.075C228.755 105.207 228.623 105.207 228.491 105.207C228.226 105.207 227.962 105.075 227.698 104.81C227.434 104.413 227.566 103.884 227.962 103.619L229.944 102.428C229.944 102.428 229.944 102.428 230.077 102.428C230.077 102.428 230.077 102.428 230.209 102.428H230.341H230.473C230.473 102.428 230.473 102.428 230.605 102.428C230.605 102.428 230.605 102.428 230.737 102.428C230.737 102.428 230.737 102.428 230.737 102.56C230.737 102.56 230.737 102.56 230.737 102.693C230.737 102.693 230.737 102.693 230.737 102.825C231.398 102.957 231.398 102.957 231.398 103.09Z" fill="black"/>
<path d="M239.327 106.663C240.12 107.457 240.517 108.383 240.517 109.442C240.517 110.501 240.12 111.427 239.327 112.221C238.534 113.015 237.609 113.412 236.552 113.412C235.627 113.412 234.57 113.015 233.777 112.221C233.38 111.824 233.38 111.295 233.777 110.898C234.173 110.501 234.702 110.501 235.098 110.898C235.495 111.295 236.023 111.559 236.684 111.559C237.213 111.559 237.741 111.295 238.138 110.898C238.534 110.501 238.799 109.971 238.799 109.442C238.799 108.913 238.534 108.383 238.138 107.854C237.741 107.457 237.213 107.192 236.684 107.192C236.156 107.192 235.627 107.325 235.098 107.854C234.702 108.251 234.173 108.251 233.777 107.854C233.777 107.854 233.645 107.722 233.645 107.589C233.645 107.589 233.645 107.589 233.645 107.457V107.325C233.645 107.192 233.645 107.192 233.645 107.06L234.173 102.957C234.173 102.693 234.305 102.428 234.57 102.296C234.702 102.296 234.834 102.163 234.966 102.163H239.592C240.12 102.163 240.517 102.56 240.517 103.09C240.517 103.619 240.12 104.016 239.592 104.016H235.627L235.495 105.604C235.891 105.472 236.156 105.472 236.552 105.472C237.477 105.472 238.534 105.869 239.327 106.663Z" fill="black"/>
<path d="M255.45 112.486C255.45 112.883 255.053 113.28 254.657 113.28C254.261 113.28 253.864 113.015 253.864 112.618C253.203 113.015 252.543 113.28 251.75 113.28C249.635 113.28 247.917 111.427 247.917 109.31C247.917 107.192 249.635 105.339 251.75 105.339C252.543 105.339 253.335 105.604 253.864 106.001V102.957C253.864 102.56 254.261 102.163 254.789 102.163C255.318 102.163 255.582 102.56 255.582 102.957V109.31V112.486H255.45ZM251.617 107.192C251.089 107.192 250.56 107.457 250.164 107.854C249.767 108.251 249.503 108.78 249.503 109.442C249.503 110.104 249.767 110.633 250.164 111.03C250.56 111.427 251.089 111.692 251.617 111.692C252.146 111.692 252.675 111.427 253.071 111.03C253.468 110.633 253.732 110.104 253.732 109.442C253.732 108.78 253.468 108.251 253.071 107.854C252.675 107.325 252.146 107.192 251.617 107.192Z" fill="black"/>
<path d="M265.361 109.442V112.486C265.361 112.883 264.965 113.28 264.568 113.28C264.172 113.28 263.775 113.015 263.775 112.618C263.115 113.015 262.454 113.28 261.661 113.28C260.604 113.28 259.679 112.883 259.018 112.089C258.357 111.295 257.961 110.368 257.961 109.31C257.961 108.251 258.357 107.192 259.018 106.531C259.679 105.736 260.604 105.339 261.661 105.339C262.454 105.339 263.115 105.604 263.775 106.001C263.908 105.604 264.172 105.339 264.568 105.339C264.965 105.339 265.361 105.736 265.361 106.133V109.442ZM263.775 109.442C263.775 108.78 263.511 108.251 263.115 107.854C262.718 107.457 262.19 107.192 261.661 107.192C261.132 107.192 260.604 107.457 260.207 107.854C259.811 108.251 259.547 108.78 259.547 109.442C259.547 110.104 259.811 110.633 260.207 111.03C260.604 111.427 261.132 111.692 261.661 111.692C262.19 111.692 262.718 111.427 263.115 111.03C263.511 110.633 263.775 109.971 263.775 109.442Z" fill="black"/>
<path d="M275.008 106.266V109.971V112.221C275.008 114.338 273.29 116.059 271.176 116.059C270.647 116.059 269.987 115.926 269.59 115.662C269.194 115.529 268.929 115 269.194 114.471C269.458 114.074 269.987 113.941 270.383 114.074C270.647 114.206 271.044 114.338 271.308 114.338C272.233 114.338 273.026 113.677 273.29 112.883C272.894 113.147 272.365 113.28 271.837 113.28C269.987 113.28 268.533 111.824 268.533 109.971V106.266C268.533 105.737 268.929 105.472 269.326 105.472C269.854 105.472 270.119 105.869 270.119 106.266V109.971C270.119 110.898 270.912 111.559 271.705 111.559C272.498 111.559 273.29 110.898 273.29 109.971V106.266C273.29 105.737 273.687 105.472 274.083 105.472C274.612 105.339 275.008 105.737 275.008 106.266Z" fill="black"/>
<path d="M277.652 111.03C277.916 110.633 278.445 110.633 278.841 110.898C279.237 111.295 280.03 111.559 280.559 111.559C280.955 111.559 281.352 111.427 281.616 111.295C281.88 111.162 281.88 110.898 281.88 110.765C281.88 110.633 281.88 110.633 281.88 110.633C281.88 110.633 281.748 110.501 281.616 110.501C281.352 110.368 280.955 110.104 280.295 110.104C279.766 109.971 279.37 109.839 278.973 109.707C278.577 109.442 278.18 109.177 277.916 108.78C277.784 108.516 277.652 108.119 277.652 107.722C277.652 106.928 278.048 106.398 278.577 106.001C279.105 105.604 279.766 105.472 280.559 105.472C281.616 105.472 282.409 106.001 282.938 106.398C283.334 106.663 283.466 107.192 283.202 107.589C282.938 107.986 282.409 108.119 282.013 107.854C281.484 107.457 281.088 107.325 280.559 107.325C280.162 107.325 279.766 107.457 279.634 107.589C279.37 107.722 279.37 107.854 279.37 107.986V108.119C279.37 108.119 279.37 108.251 279.502 108.251C279.766 108.383 280.162 108.516 280.691 108.648C281.22 108.78 281.748 108.913 282.145 109.045C282.541 109.177 282.938 109.574 283.334 109.971C283.466 110.236 283.598 110.633 283.598 111.03C283.598 111.824 283.202 112.486 282.541 112.883C282.013 113.28 281.22 113.544 280.427 113.544C279.237 113.544 278.18 113.015 277.652 112.486C277.387 111.956 277.387 111.427 277.652 111.03Z" fill="black"/>
</svg>
