<svg id="Capa_1" data-name="Capa 1" xmlns="http://www.w3.org/2000/svg" xmlns:xlink="http://www.w3.org/1999/xlink" viewBox="0 0 257.33 290.67"><defs><style>.cls-1,.cls-24,.cls-26{fill:none;}.cls-2,.cls-30{fill:#eea845;}.cls-3,.cls-5{fill:#253546;}.cls-4{fill:#ff000d;}.cls-5{font-size:12px;font-family:Quicksand-Bold, Quicksand;font-weight:700;}.cls-6{letter-spacing:0.04em;}.cls-7{letter-spacing:-0.04em;}.cls-8{letter-spacing:-0.02em;}.cls-9{letter-spacing:-0.03em;}.cls-10{letter-spacing:-0.02em;}.cls-11{letter-spacing:-0.02em;}.cls-12{letter-spacing:-0.05em;}.cls-13{letter-spacing:0.03em;}.cls-14{letter-spacing:-0.02em;}.cls-15{letter-spacing:-0.01em;}.cls-16{letter-spacing:-0.03em;}.cls-17{letter-spacing:0.01em;}.cls-18{letter-spacing:-0.03em;}.cls-19{letter-spacing:-0.05em;}.cls-20{letter-spacing:0.02em;}.cls-21{letter-spacing:0.01em;}.cls-22{clip-path:url(#clip-path);}.cls-23,.cls-25{fill:#f7ea03;}.cls-23{opacity:0.57;}.cls-24,.cls-26{stroke:#253546;stroke-miterlimit:10;}.cls-24{stroke-linecap:round;}.cls-27{clip-path:url(#clip-path-2);}.cls-28{fill:#0eda87;}.cls-28,.cls-29,.cls-30,.cls-31,.cls-32{opacity:0.75;}.cls-29{fill:#5cd9ea;}.cls-31{fill:#f90bed;}.cls-32{fill:#ef3352;}</style><clipPath id="clip-path"><rect class="cls-1" x="152.18" y="21.64" width="86.94" height="48.9" rx="5.79" ry="5.79"/></clipPath><clipPath id="clip-path-2"><rect class="cls-1" x="-9.24" y="114.55" width="234.33" height="37.55" rx="12.94" ry="12.94" transform="translate(241.25 25.4) rotate(90)"/></clipPath></defs><title>tip-credit</title><polygon class="cls-2" points="143.73 163.42 139.37 172.32 145.04 175.1 143.73 163.42"/><path class="cls-3" d="M145.63,176.72a.72.72,0,0,1-.32-.07l-13.05-6.4a.73.73,0,0,1-.06-1.27l11.56-7.07a.73.73,0,0,1,1.1.54l1.49,13.47a.73.73,0,0,1-.72.8Zm-11.55-7.2,10.68,5.24-1.22-11Z"/><path class="cls-3" d="M141.07,169.51a.73.73,0,0,1-.65-1l1.29-2.64a.72.72,0,0,1,1.3.64l-1.29,2.64A.73.73,0,0,1,141.07,169.51Z"/><path class="cls-3" d="M139.92,169.86a.64.64,0,1,0,.43,0c-.35-.16-.66.36-.3.52.06,0,.12.13,0,.1s-.09,0,0-.08c.36-.13.21-.71-.16-.58Z"/><polygon class="cls-4" points="83.52 199.81 79.15 208.71 84.83 211.49 83.52 199.81"/><path class="cls-3" d="M85.42,213.11a.72.72,0,0,1-.32-.07L72,206.64a.73.73,0,0,1-.06-1.27l11.56-7.07a.73.73,0,0,1,1.1.54l1.49,13.47a.73.73,0,0,1-.72.8Zm-11.55-7.2,10.68,5.24-1.22-11Z"/><path class="cls-3" d="M80.86,205.9a.73.73,0,0,1-.65-1l1.29-2.64a.72.72,0,1,1,1.3.64l-1.29,2.64A.73.73,0,0,1,80.86,205.9Z"/><path class="cls-3" d="M79.7,206.25a.64.64,0,1,0,.43,0c-.35-.16-.66.36-.3.52.06,0,.12.13,0,.1s-.09,0,0-.08c.36-.13.21-.71-.16-.58Z"/><text class="cls-5" transform="translate(24.65 30.53)">W<tspan class="cls-6" x="13.22" y="0">h</tspan><tspan x="21.06" y="0">a</tspan><tspan class="cls-7" x="28.49" y="0">t</tspan><tspan class="cls-8" x="32.81" y="0">e</tspan><tspan class="cls-9" x="39.81" y="0">v</tspan><tspan class="cls-10" x="46.44" y="0">e</tspan><tspan x="53.49" y="0">r </tspan><tspan class="cls-9" x="0" y="14.4">y</tspan><tspan class="cls-11" x="6.7" y="14.4">o</tspan><tspan x="14" y="14.4">u buy </tspan><tspan x="0" y="28.8">h</tspan><tspan class="cls-10" x="7.36" y="28.8">e</tspan><tspan class="cls-12" x="14.41" y="28.8">r</tspan><tspan x="19.08" y="28.8">e </tspan><tspan class="cls-9" x="29.99" y="28.8">y</tspan><tspan class="cls-11" x="36.68" y="28.8">o</tspan><tspan x="43.99" y="28.8">u </tspan><tspan x="0" y="43.2">p</tspan><tspan class="cls-13" x="7.92" y="43.2">a</tspan><tspan x="15.72" y="43.2">y it in </tspan><tspan x="0" y="57.6">45 d</tspan><tspan class="cls-13" x="26.75" y="57.6">a</tspan><tspan class="cls-14" x="34.55" y="57.6">y</tspan><tspan x="41.36" y="57.6">s! </tspan></text><text class="cls-5" transform="translate(131.85 129.57)">Cu<tspan class="cls-15" x="16.61" y="0">t</tspan><tspan class="cls-16" x="21.23" y="0">o</tspan><tspan x="28.31" y="0">ff </tspan><tspan x="0" y="14.4">da</tspan><tspan class="cls-7" x="15.35" y="14.4">t</tspan><tspan x="19.67" y="14.4">e!</tspan></text><text class="cls-5" transform="translate(33.41 161.67)">P<tspan class="cls-13" x="7" y="0">a</tspan><tspan x="14.8" y="0">yment </tspan><tspan x="3.06" y="14.4">Due d</tspan><tspan class="cls-13" x="37.87" y="14.4">a</tspan><tspan x="45.67" y="14.4">y </tspan></text><text class="cls-5" transform="translate(34.84 228.48)">:o C<tspan class="cls-12" x="23.23" y="0">r</tspan><tspan x="27.9" y="0">edit </tspan><tspan x="4.79" y="14.4">Bu</tspan><tspan class="cls-12" x="19.27" y="14.4">r</tspan><tspan x="23.94" y="14.4">earu</tspan></text><text class="cls-5" transform="translate(131.85 193.53)">H<tspan class="cls-10" x="8.51" y="0">e</tspan><tspan class="cls-12" x="15.56" y="0">r</tspan><tspan x="20.23" y="0">e </tspan><tspan class="cls-9" x="31.14" y="0">y</tspan><tspan class="cls-11" x="37.83" y="0">o</tspan><tspan x="45.14" y="0">u </tspan><tspan class="cls-17" x="0" y="14.4">s</tspan><tspan class="cls-18" x="6.08" y="14.4">t</tspan><tspan x="10.52" y="14.4">art </tspan><tspan x="0" y="28.8">p</tspan><tspan class="cls-13" x="7.92" y="28.8">a</tspan><tspan x="15.72" y="28.8">ying </tspan><tspan x="0" y="43.2">In</tspan><tspan class="cls-7" x="11.02" y="43.2">t</tspan><tspan class="cls-10" x="15.34" y="43.2">e</tspan><tspan class="cls-19" x="22.39" y="43.2">r</tspan><tspan x="27.06" y="43.2">e</tspan><tspan class="cls-20" x="34.37" y="43.2">s</tspan><tspan x="40.45" y="43.2">t </tspan></text><text class="cls-5" transform="translate(114.65 267.21)">E<tspan class="cls-7" x="7.12" y="0">t</tspan><tspan class="cls-10" x="11.44" y="0">e</tspan><tspan x="18.49" y="0">rn</tspan><tspan class="cls-21" x="31.12" y="0">a</tspan><tspan x="38.71" y="0">l Debt :/ </tspan></text><g class="cls-22"><circle class="cls-23" cx="211.31" cy="37.71" r="28.16"/><circle class="cls-23" cx="177.8" cy="39.28" r="15.66"/><circle class="cls-23" cx="225.65" cy="59.2" r="9.55"/></g><rect class="cls-24" x="152.18" y="21.64" width="86.94" height="48.9" rx="5.79" ry="5.79"/><path class="cls-25" d="M160.5,24.77a.92.92,0,0,1,.91,1.11,1.87,1.87,0,0,1-1,1,6.06,6.06,0,0,1-2.8.72,2.19,2.19,0,0,1-.95-.2c-.26-.14-.54-.41-.32-.73s1-.42,1.36-.45a4,4,0,0,1,2.66.71c1.17.88.2,1.87-.74,2.38a4.85,4.85,0,0,1-1.39.51,1.88,1.88,0,0,1-.91,0c-.48-.15-.64-.54-.13-.84a2.88,2.88,0,0,1,1.63,0,11,11,0,0,1,1.44.3c.59.17,2.59.9,1.53,1.79-.28.23.12.62.39.39.86-.72.28-1.79-.53-2.25a8.09,8.09,0,0,0-3.92-.88,1.66,1.66,0,0,0-1.3.53.87.87,0,0,0,.17,1.22c.9.81,2.47.2,3.37-.32s1.93-1.45,1.37-2.53a3.65,3.65,0,0,0-2.93-1.54c-.82-.07-2.54,0-2.74,1.09s1.53,1.45,2.32,1.38c1.23-.1,3-.56,3.7-1.66a1.48,1.48,0,0,0-1.21-2.32c-.36,0-.36.53,0,.56Z"/><path d="M165.1,26.71a.09.09,0,0,1,.09-.09h.72a.73.73,0,0,1,0,1.45h-.63v1a.09.09,0,0,1-.18,0Zm.81,1.19a.55.55,0,0,0,0-1.1h-.63v1.1Z"/><path d="M167.33,26.71a.09.09,0,0,1,.18,0v2.37a.09.09,0,0,1-.18,0Z"/><path d="M169.7,28a.09.09,0,0,1-.09-.09.09.09,0,0,1,.09-.09h.8a.09.09,0,0,1,.08.09v.87h0a.1.1,0,0,1,0,.07,1.3,1.3,0,1,1-.82-2.3,1.33,1.33,0,0,1,.83.29.09.09,0,0,1,0,.12.09.09,0,0,1-.13,0,1.12,1.12,0,1,0-.71,2,1.14,1.14,0,0,0,.67-.22V28Z"/><path d="M171.56,26.71a.09.09,0,0,1,.18,0v1.43a.85.85,0,1,0,1.7,0V26.71a.09.09,0,0,1,.18,0v1.43a1,1,0,1,1-2.06,0Z"/><path d="M175.79,26.71a.09.09,0,0,1,.09-.09h.57a.63.63,0,0,1,.39,1.13.73.73,0,0,1-.23,1.41h-.73a.09.09,0,0,1-.08-.09Zm.65,1a.45.45,0,0,0,0-.91H176v.91Zm.16,1.28a.55.55,0,0,0,0-1.1H176V29Z"/><path d="M179.36,28.51H178.2l-.23.6a.09.09,0,0,1-.08.06h0a.09.09,0,0,1-.05-.12l.88-2.36a.1.1,0,0,1,.09-.05.09.09,0,0,1,.09.05l.88,2.36a.09.09,0,0,1,0,.12h0a.09.09,0,0,1-.08-.06Zm-1.09-.18h1L178.78,27Z"/><path d="M180.6,27v2.08a.09.09,0,1,1-.17,0V26.75a.09.09,0,0,1,0-.1.09.09,0,0,1,.12,0l1.54,2.14V26.74a.09.09,0,0,1,.09-.09.09.09,0,0,1,.09.09v2.34a.09.09,0,0,1-.09.09.08.08,0,0,1-.07,0h0Z"/><path d="M183.31,26.73a.09.09,0,1,1,.18,0V28.2L185,26.66a.09.09,0,0,1,.12,0,.09.09,0,0,1,0,.13l-1,1,1,1.27a.1.1,0,0,1,0,.13l-.06,0a.07.07,0,0,1-.07,0l-1-1.25-.56.56v.64a.09.09,0,0,1-.18,0Z"/><path d="M162.26,60.73a.18.18,0,0,1,0-.26.19.19,0,0,1,.27,0,1.39,1.39,0,0,0,1,.4,1.39,1.39,0,0,0,1.38-1.38,1.38,1.38,0,0,0-2.36-1,.18.18,0,0,1-.26,0,.12.12,0,0,1,0-.06h0a0,0,0,0,1,0,0,.15.15,0,0,1,0-.06.33.33,0,0,0,0,0l.25-2.09a.16.16,0,0,1,.07-.13.17.17,0,0,1,.12,0h2.41a.18.18,0,0,1,.19.19.18.18,0,0,1-.19.19h-2.26L162.64,58a1.75,1.75,0,0,1,.88-.24,1.74,1.74,0,0,1,1.75,1.75,1.74,1.74,0,0,1-.51,1.24,1.8,1.8,0,0,1-1.24.51A1.75,1.75,0,0,1,162.26,60.73Z"/><path d="M166.9,58.65a3.3,3.3,0,0,1,.5-1.81,1.47,1.47,0,0,1,2.59,0,3.37,3.37,0,0,1,.5,1.81,3.32,3.32,0,0,1-.5,1.81,1.46,1.46,0,0,1-2.59,0A3.26,3.26,0,0,1,166.9,58.65Zm.36,0a2.94,2.94,0,0,0,.44,1.61,1.1,1.1,0,0,0,2,0,3.13,3.13,0,0,0,0-3.21,1.1,1.1,0,0,0-2,0A2.94,2.94,0,0,0,167.26,58.65Z"/><path d="M173.95,56.05a1.08,1.08,0,0,1,.64,1.95,1.68,1.68,0,1,1-1.28,0,1.09,1.09,0,0,1-.43-.87A1.07,1.07,0,0,1,173.95,56.05Zm0,4.83a1.33,1.33,0,1,0-1.33-1.33A1.32,1.32,0,0,0,173.95,60.88Zm0-3a.74.74,0,0,0,.73-.73.72.72,0,0,0-1.44,0A.73.73,0,0,0,173.95,57.86Z"/><path d="M177.23,60.73a.18.18,0,0,1,0-.26.19.19,0,0,1,.27,0,1.39,1.39,0,0,0,1,.4,1.39,1.39,0,0,0,1.38-1.38,1.38,1.38,0,0,0-2.36-1,.18.18,0,0,1-.26,0,.12.12,0,0,1,0-.06h0a0,0,0,0,1,0,0,.15.15,0,0,1,0-.06.33.33,0,0,0,0,0l.25-2.09a.16.16,0,0,1,.07-.13.17.17,0,0,1,.12,0H180a.18.18,0,0,1,.19.19.18.18,0,0,1-.19.19h-2.26L177.6,58a1.75,1.75,0,0,1,.88-.24,1.74,1.74,0,0,1,1.75,1.75,1.74,1.74,0,0,1-.51,1.24,1.8,1.8,0,0,1-1.24.51A1.75,1.75,0,0,1,177.23,60.73Z"/><path d="M185,56.58l-.73.43-.09,0a.18.18,0,0,1-.16-.09.17.17,0,0,1,.07-.24l1-.61a.19.19,0,0,1,.24.07.22.22,0,0,1,0,.13v4.76a.18.18,0,0,1-.18.18.18.18,0,0,1-.18-.18Z"/><path d="M187,60.73a.18.18,0,0,1,0-.26.19.19,0,0,1,.27,0,1.39,1.39,0,0,0,1,.4,1.39,1.39,0,0,0,1.38-1.38,1.38,1.38,0,0,0-2.36-1,.18.18,0,0,1-.26,0,.12.12,0,0,1,0-.06h0a0,0,0,0,1,0,0,.15.15,0,0,1,0-.06.33.33,0,0,0,0,0l.25-2.09a.16.16,0,0,1,.07-.13.17.17,0,0,1,.12,0h2.41a.18.18,0,0,1,.19.19.18.18,0,0,1-.19.19h-2.26L187.34,58a1.75,1.75,0,0,1,.88-.24A1.74,1.74,0,0,1,190,59.48a1.74,1.74,0,0,1-.51,1.24,1.8,1.8,0,0,1-1.24.51A1.75,1.75,0,0,1,187,60.73Z"/><path d="M193.29,56.05a1.7,1.7,0,0,1,1.7,1.51v0c0,.14,0,.29,0,.44a4.29,4.29,0,0,1-.5,2.07,2.14,2.14,0,0,1-1.81,1.13h0a.18.18,0,0,1-.19-.17.19.19,0,0,1,.18-.19,1.76,1.76,0,0,0,1.51-.94,3.27,3.27,0,0,0,.37-1,1.72,1.72,0,0,1-3-1.14A1.71,1.71,0,0,1,193.29,56.05Zm1.36,1.7a1.35,1.35,0,1,0-1.36,1.35A1.34,1.34,0,0,0,194.64,57.76Z"/><path d="M198.12,56.05a1.08,1.08,0,0,1,.64,1.95,1.68,1.68,0,1,1-1.28,0,1.09,1.09,0,0,1-.43-.87A1.07,1.07,0,0,1,198.12,56.05Zm0,4.83a1.33,1.33,0,1,0-1.33-1.33A1.32,1.32,0,0,0,198.12,60.88Zm0-3a.74.74,0,0,0,.73-.73.72.72,0,0,0-1.44,0A.73.73,0,0,0,198.12,57.86Z"/><path d="M206.67,60.17h-2.83a.15.15,0,0,1-.11,0,.17.17,0,0,1,0-.25l3-3.73h0a.17.17,0,0,1,.25,0,.23.23,0,0,1,.06.09s0,0,0,0v3.58h.35a.18.18,0,1,1,0,.36H207v.89a.18.18,0,0,1-.36,0Zm0-.36v-3l-2.45,3Z"/><path d="M208.91,60.73a.18.18,0,0,1,0-.26.19.19,0,0,1,.27,0,1.39,1.39,0,0,0,1,.4,1.39,1.39,0,0,0,1.38-1.38,1.38,1.38,0,0,0-2.36-1,.18.18,0,0,1-.26,0,.12.12,0,0,1,0-.06h0a0,0,0,0,1,0,0,.15.15,0,0,1,0-.06.33.33,0,0,0,0,0l.25-2.09a.16.16,0,0,1,.07-.13.17.17,0,0,1,.12,0h2.41a.18.18,0,0,1,.19.19.18.18,0,0,1-.19.19h-2.26L209.28,58a1.75,1.75,0,0,1,.88-.24,1.74,1.74,0,0,1,1.75,1.75,1.74,1.74,0,0,1-.51,1.24,1.8,1.8,0,0,1-1.24.51A1.75,1.75,0,0,1,208.91,60.73Z"/><path d="M213.58,60.73a.18.18,0,0,1,0-.26.19.19,0,0,1,.27,0,1.39,1.39,0,0,0,1,.4,1.39,1.39,0,0,0,1.38-1.38,1.38,1.38,0,0,0-2.36-1,.18.18,0,0,1-.26,0,.12.12,0,0,1,0-.06h0a0,0,0,0,1,0,0,.15.15,0,0,1,0-.06.33.33,0,0,0,0,0l.25-2.09a.16.16,0,0,1,.07-.13.17.17,0,0,1,.12,0h2.41a.18.18,0,0,1,.19.19.18.18,0,0,1-.19.19h-2.26L213.95,58a1.75,1.75,0,0,1,.88-.24,1.74,1.74,0,0,1,1.75,1.75,1.74,1.74,0,0,1-.51,1.24,1.8,1.8,0,0,1-1.24.51A1.75,1.75,0,0,1,213.58,60.73Z"/><path d="M219.82,56.05a1.08,1.08,0,0,1,.64,1.95,1.68,1.68,0,1,1-1.28,0,1.09,1.09,0,0,1-.43-.87A1.07,1.07,0,0,1,219.82,56.05Zm0,4.83a1.33,1.33,0,1,0-1.33-1.33A1.32,1.32,0,0,0,219.82,60.88Zm0-3a.74.74,0,0,0,.73-.73.72.72,0,0,0-1.44,0A.73.73,0,0,0,219.82,57.86Z"/><path d="M223.1,60.73a.18.18,0,0,1,0-.26.19.19,0,0,1,.27,0,1.39,1.39,0,0,0,1,.4,1.39,1.39,0,0,0,1.38-1.38,1.38,1.38,0,0,0-2.36-1,.18.18,0,0,1-.26,0,.12.12,0,0,1,0-.06h0a0,0,0,0,1,0,0,.15.15,0,0,1,0-.06.33.33,0,0,0,0,0l.25-2.09a.16.16,0,0,1,.07-.13.17.17,0,0,1,.12,0h2.41a.18.18,0,0,1,.19.19.18.18,0,0,1-.19.19h-2.26L223.47,58a1.75,1.75,0,0,1,.88-.24,1.74,1.74,0,0,1,1.75,1.75,1.74,1.74,0,0,1-.51,1.24,1.8,1.8,0,0,1-1.24.51A1.75,1.75,0,0,1,223.1,60.73Z"/><path d="M227.77,60.73a.18.18,0,0,1,0-.26.19.19,0,0,1,.27,0,1.39,1.39,0,0,0,1,.4,1.39,1.39,0,0,0,1.38-1.38,1.38,1.38,0,0,0-2.36-1,.18.18,0,0,1-.26,0,.12.12,0,0,1,0-.06h0a0,0,0,0,1,0,0,.15.15,0,0,1,0-.06.33.33,0,0,0,0,0l.25-2.09a.16.16,0,0,1,.07-.13.17.17,0,0,1,.12,0h2.41a.18.18,0,0,1,.19.19.18.18,0,0,1-.19.19h-2.26L228.14,58a1.75,1.75,0,0,1,.88-.24,1.74,1.74,0,0,1,1.75,1.75,1.74,1.74,0,0,1-.51,1.24,1.8,1.8,0,0,1-1.24.51A1.75,1.75,0,0,1,227.77,60.73Z"/><rect class="cls-26" x="157.52" y="41.37" width="15.16" height="7.5" rx="3.75" ry="3.75"/><g class="cls-27"><rect class="cls-28" x="60.37" y="44.94" width="97.25" height="39.69" transform="translate(173.79 -44.21) rotate(90)"/><rect class="cls-29" x="91.86" y="110.7" width="34.27" height="39.69" transform="translate(239.55 21.55) rotate(90)"/><rect class="cls-30" x="91.86" y="144.97" width="34.27" height="39.69" transform="translate(273.82 55.82) rotate(90)"/><rect class="cls-31" x="91.86" y="179.24" width="34.27" height="39.69" transform="translate(308.09 90.09) rotate(90)"/><rect class="cls-32" x="91.86" y="213.51" width="34.27" height="39.69" transform="translate(342.35 124.36) rotate(90)"/></g><text class="cls-5" transform="translate(102.34 61.22)">30 <tspan x="-6.3" y="14.4">d</tspan><tspan class="cls-13" x="1.62" y="14.4">a</tspan><tspan class="cls-14" x="9.42" y="14.4">y</tspan><tspan x="16.23" y="14.4">s</tspan></text><path class="cls-3" d="M99.82,16.16A8.18,8.18,0,1,1,108,24.34,8.19,8.19,0,0,1,99.82,16.16Zm15.36,0A7.18,7.18,0,1,0,108,23.34,7.19,7.19,0,0,0,115.18,16.16Z"/><circle class="cls-3" cx="108" cy="16.16" r="3.18"/><line class="cls-26" x1="108" y1="16.16" x2="24.65" y2="16.16"/><path class="cls-3" d="M99.82,148.47a8.18,8.18,0,1,1,8.18,8.18A8.19,8.19,0,0,1,99.82,148.47Zm15.36,0a7.18,7.18,0,1,0-7.18,7.18A7.19,7.19,0,0,0,115.18,148.47Z"/><circle class="cls-3" cx="108" cy="148.47" r="3.18"/><line class="cls-26" x1="108" y1="148.47" x2="24.65" y2="148.47"/><path class="cls-3" d="M99.82,216.29a8.18,8.18,0,1,1,8.18,8.18A8.19,8.19,0,0,1,99.82,216.29Zm15.36,0a7.18,7.18,0,1,0-7.18,7.18A7.19,7.19,0,0,0,115.18,216.29Z"/><circle class="cls-3" cx="108" cy="216.29" r="3.18"/><line class="cls-26" x1="108" y1="216.29" x2="24.65" y2="216.29"/><path class="cls-3" d="M113,190.13a8.18,8.18,0,1,1,8.18-8.18A8.19,8.19,0,0,1,113,190.13Zm0-1a7.18,7.18,0,1,0-7.18-7.18A7.19,7.19,0,0,0,113,189.13Z"/><circle class="cls-3" cx="113" cy="181.95" r="3.18"/><line class="cls-26" x1="113" y1="181.95" x2="196.35" y2="181.95"/><path class="cls-3" d="M113,121.17a8.18,8.18,0,1,1,8.18-8.18A8.19,8.19,0,0,1,113,121.17Zm0-1a7.18,7.18,0,1,0-7.18-7.18A7.19,7.19,0,0,0,113,120.17Z"/><circle class="cls-3" cx="113" cy="112.99" r="3.18"/><line class="cls-26" x1="113" y1="112.99" x2="196.35" y2="112.99"/><path class="cls-3" d="M108.16,258.81a8.18,8.18,0,1,1,8.18-8.18A8.19,8.19,0,0,1,108.16,258.81Zm0-1a7.18,7.18,0,1,0-7.18-7.18A7.19,7.19,0,0,0,108.16,257.81Z"/><circle class="cls-3" cx="108.16" cy="250.63" r="3.18"/><line class="cls-26" x1="108.16" y1="250.63" x2="191.51" y2="250.63"/></svg>